G04 Layer_Color=128*
%FSLAX25Y25*%
%MOIN*%
G70*
G01*
G75*
%ADD10C,0.00394*%
%ADD11C,0.00200*%
D10*
X270012Y151201D02*
X271193Y150020D01*
X270406Y151988D02*
X271587Y150807D01*
X273622Y149213D02*
Y152362D01*
X272047Y150000D02*
X275197D01*
X273622D02*
X275197Y151575D01*
X272047D02*
X273622Y150000D01*
X272047Y151575D02*
X275197D01*
X92894Y221193D02*
X94075Y222374D01*
X92106Y221587D02*
X93287Y222768D01*
X91732Y224803D02*
X94882D01*
X94095Y223228D02*
Y226378D01*
X92520D02*
X94095Y224803D01*
X92520Y223228D02*
X94095Y224803D01*
X92520Y223228D02*
Y226378D01*
X238650Y92106D02*
X239831Y90925D01*
X238256Y91319D02*
X239437Y90138D01*
X236221Y89764D02*
Y92913D01*
X234646Y92126D02*
X237795D01*
X234646Y90551D02*
X236221Y92126D01*
X237795Y90551D01*
X234646D02*
X237795D01*
X247311Y92106D02*
X248492Y90925D01*
X246917Y91319D02*
X248098Y90138D01*
X244882Y89764D02*
Y92913D01*
X243307Y92126D02*
X246457D01*
X243307Y90551D02*
X244882Y92126D01*
X246457Y90551D01*
X243307D02*
X246457D01*
X97336Y291992D02*
X105465Y300121D01*
X93717Y295611D02*
X101846Y303740D01*
X93717Y295611D02*
X97336Y291992D01*
X101846Y303740D02*
X105465Y300121D01*
X97336Y291992D02*
X105465Y300121D01*
X93717Y295611D02*
X101846Y303740D01*
X93717Y295611D02*
X97336Y291992D01*
X101846Y303740D02*
X105465Y300121D01*
X101846Y303740D02*
X105465Y300121D01*
X93717Y295611D02*
X97336Y291992D01*
X93717Y295611D02*
X101846Y303740D01*
X97336Y291992D02*
X105465Y300121D01*
X292582Y298652D02*
X300711Y290523D01*
X296201Y302271D02*
X304330Y294142D01*
X292582Y298652D02*
X296201Y302271D01*
X300711Y290523D02*
X304330Y294142D01*
X292582Y298652D02*
X300711Y290523D01*
X296201Y302271D02*
X304330Y294142D01*
X292582Y298652D02*
X296201Y302271D01*
X300711Y290523D02*
X304330Y294142D01*
X300711Y290523D02*
X304330Y294142D01*
X292582Y298652D02*
X296201Y302271D01*
X304330Y294142D01*
X292582Y298652D02*
X300711Y290523D01*
X291880Y91221D02*
X300009Y99350D01*
X295499Y87602D02*
X303628Y95731D01*
X300009Y99350D02*
X303628Y95731D01*
X291880Y91221D02*
X295499Y87602D01*
X291880Y91221D02*
X300009Y99350D01*
X295499Y87602D02*
X303628Y95731D01*
X300009Y99350D02*
X303628Y95731D01*
X291880Y91221D02*
X295499Y87602D01*
X291880Y91221D02*
X295499Y87602D01*
X300009Y99350D02*
X303628Y95731D01*
X295499Y87602D02*
X303628Y95731D01*
X291880Y91221D02*
X300009Y99350D01*
X93395Y101856D02*
X101524Y93727D01*
X89776Y98237D02*
X97904Y90108D01*
X101524Y93727D01*
X89776Y98237D02*
X93395Y101856D01*
X101524Y93727D01*
X89776Y98237D02*
X97904Y90108D01*
X101524Y93727D01*
X89776Y98237D02*
X93395Y101856D01*
X89776Y98237D02*
X93395Y101856D01*
X97904Y90108D02*
X101524Y93727D01*
X89776Y98237D02*
X97904Y90108D01*
X93395Y101856D02*
X101524Y93727D01*
X123425Y116732D02*
X149803D01*
X123425Y131299D02*
X149803D01*
X123425Y116732D02*
Y131299D01*
X149803Y116732D02*
Y131299D01*
X92894Y212138D02*
X94075Y213319D01*
X92106Y212531D02*
X93287Y213713D01*
X91732Y215748D02*
X94882D01*
X94095Y214173D02*
Y217323D01*
X92520D02*
X94095Y215748D01*
X92520Y214173D02*
X94095Y215748D01*
X92520Y214173D02*
Y217323D01*
D11*
X308449Y233071D02*
X310449D01*
X309449Y232071D02*
Y234071D01*
X240339Y181102D02*
X242339D01*
X241339Y180102D02*
Y182102D01*
X250181Y191732D02*
X252181D01*
X251181Y190732D02*
Y192732D01*
X101362Y131102D02*
X103362D01*
X102362Y130102D02*
Y132102D01*
X159630Y128740D02*
X161630D01*
X160630Y127740D02*
Y129740D01*
X243882Y129528D02*
X245882D01*
X244882Y128528D02*
Y130528D01*
X241520Y304331D02*
X243520D01*
X242520Y303331D02*
Y305331D01*
X197819Y236221D02*
X199819D01*
X198819Y235221D02*
Y237221D01*
X170260Y242126D02*
X172260D01*
X171260Y241126D02*
Y243126D01*
X118685Y124016D02*
X120685D01*
X119685Y123016D02*
Y125016D01*
X58310Y327557D02*
X61853D01*
X60081Y325785D02*
Y329328D01*
X65381Y334628D02*
X68924D01*
X67153Y332856D02*
Y336399D01*
X333446Y328835D02*
X336989D01*
X335217Y327064D02*
Y330607D01*
X326375Y335906D02*
X329918D01*
X328146Y334135D02*
Y337678D01*
X335492Y63785D02*
X339035D01*
X337263Y62014D02*
Y65557D01*
X328421Y56714D02*
X331964D01*
X330192Y54943D02*
Y58486D01*
X57117Y63543D02*
X60660D01*
X58888Y61772D02*
Y65315D01*
X64188Y56472D02*
X67731D01*
X65959Y54700D02*
Y58244D01*
X203740Y141732D02*
X207283D01*
X205512Y139961D02*
Y143504D01*
X203740Y131732D02*
X207283D01*
X205512Y129961D02*
Y133504D01*
X193740Y141732D02*
X197283D01*
X195512Y139961D02*
Y143504D01*
X193740Y131732D02*
X197283D01*
X195512Y129961D02*
Y133504D01*
X183740Y141732D02*
X187284D01*
X185512Y139961D02*
Y143504D01*
X183740Y131732D02*
X187284D01*
X185512Y129961D02*
Y133504D01*
X173740Y141732D02*
X177284D01*
X175512Y139961D02*
Y143504D01*
X173740Y131732D02*
X177284D01*
X175512Y129961D02*
Y133504D01*
X235630Y243386D02*
X239173D01*
X237402Y241614D02*
Y245158D01*
X235630Y253386D02*
X239173D01*
X237402Y251614D02*
Y255157D01*
X235630Y263386D02*
X239173D01*
X237402Y261614D02*
Y265158D01*
X235630Y273386D02*
X239173D01*
X237402Y271614D02*
Y275157D01*
X222638Y243386D02*
X226181D01*
X224410Y241614D02*
Y245158D01*
X222638Y253386D02*
X226181D01*
X224410Y251614D02*
Y255157D01*
X222638Y263386D02*
X226181D01*
X224410Y261614D02*
Y265158D01*
X222638Y273386D02*
X226181D01*
X224410Y271614D02*
Y275157D01*
X191142Y294094D02*
X194685D01*
X192913Y292323D02*
Y295866D01*
X201142Y294094D02*
X204685D01*
X202913Y292323D02*
Y295866D01*
X209449Y87008D02*
X214961D01*
X212205Y84252D02*
Y89764D01*
X178347Y87008D02*
X183858D01*
X181102Y84252D02*
Y89764D01*
X135236Y204527D02*
X137992D01*
X136614Y203150D02*
Y205906D01*
X135236Y185236D02*
X137992D01*
X136614Y183858D02*
Y186614D01*
X250197Y151260D02*
X253740D01*
X251969Y149488D02*
Y153032D01*
X250197Y161260D02*
X253740D01*
X251969Y159488D02*
Y163031D01*
X250197Y171260D02*
X253740D01*
X251969Y169488D02*
Y173031D01*
X250197Y181260D02*
X253740D01*
X251969Y179488D02*
Y183031D01*
X118307Y303543D02*
X124213D01*
X121260Y300591D02*
Y306496D01*
X264370Y303543D02*
X270276D01*
X267323Y300591D02*
Y306496D01*
X264370Y77165D02*
X270276D01*
X267323Y74213D02*
Y80118D01*
X118307Y77165D02*
X124213D01*
X121260Y74213D02*
Y80118D01*
X117913Y185433D02*
X123819D01*
X120866Y182480D02*
Y188386D01*
X263976Y185433D02*
X269882D01*
X266929Y182480D02*
Y188386D01*
X216179Y144882D02*
X217679D01*
X216929Y144132D02*
Y145632D01*
X102543Y87008D02*
X104543D01*
X103543Y86008D02*
Y88008D01*
X76953Y110630D02*
X78953D01*
X77953Y109630D02*
Y111630D01*
X28921Y66535D02*
X30921D01*
X29921Y65535D02*
Y67535D01*
X8843Y35433D02*
X10842D01*
X9843Y34433D02*
Y36433D01*
X36795Y9843D02*
X38795D01*
X37795Y8843D02*
Y10842D01*
X66323Y27559D02*
X68323D01*
X67323Y26559D02*
Y28559D01*
X81283Y51181D02*
X83284D01*
X82284Y50181D02*
Y52181D01*
X323410Y36614D02*
X325410D01*
X324410Y35614D02*
Y37614D01*
X353331Y9843D02*
X355331D01*
X354331Y8843D02*
Y10842D01*
X383646Y42126D02*
X385646D01*
X384646Y41126D02*
Y43126D01*
X365535Y66142D02*
X367535D01*
X366535Y65142D02*
Y67142D01*
X324984Y97244D02*
X326984D01*
X325984Y96244D02*
Y98244D01*
X308842Y125591D02*
X310842D01*
X309842Y124591D02*
Y126591D01*
X261992Y108661D02*
X263992D01*
X262992Y107661D02*
Y109661D01*
X263173Y163779D02*
X265173D01*
X264173Y162779D02*
Y164779D01*
X256480Y213779D02*
X258480D01*
X257480Y212779D02*
Y214779D01*
X291913Y243701D02*
X293913D01*
X292913Y242701D02*
Y244701D01*
X324590Y298031D02*
X326590D01*
X325590Y297031D02*
Y299031D01*
X366717Y330315D02*
X368717D01*
X367717Y329315D02*
Y331315D01*
X382465Y358268D02*
X384465D01*
X383465Y357268D02*
Y359268D01*
X363567Y384252D02*
X365567D01*
X364567Y383252D02*
Y385252D01*
X333646Y368110D02*
X335646D01*
X334646Y367110D02*
Y369110D01*
X309236Y338189D02*
X311236D01*
X310236Y337189D02*
Y339189D01*
X283646Y319685D02*
X285646D01*
X284646Y318685D02*
Y320685D01*
X229709Y283071D02*
X231709D01*
X230709Y282071D02*
Y284071D01*
X175772Y290158D02*
X177772D01*
X176772Y289158D02*
Y291158D01*
X102937Y322441D02*
X104937D01*
X103937Y321441D02*
Y323441D01*
X86008Y281496D02*
X88008D01*
X87008Y280496D02*
Y282496D01*
X95850Y242520D02*
X97850D01*
X96850Y241520D02*
Y243520D01*
X181677Y262205D02*
X183677D01*
X182677Y261205D02*
Y263205D01*
X43882Y322441D02*
X45882D01*
X44882Y321441D02*
Y323441D01*
X16323Y340551D02*
X18323D01*
X17323Y339551D02*
Y341551D01*
X28528Y376378D02*
X30528D01*
X29528Y375378D02*
Y377378D01*
X58842Y375984D02*
X60843D01*
X59842Y374984D02*
Y376984D01*
X70260Y354331D02*
X72260D01*
X71260Y353331D02*
Y355331D01*
X179101Y211299D02*
X181101D01*
X180101Y210299D02*
Y212299D01*
X179101Y211299D02*
X181101D01*
X180101Y210299D02*
Y212299D01*
X184129Y211299D02*
X186129D01*
X185129Y210299D02*
Y212299D01*
X189157Y211299D02*
X191157D01*
X190157Y210299D02*
Y212299D01*
X194186Y211299D02*
X196186D01*
X195186Y210299D02*
Y212299D01*
X199214Y211299D02*
X201214D01*
X200214Y210299D02*
Y212299D01*
X214298Y211299D02*
X216298D01*
X215298Y210299D02*
Y212299D01*
X209270Y211299D02*
X211270D01*
X210270Y210299D02*
Y212299D01*
X204242Y211299D02*
X206242D01*
X205242Y210299D02*
Y212299D01*
X179101Y211299D02*
X181101D01*
X180101Y210299D02*
Y212299D01*
X204242Y206299D02*
X206242D01*
X205242Y205299D02*
Y207299D01*
X209270Y206299D02*
X211270D01*
X210270Y205299D02*
Y207299D01*
X214298Y206299D02*
X216298D01*
X215298Y205299D02*
Y207299D01*
X199214Y206299D02*
X201214D01*
X200214Y205299D02*
Y207299D01*
X194186Y206299D02*
X196186D01*
X195186Y205299D02*
Y207299D01*
X189157Y206299D02*
X191157D01*
X190157Y205299D02*
Y207299D01*
X184129Y206299D02*
X186129D01*
X185129Y205299D02*
Y207299D01*
X179101Y206299D02*
X181101D01*
X180101Y205299D02*
Y207299D01*
X204242Y201299D02*
X206242D01*
X205242Y200299D02*
Y202299D01*
X209270Y201299D02*
X211270D01*
X210270Y200299D02*
Y202299D01*
X214298Y201299D02*
X216298D01*
X215298Y200299D02*
Y202299D01*
X199214Y201299D02*
X201214D01*
X200214Y200299D02*
Y202299D01*
X194186Y201299D02*
X196186D01*
X195186Y200299D02*
Y202299D01*
X189157Y201299D02*
X191157D01*
X190157Y200299D02*
Y202299D01*
X184129Y201299D02*
X186129D01*
X185129Y200299D02*
Y202299D01*
X179101Y201299D02*
X181101D01*
X180101Y200299D02*
Y202299D01*
X204242Y196299D02*
X206242D01*
X205242Y195299D02*
Y197299D01*
X209270Y196299D02*
X211270D01*
X210270Y195299D02*
Y197299D01*
X214298Y196299D02*
X216298D01*
X215298Y195299D02*
Y197299D01*
X199214Y196299D02*
X201214D01*
X200214Y195299D02*
Y197299D01*
X194186Y196299D02*
X196186D01*
X195186Y195299D02*
Y197299D01*
X189157Y196299D02*
X191157D01*
X190157Y195299D02*
Y197299D01*
X184129Y196299D02*
X186129D01*
X185129Y195299D02*
Y197299D01*
X179101Y196299D02*
X181101D01*
X180101Y195299D02*
Y197299D01*
X204242Y191299D02*
X206242D01*
X205242Y190299D02*
Y192299D01*
X209270Y191299D02*
X211270D01*
X210270Y190299D02*
Y192299D01*
X214298Y191299D02*
X216298D01*
X215298Y190299D02*
Y192299D01*
X199214Y191299D02*
X201214D01*
X200214Y190299D02*
Y192299D01*
X194186Y191299D02*
X196186D01*
X195186Y190299D02*
Y192299D01*
X189157Y191299D02*
X191157D01*
X190157Y190299D02*
Y192299D01*
X184129Y191299D02*
X186129D01*
X185129Y190299D02*
Y192299D01*
X179101Y191299D02*
X181101D01*
X180101Y190299D02*
Y192299D01*
X204242Y186299D02*
X206242D01*
X205242Y185299D02*
Y187299D01*
X209270Y186299D02*
X211270D01*
X210270Y185299D02*
Y187299D01*
X214298Y186299D02*
X216298D01*
X215298Y185299D02*
Y187299D01*
X199214Y186299D02*
X201214D01*
X200214Y185299D02*
Y187299D01*
X194186Y186299D02*
X196186D01*
X195186Y185299D02*
Y187299D01*
X189157Y186299D02*
X191157D01*
X190157Y185299D02*
Y187299D01*
X184129Y186299D02*
X186129D01*
X185129Y185299D02*
Y187299D01*
X179101Y186299D02*
X181101D01*
X180101Y185299D02*
Y187299D01*
X204242Y181299D02*
X206242D01*
X205242Y180299D02*
Y182299D01*
X209270Y181299D02*
X211270D01*
X210270Y180299D02*
Y182299D01*
X214298Y181299D02*
X216298D01*
X215298Y180299D02*
Y182299D01*
X199214Y181299D02*
X201214D01*
X200214Y180299D02*
Y182299D01*
X194186Y181299D02*
X196186D01*
X195186Y180299D02*
Y182299D01*
X189157Y181299D02*
X191157D01*
X190157Y180299D02*
Y182299D01*
X184129Y181299D02*
X186129D01*
X185129Y180299D02*
Y182299D01*
X179101Y181299D02*
X181101D01*
X180101Y180299D02*
Y182299D01*
X204242Y176299D02*
X206242D01*
X205242Y175299D02*
Y177299D01*
X209270Y176299D02*
X211270D01*
X210270Y175299D02*
Y177299D01*
X214298Y176299D02*
X216298D01*
X215298Y175299D02*
Y177299D01*
X199214Y176299D02*
X201214D01*
X200214Y175299D02*
Y177299D01*
X194186Y176299D02*
X196186D01*
X195186Y175299D02*
Y177299D01*
X189157Y176299D02*
X191157D01*
X190157Y175299D02*
Y177299D01*
X184129Y176299D02*
X186129D01*
X185129Y175299D02*
Y177299D01*
X179101Y176299D02*
X181101D01*
X180101Y175299D02*
Y177299D01*
X213961Y98819D02*
X215961D01*
X214961Y97819D02*
Y99819D01*
X196244Y85039D02*
X198244D01*
X197244Y84039D02*
Y86039D01*
X165535Y84252D02*
X167535D01*
X166535Y83252D02*
Y85252D01*
X139551Y78347D02*
X141551D01*
X140551Y77346D02*
Y79347D01*
X113173Y148425D02*
X115173D01*
X114173Y147425D02*
Y149425D01*
X147031Y146850D02*
X149031D01*
X148031Y145850D02*
Y147850D01*
X114748Y204724D02*
X116748D01*
X115748Y203724D02*
Y205724D01*
X159630Y279921D02*
X161630D01*
X160630Y278921D02*
Y280921D01*
X117898Y250787D02*
X119898D01*
X118898Y249787D02*
Y251787D01*
X263173Y275197D02*
X265173D01*
X264173Y274197D02*
Y276197D01*
X270654Y292520D02*
X272654D01*
X271654Y291520D02*
Y293520D01*
X165929Y164173D02*
X167929D01*
X166929Y163173D02*
Y165173D01*
X141126Y164173D02*
X143126D01*
X142126Y163173D02*
Y165173D01*
X114354Y175984D02*
X116354D01*
X115354Y174984D02*
Y176984D01*
X237976Y156693D02*
X239976D01*
X238976Y155693D02*
Y157693D01*
X121441Y236614D02*
X123441D01*
X122441Y235614D02*
Y237614D01*
X159236Y247244D02*
X161236D01*
X160236Y246244D02*
Y248244D01*
X123016Y275787D02*
X125016D01*
X124016Y274787D02*
Y276787D01*
X159236Y257087D02*
X161236D01*
X160236Y256087D02*
Y258087D01*
X149606Y280709D02*
X151181D01*
X150394Y279921D02*
Y281496D01*
X301756Y68504D02*
X303756D01*
X302756Y67504D02*
Y69504D01*
X277346Y312992D02*
X279346D01*
X278346Y311992D02*
Y313992D01*
X95669Y276772D02*
X97244D01*
X96457Y275984D02*
Y277559D01*
X133646Y88189D02*
X135646D01*
X134646Y87189D02*
Y89189D01*
X243094Y79134D02*
X245094D01*
X244094Y78134D02*
Y80134D01*
X224410Y127165D02*
X225984D01*
X225197Y126378D02*
Y127953D01*
X168504Y112205D02*
X170079D01*
X169291Y111417D02*
Y112992D01*
X309646Y250197D02*
X312795D01*
X311221Y248622D02*
Y251772D01*
X309646Y218701D02*
X312795D01*
X311221Y217126D02*
Y220276D01*
X187500Y94433D02*
X190059D01*
X188779Y93154D02*
Y95713D01*
X203248Y94433D02*
X205807D01*
X204528Y93154D02*
Y95713D01*
X114567Y131102D02*
X116142D01*
X115354Y130315D02*
Y131890D01*
X124016Y242520D02*
X125591D01*
X124803Y241732D02*
Y243307D01*
X143307Y224410D02*
X144882D01*
X144095Y223622D02*
Y225197D01*
X133858Y304724D02*
X135433D01*
X134646Y303937D02*
Y305512D01*
X140945Y310630D02*
X142520D01*
X141732Y309842D02*
Y311417D01*
X250000Y214173D02*
X251575D01*
X250787Y213386D02*
Y214961D01*
X247638Y218504D02*
X249213D01*
X248425Y217717D02*
Y219291D01*
X245276Y222047D02*
X246850D01*
X246063Y221260D02*
Y222835D01*
X170473Y252362D02*
X172047D01*
X171260Y251575D02*
Y253150D01*
X207661Y271260D02*
X209661D01*
X208661Y270260D02*
Y272260D01*
X292126Y271654D02*
X293701D01*
X292913Y270866D02*
Y272441D01*
X259055Y201575D02*
X260630D01*
X259842Y200787D02*
Y202362D01*
X279134Y238189D02*
X280709D01*
X279921Y237402D02*
Y238976D01*
X285433Y238189D02*
X287008D01*
X286221Y237402D02*
Y238976D01*
X248071Y246063D02*
X250071D01*
X249071Y245063D02*
Y247063D01*
X278134Y233858D02*
X280134D01*
X279134Y232858D02*
Y234858D01*
X340551Y39370D02*
X368110D01*
X354331Y25591D02*
Y53150D01*
X25591Y39370D02*
X53150D01*
X39370Y25591D02*
Y53150D01*
X25591Y354331D02*
X53150D01*
X39370Y340551D02*
Y368110D01*
X340551Y354331D02*
X368110D01*
X354331Y340551D02*
Y368110D01*
X150000Y160630D02*
X151575D01*
X150787Y159843D02*
Y161417D01*
X190945Y246850D02*
X192520D01*
X191732Y246063D02*
Y247638D01*
X158055Y290158D02*
X160055D01*
X159055Y289158D02*
Y291158D01*
M02*
