G04 Layer_Physical_Order=2*
G04 Layer_Color=16711680*
%FSLAX25Y25*%
%MOIN*%
G70*
G01*
G75*
%ADD34C,0.02000*%
%ADD35C,0.01500*%
%ADD37C,0.03000*%
%ADD38C,0.04000*%
%ADD40C,0.04000*%
%ADD41C,0.05905*%
%ADD42P,0.08352X4X270.0*%
%ADD43P,0.08352X4X360.0*%
%ADD44R,0.05905X0.05905*%
%ADD45R,0.05905X0.05905*%
%ADD46C,0.08661*%
%ADD47C,0.06299*%
%ADD48O,0.05905X0.13780*%
%ADD49C,0.03000*%
%ADD50C,0.02362*%
%ADD51C,0.03150*%
%ADD52C,0.02559*%
%ADD53C,0.31496*%
G36*
X39867Y392622D02*
X43126Y392462D01*
X46845Y391911D01*
X50493Y390997D01*
X54033Y389730D01*
X57432Y388123D01*
X60657Y386190D01*
X63678Y383950D01*
X66464Y381424D01*
X68989Y378638D01*
X71229Y375618D01*
X73162Y372393D01*
X74770Y368994D01*
X76036Y365453D01*
X76950Y361806D01*
X77502Y358086D01*
X77683Y354398D01*
X77670Y354331D01*
X77751Y353921D01*
X77983Y353574D01*
X78103Y353481D01*
X78103Y353481D01*
X83312Y349662D01*
X90493Y344864D01*
X97877Y340384D01*
X105448Y336229D01*
X113194Y332410D01*
X121099Y328931D01*
X129148Y325801D01*
X137326Y323025D01*
X145618Y320608D01*
X154007Y318556D01*
X162477Y316871D01*
X171013Y315557D01*
X179598Y314617D01*
X188216Y314052D01*
X196850Y313863D01*
X205485Y314052D01*
X214103Y314617D01*
X222688Y315557D01*
X231224Y316871D01*
X239694Y318556D01*
X248083Y320608D01*
X256374Y323025D01*
X264552Y325801D01*
X272602Y328931D01*
X280507Y332410D01*
X288252Y336229D01*
X295824Y340384D01*
X303207Y344864D01*
X310388Y349662D01*
X315598Y353481D01*
X315598Y353481D01*
X315718Y353574D01*
X315950Y353921D01*
X316031Y354331D01*
X316018Y354398D01*
X316199Y358086D01*
X316751Y361806D01*
X317664Y365453D01*
X318931Y368994D01*
X320539Y372393D01*
X322472Y375618D01*
X324712Y378638D01*
X327237Y381424D01*
X330023Y383950D01*
X333043Y386190D01*
X336269Y388123D01*
X339668Y389730D01*
X343208Y390997D01*
X346856Y391911D01*
X350575Y392462D01*
X353834Y392622D01*
X354331Y392630D01*
D01*
X354822Y392623D01*
X358086Y392462D01*
X361806Y391911D01*
X365453Y390997D01*
X368994Y389730D01*
X372393Y388123D01*
X375618Y386190D01*
X378638Y383950D01*
X381424Y381424D01*
X383950Y378638D01*
X386190Y375618D01*
X388123Y372393D01*
X389730Y368994D01*
X390997Y365453D01*
X391911Y361806D01*
X392462Y358086D01*
X392623Y354822D01*
X392630Y354331D01*
D01*
X392622Y353834D01*
X392462Y350575D01*
X391911Y346856D01*
X390997Y343208D01*
X389730Y339668D01*
X388123Y336269D01*
X386190Y333043D01*
X383950Y330023D01*
X381424Y327237D01*
X378638Y324712D01*
X375618Y322472D01*
X372393Y320539D01*
X368994Y318931D01*
X365453Y317664D01*
X361806Y316751D01*
X358086Y316199D01*
X354398Y316018D01*
X354331Y316031D01*
X353921Y315950D01*
X353574Y315718D01*
X353481Y315598D01*
X353481Y315598D01*
X349662Y310388D01*
X344864Y303207D01*
X340384Y295824D01*
X336229Y288252D01*
X332410Y280507D01*
X328931Y272602D01*
X325801Y264552D01*
X323025Y256374D01*
X320608Y248083D01*
X318556Y239694D01*
X316871Y231224D01*
X315557Y222688D01*
X314617Y214103D01*
X314052Y205485D01*
X313863Y196850D01*
X314052Y188216D01*
X314617Y179598D01*
X315557Y171013D01*
X316871Y162477D01*
X318556Y154007D01*
X320608Y145618D01*
X323025Y137326D01*
X325801Y129148D01*
X328931Y121099D01*
X332410Y113194D01*
X336229Y105448D01*
X340384Y97877D01*
X344864Y90493D01*
X349662Y83312D01*
X353481Y78103D01*
X353481Y78103D01*
X353574Y77983D01*
X353921Y77751D01*
X354331Y77670D01*
X354398Y77683D01*
X358086Y77502D01*
X361806Y76950D01*
X365453Y76036D01*
X368994Y74770D01*
X372393Y73162D01*
X375618Y71229D01*
X378638Y68989D01*
X381424Y66464D01*
X383950Y63678D01*
X386190Y60657D01*
X388123Y57432D01*
X389730Y54033D01*
X390997Y50493D01*
X391911Y46845D01*
X392462Y43126D01*
X392622Y39867D01*
X392630Y39370D01*
D01*
X392623Y38879D01*
X392462Y35614D01*
X391911Y31895D01*
X390997Y28247D01*
X389730Y24707D01*
X388123Y21308D01*
X386190Y18083D01*
X383950Y15063D01*
X381424Y12276D01*
X378638Y9751D01*
X375618Y7511D01*
X372393Y5578D01*
X368994Y3971D01*
X365453Y2704D01*
X361806Y1790D01*
X358086Y1238D01*
X354822Y1078D01*
X354331Y1071D01*
D01*
X353834Y1078D01*
X350575Y1238D01*
X346856Y1790D01*
X343208Y2704D01*
X339668Y3971D01*
X336269Y5578D01*
X333043Y7511D01*
X330023Y9751D01*
X327237Y12276D01*
X324712Y15063D01*
X322472Y18083D01*
X320539Y21308D01*
X318931Y24707D01*
X317664Y28247D01*
X316751Y31895D01*
X316199Y35614D01*
X316018Y39303D01*
X316031Y39370D01*
X315950Y39780D01*
X315718Y40127D01*
X315598Y40219D01*
X315598Y40219D01*
X310388Y44039D01*
X303207Y48837D01*
X295824Y53317D01*
X288252Y57471D01*
X280507Y61291D01*
X272602Y64769D01*
X264552Y67900D01*
X256374Y70676D01*
X248083Y73092D01*
X239694Y75145D01*
X231224Y76830D01*
X222688Y78144D01*
X214103Y79084D01*
X205485Y79649D01*
X196850Y79837D01*
X188216Y79649D01*
X179598Y79084D01*
X171013Y78144D01*
X162477Y76830D01*
X154007Y75145D01*
X145618Y73092D01*
X137326Y70676D01*
X129148Y67900D01*
X121099Y64769D01*
X113194Y61291D01*
X105448Y57471D01*
X97877Y53317D01*
X90493Y48837D01*
X83312Y44039D01*
X78103Y40219D01*
X78103Y40219D01*
X77983Y40127D01*
X77751Y39780D01*
X77670Y39370D01*
X77683Y39303D01*
X77502Y35614D01*
X76950Y31895D01*
X76036Y28247D01*
X74770Y24707D01*
X73162Y21308D01*
X71229Y18083D01*
X68989Y15063D01*
X66464Y12276D01*
X63678Y9751D01*
X60657Y7511D01*
X57432Y5578D01*
X54033Y3971D01*
X50493Y2704D01*
X46845Y1790D01*
X43126Y1238D01*
X39867Y1078D01*
X39370Y1071D01*
D01*
X38879Y1078D01*
X35614Y1238D01*
X31895Y1790D01*
X28247Y2704D01*
X24707Y3971D01*
X21308Y5578D01*
X18083Y7511D01*
X15063Y9751D01*
X12276Y12276D01*
X9751Y15063D01*
X7511Y18083D01*
X5578Y21308D01*
X3971Y24707D01*
X2704Y28247D01*
X1790Y31895D01*
X1238Y35614D01*
X1078Y38879D01*
X1071Y39370D01*
D01*
X1078Y39867D01*
X1238Y43126D01*
X1790Y46845D01*
X2704Y50493D01*
X3971Y54033D01*
X5578Y57432D01*
X7511Y60657D01*
X9751Y63678D01*
X12276Y66464D01*
X15063Y68989D01*
X18083Y71229D01*
X21308Y73162D01*
X24707Y74770D01*
X28247Y76036D01*
X31895Y76950D01*
X35614Y77502D01*
X39303Y77683D01*
X39370Y77670D01*
X39780Y77751D01*
X40127Y77983D01*
X40219Y78103D01*
X40219Y78103D01*
X44039Y83312D01*
X48837Y90493D01*
X53317Y97877D01*
X57471Y105448D01*
X61291Y113194D01*
X64769Y121099D01*
X67900Y129148D01*
X70676Y137326D01*
X73092Y145618D01*
X75145Y154007D01*
X76830Y162477D01*
X78144Y171013D01*
X79084Y179598D01*
X79649Y188216D01*
X79837Y196850D01*
X79649Y205485D01*
X79084Y214103D01*
X78144Y222688D01*
X76830Y231224D01*
X75145Y239694D01*
X73092Y248083D01*
X70676Y256374D01*
X67900Y264552D01*
X64769Y272602D01*
X61291Y280507D01*
X57471Y288252D01*
X53317Y295824D01*
X48837Y303207D01*
X44039Y310388D01*
X40219Y315598D01*
X40219Y315598D01*
X40127Y315718D01*
X39780Y315950D01*
X39370Y316031D01*
X39303Y316018D01*
X35614Y316199D01*
X31895Y316751D01*
X28247Y317664D01*
X24707Y318931D01*
X21308Y320539D01*
X18083Y322472D01*
X15063Y324712D01*
X12276Y327237D01*
X9751Y330023D01*
X7511Y333043D01*
X5578Y336269D01*
X3971Y339668D01*
X2704Y343208D01*
X1790Y346856D01*
X1238Y350575D01*
X1078Y353834D01*
X1071Y354331D01*
D01*
X1078Y354822D01*
X1238Y358086D01*
X1790Y361806D01*
X2704Y365453D01*
X3971Y368994D01*
X5578Y372393D01*
X7511Y375618D01*
X9751Y378638D01*
X12276Y381424D01*
X15063Y383950D01*
X18083Y386190D01*
X21308Y388123D01*
X24707Y389730D01*
X28247Y390997D01*
X31895Y391911D01*
X35614Y392462D01*
X38879Y392623D01*
X39370Y392630D01*
D01*
X39867Y392622D01*
D02*
G37*
%LPC*%
G36*
X102862Y134062D02*
Y131602D01*
X105322D01*
X105285Y131886D01*
X104983Y132615D01*
X104502Y133242D01*
X103875Y133723D01*
X103145Y134025D01*
X102862Y134062D01*
D02*
G37*
G36*
X150787Y162854D02*
X149936Y162685D01*
X149215Y162202D01*
X148733Y161481D01*
X148638Y161004D01*
X120521Y132887D01*
X116610D01*
X116205Y133157D01*
X115354Y133326D01*
X114503Y133157D01*
X113782Y132675D01*
X113300Y131953D01*
X113130Y131102D01*
X113300Y130251D01*
X113782Y129530D01*
X114503Y129048D01*
X115354Y128878D01*
X116205Y129048D01*
X116610Y129318D01*
X121260D01*
X121943Y129454D01*
X122521Y129841D01*
X151161Y158481D01*
X151638Y158575D01*
X152360Y159057D01*
X152842Y159779D01*
X153011Y160630D01*
X152842Y161481D01*
X152360Y162202D01*
X151638Y162685D01*
X150787Y162854D01*
D02*
G37*
G36*
X185512Y145719D02*
X184480Y145583D01*
X183518Y145185D01*
X182693Y144551D01*
X182059Y143726D01*
X181661Y142764D01*
X181525Y141732D01*
X181661Y140700D01*
X182059Y139739D01*
X182693Y138913D01*
X183518Y138280D01*
X184480Y137881D01*
X185512Y137745D01*
X186544Y137881D01*
X187505Y138280D01*
X188331Y138913D01*
X188964Y139739D01*
X189363Y140700D01*
X189499Y141732D01*
X189363Y142764D01*
X188964Y143726D01*
X188331Y144551D01*
X187505Y145185D01*
X186544Y145583D01*
X185512Y145719D01*
D02*
G37*
G36*
X175512D02*
X174480Y145583D01*
X173518Y145185D01*
X172693Y144551D01*
X172059Y143726D01*
X171661Y142764D01*
X171525Y141732D01*
X171661Y140700D01*
X172059Y139739D01*
X172693Y138913D01*
X173518Y138280D01*
X174480Y137881D01*
X175512Y137745D01*
X176544Y137881D01*
X177505Y138280D01*
X178331Y138913D01*
X178964Y139739D01*
X179363Y140700D01*
X179499Y141732D01*
X179363Y142764D01*
X178964Y143726D01*
X178331Y144551D01*
X177505Y145185D01*
X176544Y145583D01*
X175512Y145719D01*
D02*
G37*
G36*
X244382Y132488D02*
X244099Y132450D01*
X243369Y132148D01*
X242742Y131667D01*
X242261Y131041D01*
X241959Y130311D01*
X241922Y130028D01*
X244382D01*
Y132488D01*
D02*
G37*
G36*
X161130Y131700D02*
Y129240D01*
X163590D01*
X163553Y129523D01*
X163250Y130253D01*
X162770Y130880D01*
X162143Y131361D01*
X161413Y131663D01*
X161130Y131700D01*
D02*
G37*
G36*
X101862Y134062D02*
X101579Y134025D01*
X100849Y133723D01*
X100223Y133242D01*
X99742Y132615D01*
X99439Y131886D01*
X99402Y131602D01*
X101862D01*
Y134062D01*
D02*
G37*
G36*
X245382Y132488D02*
Y130028D01*
X247842D01*
X247805Y130311D01*
X247502Y131041D01*
X247022Y131667D01*
X246395Y132148D01*
X245665Y132450D01*
X245382Y132488D01*
D02*
G37*
G36*
X195512Y145719D02*
X194480Y145583D01*
X193518Y145185D01*
X192693Y144551D01*
X192059Y143726D01*
X191661Y142764D01*
X191525Y141732D01*
X191661Y140700D01*
X192059Y139739D01*
X192693Y138913D01*
X193518Y138280D01*
X194480Y137881D01*
X195512Y137745D01*
X196544Y137881D01*
X197505Y138280D01*
X198331Y138913D01*
X198965Y139739D01*
X199363Y140700D01*
X199499Y141732D01*
X199363Y142764D01*
X198965Y143726D01*
X198331Y144551D01*
X197505Y145185D01*
X196544Y145583D01*
X195512Y145719D01*
D02*
G37*
G36*
X147531Y146350D02*
X145071D01*
X145109Y146067D01*
X145411Y145337D01*
X145892Y144711D01*
X146519Y144230D01*
X147248Y143928D01*
X147531Y143890D01*
Y146350D01*
D02*
G37*
G36*
X219379Y144382D02*
X217429D01*
Y142432D01*
X217905Y142527D01*
X218731Y143079D01*
X219284Y143906D01*
X219379Y144382D01*
D02*
G37*
G36*
X216429Y147331D02*
X215954Y147237D01*
X215127Y146684D01*
X214574Y145857D01*
X214480Y145382D01*
X216429D01*
Y147331D01*
D02*
G37*
G36*
X150992Y146350D02*
X148531D01*
Y143890D01*
X148815Y143928D01*
X149544Y144230D01*
X150171Y144711D01*
X150652Y145337D01*
X150954Y146067D01*
X150992Y146350D01*
D02*
G37*
G36*
X216429Y144382D02*
X214480D01*
X214574Y143906D01*
X215127Y143079D01*
X215954Y142527D01*
X216429Y142432D01*
Y144382D01*
D02*
G37*
G36*
X209484Y141232D02*
X206012D01*
Y137760D01*
X208465D01*
X208855Y137838D01*
X209186Y138059D01*
X209406Y138389D01*
X209484Y138779D01*
Y141232D01*
D02*
G37*
G36*
X205012D02*
X201539D01*
Y138779D01*
X201617Y138389D01*
X201838Y138059D01*
X202169Y137838D01*
X202559Y137760D01*
X205012D01*
Y141232D01*
D02*
G37*
G36*
X208465Y145705D02*
X206012D01*
Y142232D01*
X209484D01*
Y144685D01*
X209406Y145075D01*
X209186Y145406D01*
X208855Y145627D01*
X208465Y145705D01*
D02*
G37*
G36*
X205012D02*
X202559D01*
X202169Y145627D01*
X201838Y145406D01*
X201617Y145075D01*
X201539Y144685D01*
Y142232D01*
X205012D01*
Y145705D01*
D02*
G37*
G36*
X160130Y131700D02*
X159847Y131663D01*
X159117Y131361D01*
X158490Y130880D01*
X158009Y130253D01*
X157707Y129523D01*
X157670Y129240D01*
X160130D01*
Y131700D01*
D02*
G37*
G36*
X312803Y125091D02*
X310343D01*
Y122631D01*
X310626Y122668D01*
X311355Y122970D01*
X311982Y123451D01*
X312463Y124078D01*
X312765Y124807D01*
X312803Y125091D01*
D02*
G37*
G36*
X309343D02*
X306883D01*
X306920Y124807D01*
X307222Y124078D01*
X307703Y123451D01*
X308330Y122970D01*
X309059Y122668D01*
X309343Y122631D01*
Y125091D01*
D02*
G37*
G36*
X120185Y126976D02*
Y124516D01*
X122645D01*
X122608Y124799D01*
X122306Y125529D01*
X121825Y126155D01*
X121198Y126636D01*
X120468Y126938D01*
X120185Y126976D01*
D02*
G37*
G36*
X119185D02*
X118902Y126938D01*
X118172Y126636D01*
X117545Y126155D01*
X117064Y125529D01*
X116762Y124799D01*
X116725Y124516D01*
X119185D01*
Y126976D01*
D02*
G37*
G36*
X122645Y123516D02*
X120185D01*
Y121056D01*
X120468Y121093D01*
X121198Y121395D01*
X121825Y121876D01*
X122306Y122503D01*
X122608Y123233D01*
X122645Y123516D01*
D02*
G37*
G36*
X77453Y113590D02*
X77170Y113553D01*
X76440Y113250D01*
X75813Y112770D01*
X75332Y112143D01*
X75030Y111413D01*
X74993Y111130D01*
X77453D01*
Y113590D01*
D02*
G37*
G36*
X263492Y111621D02*
Y109161D01*
X265952D01*
X265915Y109445D01*
X265613Y110174D01*
X265132Y110801D01*
X264505Y111282D01*
X263775Y111584D01*
X263492Y111621D01*
D02*
G37*
G36*
X119185Y123516D02*
X116725D01*
X116762Y123233D01*
X117064Y122503D01*
X117545Y121876D01*
X118172Y121395D01*
X118902Y121093D01*
X119185Y121056D01*
Y123516D01*
D02*
G37*
G36*
X78453Y113590D02*
Y111130D01*
X80913D01*
X80875Y111413D01*
X80573Y112143D01*
X80092Y112770D01*
X79466Y113250D01*
X78736Y113553D01*
X78453Y113590D01*
D02*
G37*
G36*
X160130Y128240D02*
X157670D01*
X157707Y127957D01*
X158009Y127227D01*
X158490Y126601D01*
X159117Y126120D01*
X159847Y125817D01*
X160130Y125780D01*
Y128240D01*
D02*
G37*
G36*
X101862Y130602D02*
X99402D01*
X99439Y130319D01*
X99742Y129589D01*
X100223Y128963D01*
X100849Y128482D01*
X101579Y128180D01*
X101862Y128142D01*
Y130602D01*
D02*
G37*
G36*
X175512Y135719D02*
X174480Y135583D01*
X173518Y135185D01*
X172693Y134551D01*
X172059Y133726D01*
X171661Y132764D01*
X171525Y131732D01*
X171661Y130700D01*
X172059Y129739D01*
X172693Y128913D01*
X173518Y128280D01*
X174480Y127881D01*
X175512Y127745D01*
X176544Y127881D01*
X177505Y128280D01*
X178331Y128913D01*
X178964Y129739D01*
X179363Y130700D01*
X179499Y131732D01*
X179363Y132764D01*
X178964Y133726D01*
X178331Y134551D01*
X177505Y135185D01*
X176544Y135583D01*
X175512Y135719D01*
D02*
G37*
G36*
X205512D02*
X204480Y135583D01*
X203518Y135185D01*
X202693Y134551D01*
X202059Y133726D01*
X201661Y132764D01*
X201525Y131732D01*
X201661Y130700D01*
X202059Y129739D01*
X202125Y129653D01*
X201904Y129204D01*
X199120D01*
X198899Y129653D01*
X198965Y129739D01*
X199363Y130700D01*
X199499Y131732D01*
X199363Y132764D01*
X198965Y133726D01*
X198331Y134551D01*
X197505Y135185D01*
X196544Y135583D01*
X195512Y135719D01*
X194480Y135583D01*
X193518Y135185D01*
X192693Y134551D01*
X192059Y133726D01*
X191661Y132764D01*
X191525Y131732D01*
X191661Y130700D01*
X192059Y129739D01*
X192125Y129653D01*
X191904Y129204D01*
X189120D01*
X188899Y129653D01*
X188964Y129739D01*
X189363Y130700D01*
X189499Y131732D01*
X189363Y132764D01*
X188964Y133726D01*
X188331Y134551D01*
X187505Y135185D01*
X186544Y135583D01*
X185512Y135719D01*
X184480Y135583D01*
X183518Y135185D01*
X182693Y134551D01*
X182059Y133726D01*
X181661Y132764D01*
X181525Y131732D01*
X181661Y130700D01*
X182059Y129739D01*
X182583Y129057D01*
X182681Y128861D01*
X182576Y128373D01*
X168467Y114265D01*
X168440Y114259D01*
X167719Y113777D01*
X167237Y113056D01*
X167068Y112205D01*
X167237Y111354D01*
X167719Y110632D01*
X168440Y110150D01*
X169291Y109981D01*
X170142Y110150D01*
X170864Y110632D01*
X171346Y111354D01*
X171351Y111381D01*
X185097Y125126D01*
X224323D01*
X224346Y125111D01*
X225197Y124942D01*
X226048Y125111D01*
X226769Y125593D01*
X227251Y126314D01*
X227421Y127165D01*
X227251Y128016D01*
X226769Y128738D01*
X226048Y129220D01*
X225197Y129389D01*
X224346Y129220D01*
X224323Y129204D01*
X209120D01*
X208899Y129653D01*
X208964Y129739D01*
X209363Y130700D01*
X209499Y131732D01*
X209363Y132764D01*
X208964Y133726D01*
X208331Y134551D01*
X207505Y135185D01*
X206544Y135583D01*
X205512Y135719D01*
D02*
G37*
G36*
X105322Y130602D02*
X102862D01*
Y128142D01*
X103145Y128180D01*
X103875Y128482D01*
X104502Y128963D01*
X104983Y129589D01*
X105285Y130319D01*
X105322Y130602D01*
D02*
G37*
G36*
X247842Y129028D02*
X245382D01*
Y126567D01*
X245665Y126605D01*
X246395Y126907D01*
X247022Y127388D01*
X247502Y128015D01*
X247805Y128744D01*
X247842Y129028D01*
D02*
G37*
G36*
X309343Y128551D02*
X309059Y128513D01*
X308330Y128211D01*
X307703Y127730D01*
X307222Y127103D01*
X306920Y126374D01*
X306883Y126091D01*
X309343D01*
Y128551D01*
D02*
G37*
G36*
X163590Y128240D02*
X161130D01*
Y125780D01*
X161413Y125817D01*
X162143Y126120D01*
X162770Y126601D01*
X163250Y127227D01*
X163553Y127957D01*
X163590Y128240D01*
D02*
G37*
G36*
X244382Y129028D02*
X241922D01*
X241959Y128744D01*
X242261Y128015D01*
X242742Y127388D01*
X243369Y126907D01*
X244099Y126605D01*
X244382Y126567D01*
Y129028D01*
D02*
G37*
G36*
X310343Y128551D02*
Y126091D01*
X312803D01*
X312765Y126374D01*
X312463Y127103D01*
X311982Y127730D01*
X311355Y128211D01*
X310626Y128513D01*
X310343Y128551D01*
D02*
G37*
G36*
X114854Y175484D02*
X112394D01*
X112432Y175201D01*
X112734Y174471D01*
X113215Y173845D01*
X113841Y173364D01*
X114571Y173062D01*
X114854Y173024D01*
Y175484D01*
D02*
G37*
G36*
X251969Y175247D02*
X250937Y175111D01*
X249975Y174713D01*
X249149Y174079D01*
X248516Y173253D01*
X248117Y172292D01*
X247982Y171260D01*
X248117Y170228D01*
X248516Y169266D01*
X249149Y168441D01*
X249975Y167807D01*
X250937Y167409D01*
X251969Y167273D01*
X253000Y167409D01*
X253962Y167807D01*
X254788Y168441D01*
X255421Y169266D01*
X255820Y170228D01*
X255955Y171260D01*
X255820Y172292D01*
X255421Y173253D01*
X254788Y174079D01*
X253962Y174713D01*
X253000Y175111D01*
X251969Y175247D01*
D02*
G37*
G36*
X179601Y175799D02*
X177141D01*
X177178Y175516D01*
X177481Y174786D01*
X177962Y174160D01*
X178588Y173679D01*
X179318Y173376D01*
X179601Y173339D01*
Y175799D01*
D02*
G37*
G36*
X118314Y175484D02*
X115854D01*
Y173024D01*
X116138Y173062D01*
X116867Y173364D01*
X117494Y173845D01*
X117975Y174471D01*
X118277Y175201D01*
X118314Y175484D01*
D02*
G37*
G36*
X167429Y167133D02*
Y164673D01*
X169889D01*
X169852Y164956D01*
X169550Y165686D01*
X169069Y166313D01*
X168442Y166794D01*
X167712Y167096D01*
X167429Y167133D01*
D02*
G37*
G36*
X141626D02*
X141343Y167096D01*
X140613Y166794D01*
X139986Y166313D01*
X139506Y165686D01*
X139203Y164956D01*
X139166Y164673D01*
X141626D01*
Y167133D01*
D02*
G37*
G36*
X264673Y166740D02*
Y164279D01*
X267133D01*
X267096Y164563D01*
X266794Y165293D01*
X266313Y165919D01*
X265686Y166400D01*
X264956Y166702D01*
X264673Y166740D01*
D02*
G37*
G36*
X166429Y167133D02*
X166146Y167096D01*
X165416Y166794D01*
X164789Y166313D01*
X164309Y165686D01*
X164006Y164956D01*
X163969Y164673D01*
X166429D01*
Y167133D01*
D02*
G37*
G36*
X142626D02*
Y164673D01*
X145086D01*
X145049Y164956D01*
X144746Y165686D01*
X144266Y166313D01*
X143639Y166794D01*
X142909Y167096D01*
X142626Y167133D01*
D02*
G37*
G36*
X218258Y175799D02*
X215798D01*
Y173339D01*
X216081Y173376D01*
X216811Y173679D01*
X217438Y174160D01*
X217919Y174786D01*
X218221Y175516D01*
X218258Y175799D01*
D02*
G37*
G36*
X240839Y184062D02*
X240555Y184025D01*
X239826Y183723D01*
X239199Y183242D01*
X238718Y182615D01*
X238416Y181886D01*
X238379Y181602D01*
X240839D01*
Y184062D01*
D02*
G37*
G36*
X136614Y189422D02*
X135531Y189279D01*
X134521Y188861D01*
X133655Y188196D01*
X132990Y187329D01*
X132571Y186319D01*
X132429Y185236D01*
X132571Y184153D01*
X132990Y183143D01*
X133655Y182277D01*
X134521Y181612D01*
X135531Y181193D01*
X136614Y181051D01*
X137697Y181193D01*
X138707Y181612D01*
X139574Y182277D01*
X140239Y183143D01*
X140657Y184153D01*
X140800Y185236D01*
X140657Y186319D01*
X140239Y187329D01*
X139574Y188196D01*
X138707Y188861D01*
X137697Y189279D01*
X136614Y189422D01*
D02*
G37*
G36*
X250681Y191232D02*
X248221D01*
X248258Y190949D01*
X248561Y190219D01*
X249042Y189593D01*
X249668Y189112D01*
X250398Y188810D01*
X250681Y188772D01*
Y191232D01*
D02*
G37*
G36*
X241839Y184062D02*
Y181602D01*
X244299D01*
X244261Y181886D01*
X243959Y182615D01*
X243478Y183242D01*
X242851Y183723D01*
X242122Y184025D01*
X241839Y184062D01*
D02*
G37*
G36*
X244299Y180602D02*
X241839D01*
Y178142D01*
X242122Y178180D01*
X242851Y178482D01*
X243478Y178963D01*
X243959Y179589D01*
X244261Y180319D01*
X244299Y180602D01*
D02*
G37*
G36*
X115854Y178944D02*
Y176484D01*
X118314D01*
X118277Y176767D01*
X117975Y177497D01*
X117494Y178124D01*
X116867Y178605D01*
X116138Y178907D01*
X115854Y178944D01*
D02*
G37*
G36*
X114854D02*
X114571Y178907D01*
X113841Y178605D01*
X113215Y178124D01*
X112734Y177497D01*
X112432Y176767D01*
X112394Y176484D01*
X114854D01*
Y178944D01*
D02*
G37*
G36*
X240839Y180602D02*
X238379D01*
X238416Y180319D01*
X238718Y179589D01*
X239199Y178963D01*
X239826Y178482D01*
X240555Y178180D01*
X240839Y178142D01*
Y180602D01*
D02*
G37*
G36*
X251969Y185247D02*
X250937Y185111D01*
X249975Y184713D01*
X249149Y184079D01*
X248516Y183253D01*
X248117Y182292D01*
X247982Y181260D01*
X248117Y180228D01*
X248516Y179266D01*
X249149Y178441D01*
X249975Y177807D01*
X250937Y177409D01*
X251969Y177273D01*
X253000Y177409D01*
X253962Y177807D01*
X254788Y178441D01*
X255421Y179266D01*
X255820Y180228D01*
X255955Y181260D01*
X255820Y182292D01*
X255421Y183253D01*
X254788Y184079D01*
X253962Y184713D01*
X253000Y185111D01*
X251969Y185247D01*
D02*
G37*
G36*
X263673Y166740D02*
X263390Y166702D01*
X262660Y166400D01*
X262034Y165919D01*
X261553Y165293D01*
X261250Y164563D01*
X261213Y164279D01*
X263673D01*
Y166740D01*
D02*
G37*
G36*
X113673Y151385D02*
X113390Y151348D01*
X112660Y151046D01*
X112034Y150565D01*
X111553Y149938D01*
X111250Y149208D01*
X111213Y148925D01*
X113673D01*
Y151385D01*
D02*
G37*
G36*
X148531Y149811D02*
Y147350D01*
X150992D01*
X150954Y147634D01*
X150652Y148363D01*
X150171Y148990D01*
X149544Y149471D01*
X148815Y149773D01*
X148531Y149811D01*
D02*
G37*
G36*
X238476Y156193D02*
X236016D01*
X236054Y155910D01*
X236356Y155180D01*
X236837Y154553D01*
X237463Y154072D01*
X238193Y153770D01*
X238476Y153733D01*
Y156193D01*
D02*
G37*
G36*
X114673Y151385D02*
Y148925D01*
X117133D01*
X117096Y149208D01*
X116794Y149938D01*
X116313Y150565D01*
X115686Y151046D01*
X114956Y151348D01*
X114673Y151385D01*
D02*
G37*
G36*
X147531Y149811D02*
X147248Y149773D01*
X146519Y149471D01*
X145892Y148990D01*
X145411Y148363D01*
X145109Y147634D01*
X145071Y147350D01*
X147531D01*
Y149811D01*
D02*
G37*
G36*
X113673Y147925D02*
X111213D01*
X111250Y147642D01*
X111553Y146912D01*
X112034Y146286D01*
X112660Y145805D01*
X113390Y145502D01*
X113673Y145465D01*
Y147925D01*
D02*
G37*
G36*
X217429Y147331D02*
Y145382D01*
X219379D01*
X219284Y145857D01*
X218731Y146684D01*
X217905Y147237D01*
X217429Y147331D01*
D02*
G37*
G36*
X254921Y155232D02*
X249016D01*
X248626Y155155D01*
X248295Y154934D01*
X248074Y154603D01*
X247996Y154213D01*
Y148307D01*
X248074Y147917D01*
X248295Y147586D01*
X248626Y147365D01*
X249016Y147287D01*
X254921D01*
X255311Y147365D01*
X255642Y147586D01*
X255863Y147917D01*
X255941Y148307D01*
Y154213D01*
X255863Y154603D01*
X255642Y154934D01*
X255311Y155155D01*
X254921Y155232D01*
D02*
G37*
G36*
X117133Y147925D02*
X114673D01*
Y145465D01*
X114956Y145502D01*
X115686Y145805D01*
X116313Y146286D01*
X116794Y146912D01*
X117096Y147642D01*
X117133Y147925D01*
D02*
G37*
G36*
X241936Y156193D02*
X239476D01*
Y153733D01*
X239759Y153770D01*
X240489Y154072D01*
X241116Y154553D01*
X241597Y155180D01*
X241899Y155910D01*
X241936Y156193D01*
D02*
G37*
G36*
X145086Y163673D02*
X142626D01*
Y161213D01*
X142909Y161250D01*
X143639Y161553D01*
X144266Y162034D01*
X144746Y162660D01*
X145049Y163390D01*
X145086Y163673D01*
D02*
G37*
G36*
X141626D02*
X139166D01*
X139203Y163390D01*
X139506Y162660D01*
X139986Y162034D01*
X140613Y161553D01*
X141343Y161250D01*
X141626Y161213D01*
Y163673D01*
D02*
G37*
G36*
X169889D02*
X167429D01*
Y161213D01*
X167712Y161250D01*
X168442Y161553D01*
X169069Y162034D01*
X169550Y162660D01*
X169852Y163390D01*
X169889Y163673D01*
D02*
G37*
G36*
X166429D02*
X163969D01*
X164006Y163390D01*
X164309Y162660D01*
X164789Y162034D01*
X165416Y161553D01*
X166146Y161250D01*
X166429Y161213D01*
Y163673D01*
D02*
G37*
G36*
X267133Y163279D02*
X264673D01*
Y160819D01*
X264956Y160857D01*
X265686Y161159D01*
X266313Y161640D01*
X266794Y162267D01*
X267096Y162996D01*
X267133Y163279D01*
D02*
G37*
G36*
X239476Y159653D02*
Y157193D01*
X241936D01*
X241899Y157476D01*
X241597Y158206D01*
X241116Y158833D01*
X240489Y159313D01*
X239759Y159616D01*
X239476Y159653D01*
D02*
G37*
G36*
X238476D02*
X238193Y159616D01*
X237463Y159313D01*
X236837Y158833D01*
X236356Y158206D01*
X236054Y157476D01*
X236016Y157193D01*
X238476D01*
Y159653D01*
D02*
G37*
G36*
X263673Y163279D02*
X261213D01*
X261250Y162996D01*
X261553Y162267D01*
X262034Y161640D01*
X262660Y161159D01*
X263390Y160857D01*
X263673Y160819D01*
Y163279D01*
D02*
G37*
G36*
X251969Y165247D02*
X250937Y165111D01*
X249975Y164713D01*
X249149Y164079D01*
X248516Y163253D01*
X248117Y162292D01*
X247982Y161260D01*
X248117Y160228D01*
X248516Y159266D01*
X249149Y158441D01*
X249975Y157807D01*
X250937Y157409D01*
X251969Y157273D01*
X253000Y157409D01*
X253962Y157807D01*
X254788Y158441D01*
X255421Y159266D01*
X255820Y160228D01*
X255955Y161260D01*
X255820Y162292D01*
X255421Y163253D01*
X254788Y164079D01*
X253962Y164713D01*
X253000Y165111D01*
X251969Y165247D01*
D02*
G37*
G36*
X262492Y111621D02*
X262209Y111584D01*
X261479Y111282D01*
X260853Y110801D01*
X260372Y110174D01*
X260069Y109445D01*
X260032Y109161D01*
X262492D01*
Y111621D01*
D02*
G37*
G36*
X385146Y45086D02*
Y42626D01*
X387606D01*
X387568Y42909D01*
X387266Y43639D01*
X386785Y44266D01*
X386159Y44747D01*
X385429Y45049D01*
X385146Y45086D01*
D02*
G37*
G36*
X384146D02*
X383862Y45049D01*
X383133Y44747D01*
X382506Y44266D01*
X382025Y43639D01*
X381723Y42909D01*
X381686Y42626D01*
X384146D01*
Y45086D01*
D02*
G37*
G36*
X85243Y50681D02*
X82784D01*
Y48221D01*
X83067Y48258D01*
X83796Y48561D01*
X84423Y49042D01*
X84904Y49668D01*
X85206Y50398D01*
X85243Y50681D01*
D02*
G37*
G36*
X81783D02*
X79323D01*
X79361Y50398D01*
X79663Y49668D01*
X80144Y49042D01*
X80770Y48561D01*
X81500Y48258D01*
X81783Y48221D01*
Y50681D01*
D02*
G37*
G36*
X387606Y41626D02*
X385146D01*
Y39166D01*
X385429Y39203D01*
X386159Y39505D01*
X386785Y39986D01*
X387266Y40613D01*
X387568Y41343D01*
X387606Y41626D01*
D02*
G37*
G36*
X323909Y39574D02*
X323626Y39537D01*
X322897Y39235D01*
X322270Y38754D01*
X321789Y38127D01*
X321487Y37397D01*
X321449Y37114D01*
X323909D01*
Y39574D01*
D02*
G37*
G36*
X10343Y38393D02*
Y35933D01*
X12803D01*
X12765Y36216D01*
X12463Y36946D01*
X11982Y37573D01*
X11355Y38054D01*
X10626Y38356D01*
X10343Y38393D01*
D02*
G37*
G36*
X384146Y41626D02*
X381686D01*
X381723Y41343D01*
X382025Y40613D01*
X382506Y39986D01*
X383133Y39505D01*
X383862Y39203D01*
X384146Y39166D01*
Y41626D01*
D02*
G37*
G36*
X324909Y39574D02*
Y37114D01*
X327369D01*
X327332Y37397D01*
X327030Y38127D01*
X326549Y38754D01*
X325922Y39235D01*
X325193Y39537D01*
X324909Y39574D01*
D02*
G37*
G36*
X65959Y61667D02*
X65569Y61590D01*
X65238Y61369D01*
X61063Y57193D01*
X60842Y56862D01*
X60764Y56472D01*
X60842Y56082D01*
X61063Y55751D01*
X65238Y51575D01*
X65569Y51354D01*
X65959Y51277D01*
X66350Y51354D01*
X66680Y51575D01*
X70856Y55751D01*
X71077Y56082D01*
X71155Y56472D01*
X71077Y56862D01*
X70856Y57193D01*
X66680Y61369D01*
X66350Y61590D01*
X65959Y61667D01*
D02*
G37*
G36*
X369496Y65642D02*
X367035D01*
Y63182D01*
X367319Y63219D01*
X368048Y63521D01*
X368675Y64002D01*
X369156Y64629D01*
X369458Y65359D01*
X369496Y65642D01*
D02*
G37*
G36*
X366035D02*
X363575D01*
X363613Y65359D01*
X363915Y64629D01*
X364396Y64002D01*
X365022Y63521D01*
X365752Y63219D01*
X366035Y63182D01*
Y65642D01*
D02*
G37*
G36*
X32881Y66035D02*
X30421D01*
Y63575D01*
X30704Y63613D01*
X31434Y63915D01*
X32061Y64396D01*
X32542Y65022D01*
X32844Y65752D01*
X32881Y66035D01*
D02*
G37*
G36*
X29421D02*
X26961D01*
X26998Y65752D01*
X27301Y65022D01*
X27782Y64396D01*
X28408Y63915D01*
X29138Y63613D01*
X29421Y63575D01*
Y66035D01*
D02*
G37*
G36*
X337263Y67772D02*
X336232Y67636D01*
X335270Y67238D01*
X334444Y66605D01*
X333811Y65779D01*
X333413Y64817D01*
X333277Y63785D01*
X333413Y62753D01*
X333811Y61792D01*
X334444Y60966D01*
X335270Y60333D01*
X336232Y59934D01*
X337263Y59799D01*
X338295Y59934D01*
X339257Y60333D01*
X340083Y60966D01*
X340716Y61792D01*
X341114Y62753D01*
X341250Y63785D01*
X341114Y64817D01*
X340716Y65779D01*
X340083Y66605D01*
X339257Y67238D01*
X338295Y67636D01*
X337263Y67772D01*
D02*
G37*
G36*
X81783Y54141D02*
X81500Y54104D01*
X80770Y53802D01*
X80144Y53321D01*
X79663Y52694D01*
X79361Y51964D01*
X79323Y51681D01*
X81783D01*
Y54141D01*
D02*
G37*
G36*
X330192Y61910D02*
X329802Y61832D01*
X329471Y61611D01*
X325296Y57435D01*
X325075Y57104D01*
X324997Y56714D01*
X325075Y56324D01*
X325296Y55993D01*
X329471Y51817D01*
X329802Y51596D01*
X330192Y51519D01*
X330583Y51596D01*
X330913Y51817D01*
X335089Y55993D01*
X335310Y56324D01*
X335388Y56714D01*
X335310Y57104D01*
X335089Y57435D01*
X330913Y61611D01*
X330583Y61832D01*
X330192Y61910D01*
D02*
G37*
G36*
X58888Y67530D02*
X57856Y67394D01*
X56895Y66996D01*
X56069Y66362D01*
X55436Y65536D01*
X55037Y64575D01*
X54901Y63543D01*
X55037Y62511D01*
X55436Y61550D01*
X56069Y60724D01*
X56895Y60090D01*
X57856Y59692D01*
X58888Y59556D01*
X59920Y59692D01*
X60882Y60090D01*
X61707Y60724D01*
X62341Y61550D01*
X62739Y62511D01*
X62875Y63543D01*
X62739Y64575D01*
X62341Y65536D01*
X61707Y66362D01*
X60882Y66996D01*
X59920Y67394D01*
X58888Y67530D01*
D02*
G37*
G36*
X82784Y54141D02*
Y51681D01*
X85243D01*
X85206Y51964D01*
X84904Y52694D01*
X84423Y53321D01*
X83796Y53802D01*
X83067Y54104D01*
X82784Y54141D01*
D02*
G37*
G36*
X353831Y12803D02*
X353548Y12765D01*
X352818Y12463D01*
X352191Y11982D01*
X351710Y11355D01*
X351408Y10626D01*
X351371Y10343D01*
X353831D01*
Y12803D01*
D02*
G37*
G36*
X38295D02*
Y10343D01*
X40755D01*
X40718Y10626D01*
X40416Y11355D01*
X39935Y11982D01*
X39308Y12463D01*
X38578Y12765D01*
X38295Y12803D01*
D02*
G37*
G36*
X39370Y56154D02*
X37179Y56011D01*
X35026Y55582D01*
X32947Y54876D01*
X30978Y53905D01*
X29153Y52686D01*
X27502Y51238D01*
X26054Y49588D01*
X24835Y47762D01*
X23864Y45793D01*
X23158Y43714D01*
X22730Y41561D01*
X22586Y39370D01*
X22730Y37179D01*
X23158Y35026D01*
X23864Y32947D01*
X24835Y30978D01*
X26054Y29153D01*
X27502Y27502D01*
X29153Y26054D01*
X30978Y24835D01*
X32947Y23864D01*
X35026Y23158D01*
X37179Y22730D01*
X39370Y22586D01*
X41561Y22730D01*
X43714Y23158D01*
X45793Y23864D01*
X47762Y24835D01*
X49588Y26054D01*
X51238Y27502D01*
X52686Y29153D01*
X53905Y30978D01*
X54876Y32947D01*
X55582Y35026D01*
X56011Y37179D01*
X56154Y39370D01*
X56011Y41561D01*
X55582Y43714D01*
X54876Y45793D01*
X53905Y47762D01*
X52686Y49588D01*
X51238Y51238D01*
X49588Y52686D01*
X47762Y53905D01*
X45793Y54876D01*
X43714Y55582D01*
X41561Y56011D01*
X39370Y56154D01*
D02*
G37*
G36*
X354831Y12803D02*
Y10343D01*
X357291D01*
X357254Y10626D01*
X356951Y11355D01*
X356470Y11982D01*
X355844Y12463D01*
X355114Y12765D01*
X354831Y12803D01*
D02*
G37*
G36*
X37295D02*
X37012Y12765D01*
X36282Y12463D01*
X35656Y11982D01*
X35175Y11355D01*
X34872Y10626D01*
X34835Y10343D01*
X37295D01*
Y12803D01*
D02*
G37*
G36*
X40755Y9342D02*
X38295D01*
Y6882D01*
X38578Y6920D01*
X39308Y7222D01*
X39935Y7703D01*
X40416Y8330D01*
X40718Y9059D01*
X40755Y9342D01*
D02*
G37*
G36*
X37295D02*
X34835D01*
X34872Y9059D01*
X35175Y8330D01*
X35656Y7703D01*
X36282Y7222D01*
X37012Y6920D01*
X37295Y6882D01*
Y9342D01*
D02*
G37*
G36*
X357291D02*
X354831D01*
Y6882D01*
X355114Y6920D01*
X355844Y7222D01*
X356470Y7703D01*
X356951Y8330D01*
X357254Y9059D01*
X357291Y9342D01*
D02*
G37*
G36*
X353831D02*
X351371D01*
X351408Y9059D01*
X351710Y8330D01*
X352191Y7703D01*
X352818Y7222D01*
X353548Y6920D01*
X353831Y6882D01*
Y9342D01*
D02*
G37*
G36*
X354331Y56154D02*
X352140Y56011D01*
X349987Y55582D01*
X347908Y54876D01*
X345939Y53905D01*
X344113Y52686D01*
X342463Y51238D01*
X341015Y49588D01*
X339795Y47762D01*
X338824Y45793D01*
X338119Y43714D01*
X337690Y41561D01*
X337547Y39370D01*
X337690Y37179D01*
X338119Y35026D01*
X338824Y32947D01*
X339795Y30978D01*
X341015Y29153D01*
X342463Y27502D01*
X344113Y26054D01*
X345939Y24835D01*
X347908Y23864D01*
X349987Y23158D01*
X352140Y22730D01*
X354331Y22586D01*
X356522Y22730D01*
X358675Y23158D01*
X360754Y23864D01*
X362723Y24835D01*
X364548Y26054D01*
X366199Y27502D01*
X367646Y29153D01*
X368866Y30978D01*
X369837Y32947D01*
X370543Y35026D01*
X370971Y37179D01*
X371115Y39370D01*
X370971Y41561D01*
X370543Y43714D01*
X369837Y45793D01*
X368866Y47762D01*
X367646Y49588D01*
X366199Y51238D01*
X364548Y52686D01*
X362723Y53905D01*
X360754Y54876D01*
X358675Y55582D01*
X356522Y56011D01*
X354331Y56154D01*
D02*
G37*
G36*
X323909Y36114D02*
X321449D01*
X321487Y35831D01*
X321789Y35101D01*
X322270Y34475D01*
X322897Y33994D01*
X323626Y33691D01*
X323909Y33654D01*
Y36114D01*
D02*
G37*
G36*
X12803Y34933D02*
X10343D01*
Y32473D01*
X10626Y32510D01*
X11355Y32813D01*
X11982Y33293D01*
X12463Y33920D01*
X12765Y34650D01*
X12803Y34933D01*
D02*
G37*
G36*
X9342Y38393D02*
X9059Y38356D01*
X8330Y38054D01*
X7703Y37573D01*
X7222Y36946D01*
X6920Y36216D01*
X6882Y35933D01*
X9342D01*
Y38393D01*
D02*
G37*
G36*
X327369Y36114D02*
X324909D01*
Y33654D01*
X325193Y33691D01*
X325922Y33994D01*
X326549Y34475D01*
X327030Y35101D01*
X327332Y35831D01*
X327369Y36114D01*
D02*
G37*
G36*
X9342Y34933D02*
X6882D01*
X6920Y34650D01*
X7222Y33920D01*
X7703Y33293D01*
X8330Y32813D01*
X9059Y32510D01*
X9342Y32473D01*
Y34933D01*
D02*
G37*
G36*
X70283Y27059D02*
X67823D01*
Y24599D01*
X68106Y24636D01*
X68836Y24939D01*
X69463Y25419D01*
X69943Y26046D01*
X70246Y26776D01*
X70283Y27059D01*
D02*
G37*
G36*
X66823D02*
X64363D01*
X64400Y26776D01*
X64702Y26046D01*
X65183Y25419D01*
X65810Y24939D01*
X66540Y24636D01*
X66823Y24599D01*
Y27059D01*
D02*
G37*
G36*
X67823Y30519D02*
Y28059D01*
X70283D01*
X70246Y28342D01*
X69943Y29072D01*
X69463Y29699D01*
X68836Y30180D01*
X68106Y30482D01*
X67823Y30519D01*
D02*
G37*
G36*
X66823D02*
X66540Y30482D01*
X65810Y30180D01*
X65183Y29699D01*
X64702Y29072D01*
X64400Y28342D01*
X64363Y28059D01*
X66823D01*
Y30519D01*
D02*
G37*
G36*
X278346Y316018D02*
X277563Y315915D01*
X276834Y315613D01*
X276207Y315132D01*
X275726Y314505D01*
X275424Y313775D01*
X275321Y312992D01*
Y305512D01*
X275424Y304729D01*
X275726Y303999D01*
X276207Y303372D01*
X299730Y279849D01*
Y68504D01*
X299833Y67721D01*
X300135Y66991D01*
X300616Y66364D01*
X301243Y65883D01*
X301973Y65581D01*
X302756Y65478D01*
X303539Y65581D01*
X304269Y65883D01*
X304895Y66364D01*
X305376Y66991D01*
X305679Y67721D01*
X305782Y68504D01*
Y281102D01*
X305679Y281886D01*
X305376Y282615D01*
X304895Y283242D01*
X281372Y306765D01*
Y312992D01*
X281269Y313775D01*
X280967Y314505D01*
X280486Y315132D01*
X279859Y315613D01*
X279130Y315915D01*
X278346Y316018D01*
D02*
G37*
G36*
X204528Y96757D02*
X203638Y96580D01*
X202884Y96077D01*
X202380Y95323D01*
X202203Y94433D01*
X202380Y93544D01*
X202884Y92790D01*
X203638Y92286D01*
X204528Y92109D01*
X205417Y92286D01*
X206171Y92790D01*
X206675Y93544D01*
X206852Y94433D01*
X206675Y95323D01*
X206171Y96077D01*
X205417Y96580D01*
X204528Y96757D01*
D02*
G37*
G36*
X188779D02*
X187890Y96580D01*
X187136Y96077D01*
X186632Y95323D01*
X186455Y94433D01*
X186632Y93544D01*
X187136Y92790D01*
X187890Y92286D01*
X188779Y92109D01*
X189669Y92286D01*
X190423Y92790D01*
X190927Y93544D01*
X191104Y94433D01*
X190927Y95323D01*
X190423Y96077D01*
X189669Y96580D01*
X188779Y96757D01*
D02*
G37*
G36*
X328944Y96744D02*
X326484D01*
Y94284D01*
X326767Y94321D01*
X327497Y94624D01*
X328124Y95104D01*
X328605Y95731D01*
X328907Y96461D01*
X328944Y96744D01*
D02*
G37*
G36*
X325484D02*
X323024D01*
X323061Y96461D01*
X323364Y95731D01*
X323845Y95104D01*
X324471Y94624D01*
X325201Y94321D01*
X325484Y94284D01*
Y96744D01*
D02*
G37*
G36*
X104043Y89968D02*
Y87508D01*
X106503D01*
X106466Y87791D01*
X106164Y88521D01*
X105683Y89148D01*
X105056Y89628D01*
X104326Y89931D01*
X104043Y89968D01*
D02*
G37*
G36*
X196744Y87999D02*
X196461Y87962D01*
X195731Y87660D01*
X195105Y87179D01*
X194624Y86552D01*
X194321Y85822D01*
X194284Y85539D01*
X196744D01*
Y87999D01*
D02*
G37*
G36*
X267456Y85092D02*
X267356Y85085D01*
X267323Y85089D01*
X267290Y85085D01*
X267190Y85092D01*
X266419Y84990D01*
X266324Y84958D01*
X266291Y84953D01*
X266260Y84941D01*
X266162Y84921D01*
X265443Y84624D01*
X265360Y84568D01*
X265329Y84555D01*
X265303Y84535D01*
X265213Y84491D01*
X264596Y84017D01*
X264530Y83942D01*
X264504Y83921D01*
X264483Y83895D01*
X264408Y83829D01*
X263935Y83212D01*
X263890Y83122D01*
X263870Y83096D01*
X263857Y83065D01*
X263802Y82982D01*
X263504Y82263D01*
X263485Y82165D01*
X263472Y82134D01*
X263468Y82101D01*
X263435Y82006D01*
X263334Y81235D01*
X263338Y81168D01*
X263325Y81102D01*
Y73228D01*
X263338Y73162D01*
X263334Y73095D01*
X263435Y72324D01*
X263468Y72229D01*
X263472Y72197D01*
X263485Y72166D01*
X263504Y72067D01*
X263802Y71349D01*
X263857Y71266D01*
X263870Y71235D01*
X263890Y71209D01*
X263935Y71118D01*
X264408Y70502D01*
X264483Y70436D01*
X264504Y70409D01*
X264530Y70389D01*
X264596Y70314D01*
X265213Y69840D01*
X265303Y69796D01*
X265329Y69776D01*
X265360Y69763D01*
X265443Y69707D01*
X266162Y69410D01*
X266260Y69390D01*
X266291Y69377D01*
X266324Y69373D01*
X266419Y69341D01*
X267190Y69239D01*
X267290Y69246D01*
X267323Y69241D01*
X267356Y69246D01*
X267456Y69239D01*
X268227Y69341D01*
X268322Y69373D01*
X268355Y69377D01*
X268385Y69390D01*
X268484Y69410D01*
X269202Y69707D01*
X269286Y69763D01*
X269316Y69776D01*
X269343Y69796D01*
X269433Y69840D01*
X270049Y70314D01*
X270116Y70389D01*
X270142Y70409D01*
X270162Y70436D01*
X270238Y70502D01*
X270711Y71118D01*
X270755Y71209D01*
X270776Y71235D01*
X270788Y71266D01*
X270844Y71349D01*
X271142Y72067D01*
X271161Y72166D01*
X271174Y72197D01*
X271178Y72229D01*
X271210Y72324D01*
X271312Y73095D01*
X271307Y73162D01*
X271321Y73228D01*
Y81102D01*
X271307Y81168D01*
X271312Y81235D01*
X271210Y82006D01*
X271178Y82101D01*
X271174Y82134D01*
X271161Y82165D01*
X271142Y82263D01*
X270844Y82982D01*
X270788Y83065D01*
X270776Y83096D01*
X270755Y83122D01*
X270711Y83212D01*
X270238Y83829D01*
X270162Y83895D01*
X270142Y83921D01*
X270116Y83942D01*
X270049Y84017D01*
X269433Y84491D01*
X269343Y84535D01*
X269316Y84555D01*
X269286Y84568D01*
X269202Y84624D01*
X268484Y84921D01*
X268385Y84941D01*
X268355Y84953D01*
X268322Y84958D01*
X268227Y84990D01*
X267456Y85092D01*
D02*
G37*
G36*
X103043Y89968D02*
X102760Y89931D01*
X102030Y89628D01*
X101404Y89148D01*
X100923Y88521D01*
X100620Y87791D01*
X100583Y87508D01*
X103043D01*
Y89968D01*
D02*
G37*
G36*
X197744Y87999D02*
Y85539D01*
X200204D01*
X200167Y85822D01*
X199865Y86552D01*
X199384Y87179D01*
X198757Y87660D01*
X198027Y87962D01*
X197744Y87999D01*
D02*
G37*
G36*
X214461Y98319D02*
X212001D01*
X212038Y98036D01*
X212340Y97306D01*
X212821Y96679D01*
X213448Y96198D01*
X214177Y95896D01*
X214461Y95859D01*
Y98319D01*
D02*
G37*
G36*
X265952Y108161D02*
X263492D01*
Y105701D01*
X263775Y105739D01*
X264505Y106041D01*
X265132Y106522D01*
X265613Y107149D01*
X265915Y107878D01*
X265952Y108161D01*
D02*
G37*
G36*
X262492D02*
X260032D01*
X260069Y107878D01*
X260372Y107149D01*
X260853Y106522D01*
X261479Y106041D01*
X262209Y105739D01*
X262492Y105701D01*
Y108161D01*
D02*
G37*
G36*
X80913Y110130D02*
X78453D01*
Y107670D01*
X78736Y107707D01*
X79466Y108009D01*
X80092Y108490D01*
X80573Y109117D01*
X80875Y109847D01*
X80913Y110130D01*
D02*
G37*
G36*
X77453D02*
X74993D01*
X75030Y109847D01*
X75332Y109117D01*
X75813Y108490D01*
X76440Y108009D01*
X77170Y107707D01*
X77453Y107670D01*
Y110130D01*
D02*
G37*
G36*
X215461Y101779D02*
Y99319D01*
X217921D01*
X217883Y99602D01*
X217581Y100332D01*
X217100Y100959D01*
X216474Y101439D01*
X215744Y101742D01*
X215461Y101779D01*
D02*
G37*
G36*
X325484Y100204D02*
X325201Y100167D01*
X324471Y99865D01*
X323845Y99384D01*
X323364Y98757D01*
X323061Y98027D01*
X323024Y97744D01*
X325484D01*
Y100204D01*
D02*
G37*
G36*
X217921Y98319D02*
X215461D01*
Y95859D01*
X215744Y95896D01*
X216474Y96198D01*
X217100Y96679D01*
X217581Y97306D01*
X217883Y98036D01*
X217921Y98319D01*
D02*
G37*
G36*
X214461Y101779D02*
X214177Y101742D01*
X213448Y101439D01*
X212821Y100959D01*
X212340Y100332D01*
X212038Y99602D01*
X212001Y99319D01*
X214461D01*
Y101779D01*
D02*
G37*
G36*
X326484Y100204D02*
Y97744D01*
X328944D01*
X328907Y98027D01*
X328605Y98757D01*
X328124Y99384D01*
X327497Y99865D01*
X326767Y100167D01*
X326484Y100204D01*
D02*
G37*
G36*
X140051Y81306D02*
X139768Y81269D01*
X139038Y80967D01*
X138412Y80486D01*
X137931Y79859D01*
X137628Y79130D01*
X137591Y78847D01*
X140051D01*
Y81306D01*
D02*
G37*
G36*
X143511Y77846D02*
X141051D01*
Y75386D01*
X141334Y75424D01*
X142064Y75726D01*
X142691Y76207D01*
X143172Y76833D01*
X143474Y77563D01*
X143511Y77846D01*
D02*
G37*
G36*
X166035Y83752D02*
X163575D01*
X163613Y83469D01*
X163915Y82739D01*
X164396Y82112D01*
X165023Y81631D01*
X165752Y81329D01*
X166035Y81292D01*
Y83752D01*
D02*
G37*
G36*
X141051Y81306D02*
Y78847D01*
X143511D01*
X143474Y79130D01*
X143172Y79859D01*
X142691Y80486D01*
X142064Y80967D01*
X141334Y81269D01*
X141051Y81306D01*
D02*
G37*
G36*
X140051Y77846D02*
X137591D01*
X137628Y77563D01*
X137931Y76833D01*
X138412Y76207D01*
X139038Y75726D01*
X139768Y75424D01*
X140051Y75386D01*
Y77846D01*
D02*
G37*
G36*
X367035Y69102D02*
Y66642D01*
X369496D01*
X369458Y66925D01*
X369156Y67655D01*
X368675Y68281D01*
X368048Y68762D01*
X367319Y69064D01*
X367035Y69102D01*
D02*
G37*
G36*
X366035D02*
X365752Y69064D01*
X365022Y68762D01*
X364396Y68281D01*
X363915Y67655D01*
X363613Y66925D01*
X363575Y66642D01*
X366035D01*
Y69102D01*
D02*
G37*
G36*
X30421Y69495D02*
Y67035D01*
X32881D01*
X32844Y67319D01*
X32542Y68048D01*
X32061Y68675D01*
X31434Y69156D01*
X30704Y69458D01*
X30421Y69495D01*
D02*
G37*
G36*
X29421D02*
X29138Y69458D01*
X28408Y69156D01*
X27782Y68675D01*
X27301Y68048D01*
X26998Y67319D01*
X26961Y67035D01*
X29421D01*
Y69495D01*
D02*
G37*
G36*
X169495Y83752D02*
X167035D01*
Y81292D01*
X167319Y81329D01*
X168048Y81631D01*
X168675Y82112D01*
X169156Y82739D01*
X169458Y83469D01*
X169495Y83752D01*
D02*
G37*
G36*
X166035Y87212D02*
X165752Y87175D01*
X165023Y86873D01*
X164396Y86392D01*
X163915Y85765D01*
X163613Y85035D01*
X163575Y84752D01*
X166035D01*
Y87212D01*
D02*
G37*
G36*
X106503Y86508D02*
X104043D01*
Y84048D01*
X104326Y84085D01*
X105056Y84387D01*
X105683Y84868D01*
X106164Y85495D01*
X106466Y86225D01*
X106503Y86508D01*
D02*
G37*
G36*
X121393Y85092D02*
X121293Y85085D01*
X121260Y85089D01*
X121227Y85085D01*
X121127Y85092D01*
X120356Y84990D01*
X120261Y84958D01*
X120228Y84953D01*
X120197Y84941D01*
X120099Y84921D01*
X119380Y84624D01*
X119297Y84568D01*
X119266Y84555D01*
X119240Y84535D01*
X119150Y84491D01*
X118533Y84017D01*
X118467Y83942D01*
X118441Y83921D01*
X118421Y83895D01*
X118345Y83829D01*
X117872Y83212D01*
X117827Y83122D01*
X117807Y83096D01*
X117794Y83065D01*
X117739Y82982D01*
X117441Y82263D01*
X117421Y82165D01*
X117409Y82134D01*
X117404Y82101D01*
X117372Y82006D01*
X117271Y81235D01*
X117275Y81168D01*
X117262Y81102D01*
Y73228D01*
X117275Y73162D01*
X117271Y73095D01*
X117372Y72324D01*
X117404Y72229D01*
X117409Y72197D01*
X117421Y72166D01*
X117441Y72067D01*
X117739Y71349D01*
X117794Y71266D01*
X117807Y71235D01*
X117827Y71209D01*
X117872Y71119D01*
X118345Y70502D01*
X118421Y70436D01*
X118441Y70409D01*
X118467Y70389D01*
X118533Y70314D01*
X119150Y69840D01*
X119240Y69796D01*
X119266Y69776D01*
X119297Y69763D01*
X119380Y69707D01*
X120099Y69410D01*
X120197Y69390D01*
X120228Y69377D01*
X120261Y69373D01*
X120356Y69341D01*
X121127Y69239D01*
X121227Y69246D01*
X121260Y69241D01*
X121293Y69246D01*
X121393Y69239D01*
X122164Y69341D01*
X122259Y69373D01*
X122292Y69377D01*
X122322Y69390D01*
X122421Y69410D01*
X123139Y69707D01*
X123223Y69763D01*
X123253Y69776D01*
X123280Y69796D01*
X123370Y69840D01*
X123986Y70314D01*
X124053Y70389D01*
X124079Y70409D01*
X124099Y70436D01*
X124175Y70502D01*
X124648Y71119D01*
X124692Y71209D01*
X124713Y71235D01*
X124725Y71266D01*
X124781Y71349D01*
X125079Y72067D01*
X125098Y72166D01*
X125111Y72197D01*
X125115Y72229D01*
X125147Y72324D01*
X125249Y73095D01*
X125244Y73162D01*
X125258Y73228D01*
Y81102D01*
X125244Y81168D01*
X125249Y81235D01*
X125147Y82006D01*
X125115Y82101D01*
X125111Y82134D01*
X125098Y82165D01*
X125079Y82263D01*
X124781Y82982D01*
X124725Y83065D01*
X124713Y83096D01*
X124692Y83122D01*
X124648Y83212D01*
X124175Y83829D01*
X124099Y83895D01*
X124079Y83921D01*
X124053Y83942D01*
X123986Y84017D01*
X123370Y84491D01*
X123280Y84535D01*
X123253Y84555D01*
X123223Y84568D01*
X123139Y84624D01*
X122421Y84921D01*
X122322Y84941D01*
X122292Y84953D01*
X122259Y84958D01*
X122164Y84990D01*
X121393Y85092D01*
D02*
G37*
G36*
X167035Y87212D02*
Y84752D01*
X169495D01*
X169458Y85035D01*
X169156Y85765D01*
X168675Y86392D01*
X168048Y86873D01*
X167319Y87175D01*
X167035Y87212D01*
D02*
G37*
G36*
X103043Y86508D02*
X100583D01*
X100620Y86225D01*
X100923Y85495D01*
X101404Y84868D01*
X102030Y84387D01*
X102760Y84085D01*
X103043Y84048D01*
Y86508D01*
D02*
G37*
G36*
X212205Y92385D02*
X210813Y92201D01*
X209516Y91664D01*
X208403Y90810D01*
X207548Y89696D01*
X207011Y88399D01*
X206828Y87008D01*
X207011Y85616D01*
X207548Y84320D01*
X208403Y83206D01*
X209516Y82351D01*
X210813Y81814D01*
X212205Y81631D01*
X213596Y81814D01*
X214893Y82351D01*
X216007Y83206D01*
X216861Y84320D01*
X217398Y85616D01*
X217581Y87008D01*
X217398Y88399D01*
X216861Y89696D01*
X216007Y90810D01*
X214893Y91664D01*
X213596Y92201D01*
X212205Y92385D01*
D02*
G37*
G36*
X181102D02*
X179711Y92201D01*
X178414Y91664D01*
X177301Y90810D01*
X176446Y89696D01*
X175909Y88399D01*
X175726Y87008D01*
X175909Y85616D01*
X176446Y84320D01*
X177301Y83206D01*
X178414Y82351D01*
X179711Y81814D01*
X181102Y81631D01*
X182494Y81814D01*
X183791Y82351D01*
X184904Y83206D01*
X185759Y84320D01*
X186296Y85616D01*
X186479Y87008D01*
X186296Y88399D01*
X185759Y89696D01*
X184904Y90810D01*
X183791Y91664D01*
X182494Y92201D01*
X181102Y92385D01*
D02*
G37*
G36*
X200204Y84539D02*
X197744D01*
Y82079D01*
X198027Y82117D01*
X198757Y82419D01*
X199384Y82900D01*
X199865Y83526D01*
X200167Y84256D01*
X200204Y84539D01*
D02*
G37*
G36*
X196744D02*
X194284D01*
X194321Y84256D01*
X194624Y83526D01*
X195105Y82900D01*
X195731Y82419D01*
X196461Y82117D01*
X196744Y82079D01*
Y84539D01*
D02*
G37*
G36*
X254141Y191232D02*
X251681D01*
Y188772D01*
X251964Y188810D01*
X252694Y189112D01*
X253321Y189593D01*
X253802Y190219D01*
X254104Y190949D01*
X254141Y191232D01*
D02*
G37*
G36*
X287606Y319185D02*
X285146D01*
Y316725D01*
X285429Y316762D01*
X286159Y317064D01*
X286785Y317545D01*
X287266Y318172D01*
X287568Y318902D01*
X287606Y319185D01*
D02*
G37*
G36*
X284146D02*
X281686D01*
X281723Y318902D01*
X282025Y318172D01*
X282506Y317545D01*
X283133Y317064D01*
X283862Y316762D01*
X284146Y316725D01*
Y319185D01*
D02*
G37*
G36*
X47842Y321941D02*
X45382D01*
Y319481D01*
X45665Y319518D01*
X46395Y319820D01*
X47021Y320301D01*
X47502Y320928D01*
X47805Y321658D01*
X47842Y321941D01*
D02*
G37*
G36*
X44382D02*
X41922D01*
X41959Y321658D01*
X42261Y320928D01*
X42742Y320301D01*
X43369Y319820D01*
X44099Y319518D01*
X44382Y319481D01*
Y321941D01*
D02*
G37*
G36*
X267456Y311469D02*
X267356Y311463D01*
X267323Y311467D01*
X267290Y311463D01*
X267190Y311469D01*
X266419Y311368D01*
X266324Y311336D01*
X266291Y311331D01*
X266260Y311319D01*
X266162Y311299D01*
X265443Y311001D01*
X265360Y310946D01*
X265329Y310933D01*
X265303Y310913D01*
X265213Y310868D01*
X264596Y310395D01*
X264530Y310320D01*
X264504Y310299D01*
X264483Y310273D01*
X264408Y310207D01*
X263935Y309590D01*
X263890Y309500D01*
X263870Y309474D01*
X263857Y309443D01*
X263802Y309360D01*
X263504Y308641D01*
X263485Y308543D01*
X263472Y308512D01*
X263468Y308479D01*
X263435Y308384D01*
X263334Y307613D01*
X263338Y307546D01*
X263325Y307480D01*
Y299606D01*
X263338Y299540D01*
X263334Y299473D01*
X263435Y298702D01*
X263468Y298607D01*
X263472Y298574D01*
X263485Y298544D01*
X263504Y298445D01*
X263802Y297727D01*
X263857Y297643D01*
X263870Y297613D01*
X263890Y297587D01*
X263935Y297497D01*
X264408Y296880D01*
X264483Y296814D01*
X264504Y296787D01*
X264530Y296767D01*
X264596Y296691D01*
X265213Y296218D01*
X265303Y296174D01*
X265329Y296154D01*
X265360Y296141D01*
X265443Y296085D01*
X266162Y295788D01*
X266260Y295768D01*
X266291Y295755D01*
X266324Y295751D01*
X266419Y295719D01*
X267190Y295617D01*
X267290Y295624D01*
X267323Y295619D01*
X267356Y295624D01*
X267456Y295617D01*
X268227Y295719D01*
X268322Y295751D01*
X268355Y295755D01*
X268385Y295768D01*
X268484Y295788D01*
X269202Y296085D01*
X269286Y296141D01*
X269316Y296154D01*
X269343Y296174D01*
X269433Y296218D01*
X270049Y296691D01*
X270116Y296767D01*
X270142Y296787D01*
X270162Y296814D01*
X270238Y296880D01*
X270711Y297497D01*
X270755Y297587D01*
X270776Y297613D01*
X270788Y297643D01*
X270844Y297727D01*
X271142Y298445D01*
X271161Y298544D01*
X271174Y298574D01*
X271178Y298607D01*
X271210Y298702D01*
X271312Y299473D01*
X271307Y299540D01*
X271321Y299606D01*
Y307480D01*
X271307Y307546D01*
X271312Y307613D01*
X271210Y308384D01*
X271178Y308479D01*
X271174Y308512D01*
X271161Y308543D01*
X271142Y308641D01*
X270844Y309360D01*
X270788Y309443D01*
X270776Y309474D01*
X270755Y309500D01*
X270711Y309590D01*
X270238Y310207D01*
X270162Y310273D01*
X270142Y310299D01*
X270116Y310320D01*
X270049Y310395D01*
X269433Y310868D01*
X269343Y310913D01*
X269316Y310933D01*
X269286Y310946D01*
X269202Y311001D01*
X268484Y311299D01*
X268385Y311319D01*
X268355Y311331D01*
X268322Y311336D01*
X268227Y311368D01*
X267456Y311469D01*
D02*
G37*
G36*
X243020Y307291D02*
Y304831D01*
X245480D01*
X245443Y305114D01*
X245140Y305844D01*
X244659Y306470D01*
X244033Y306951D01*
X243303Y307254D01*
X243020Y307291D01*
D02*
G37*
G36*
X242020D02*
X241737Y307254D01*
X241007Y306951D01*
X240380Y306470D01*
X239899Y305844D01*
X239597Y305114D01*
X239560Y304831D01*
X242020D01*
Y307291D01*
D02*
G37*
G36*
X121393Y311469D02*
X121293Y311463D01*
X121260Y311467D01*
X121227Y311463D01*
X121127Y311469D01*
X120356Y311368D01*
X120261Y311336D01*
X120228Y311331D01*
X120197Y311319D01*
X120099Y311299D01*
X119380Y311001D01*
X119297Y310946D01*
X119266Y310933D01*
X119240Y310913D01*
X119150Y310868D01*
X118533Y310395D01*
X118467Y310320D01*
X118441Y310299D01*
X118421Y310273D01*
X118345Y310207D01*
X117872Y309590D01*
X117827Y309500D01*
X117807Y309474D01*
X117794Y309443D01*
X117739Y309360D01*
X117441Y308641D01*
X117421Y308543D01*
X117409Y308512D01*
X117404Y308479D01*
X117372Y308384D01*
X117271Y307613D01*
X117275Y307546D01*
X117262Y307480D01*
Y299606D01*
X117275Y299540D01*
X117271Y299473D01*
X117372Y298702D01*
X117404Y298607D01*
X117409Y298574D01*
X117421Y298544D01*
X117441Y298445D01*
X117739Y297727D01*
X117794Y297643D01*
X117807Y297613D01*
X117827Y297586D01*
X117872Y297497D01*
X118345Y296880D01*
X118421Y296814D01*
X118441Y296787D01*
X118467Y296767D01*
X118533Y296691D01*
X119150Y296218D01*
X119240Y296174D01*
X119266Y296154D01*
X119297Y296141D01*
X119380Y296085D01*
X120099Y295788D01*
X120197Y295768D01*
X120228Y295755D01*
X120261Y295751D01*
X120356Y295719D01*
X121127Y295617D01*
X121227Y295624D01*
X121260Y295619D01*
X121293Y295624D01*
X121393Y295617D01*
X122164Y295719D01*
X122259Y295751D01*
X122292Y295755D01*
X122322Y295768D01*
X122421Y295788D01*
X123139Y296085D01*
X123223Y296141D01*
X123253Y296154D01*
X123280Y296174D01*
X123370Y296218D01*
X123986Y296691D01*
X124053Y296767D01*
X124079Y296787D01*
X124099Y296814D01*
X124175Y296880D01*
X124648Y297497D01*
X124692Y297586D01*
X124713Y297613D01*
X124725Y297643D01*
X124781Y297727D01*
X125079Y298445D01*
X125098Y298544D01*
X125111Y298574D01*
X125115Y298607D01*
X125147Y298702D01*
X125249Y299473D01*
X125244Y299540D01*
X125258Y299606D01*
Y307480D01*
X125244Y307546D01*
X125249Y307613D01*
X125147Y308384D01*
X125115Y308479D01*
X125111Y308512D01*
X125098Y308543D01*
X125079Y308641D01*
X124781Y309360D01*
X124725Y309443D01*
X124713Y309474D01*
X124692Y309500D01*
X124648Y309590D01*
X124175Y310207D01*
X124099Y310273D01*
X124079Y310299D01*
X124053Y310320D01*
X123986Y310395D01*
X123370Y310868D01*
X123280Y310913D01*
X123253Y310933D01*
X123223Y310946D01*
X123139Y311001D01*
X122421Y311299D01*
X122322Y311319D01*
X122292Y311331D01*
X122259Y311336D01*
X122164Y311368D01*
X121393Y311469D01*
D02*
G37*
G36*
X141732Y312854D02*
X140881Y312684D01*
X140445Y312393D01*
X139868Y312278D01*
X139289Y311892D01*
X139289Y311892D01*
X134272Y306874D01*
X133795Y306779D01*
X133073Y306297D01*
X132591Y305575D01*
X132422Y304724D01*
X132591Y303873D01*
X133073Y303152D01*
X133795Y302670D01*
X134646Y302501D01*
X135497Y302670D01*
X136218Y303152D01*
X136700Y303873D01*
X136795Y304350D01*
X140997Y308552D01*
X141732Y308406D01*
X142583Y308575D01*
X143305Y309057D01*
X143787Y309779D01*
X143956Y310630D01*
X143787Y311481D01*
X143305Y312202D01*
X142583Y312684D01*
X141732Y312854D01*
D02*
G37*
G36*
X103437Y321941D02*
X100977D01*
X101014Y321658D01*
X101316Y320928D01*
X101797Y320301D01*
X102424Y319820D01*
X103154Y319518D01*
X103437Y319481D01*
Y321941D01*
D02*
G37*
G36*
X104437Y325401D02*
Y322941D01*
X106897D01*
X106860Y323224D01*
X106558Y323954D01*
X106077Y324581D01*
X105450Y325061D01*
X104720Y325364D01*
X104437Y325401D01*
D02*
G37*
G36*
X103437D02*
X103154Y325364D01*
X102424Y325061D01*
X101797Y324581D01*
X101316Y323954D01*
X101014Y323224D01*
X100977Y322941D01*
X103437D01*
Y325401D01*
D02*
G37*
G36*
X367216Y329815D02*
X364756D01*
X364794Y329532D01*
X365096Y328802D01*
X365577Y328175D01*
X366204Y327695D01*
X366933Y327392D01*
X367216Y327355D01*
Y329815D01*
D02*
G37*
G36*
X335217Y332822D02*
X334185Y332686D01*
X333224Y332288D01*
X332398Y331654D01*
X331765Y330829D01*
X331366Y329867D01*
X331230Y328835D01*
X331366Y327803D01*
X331765Y326842D01*
X332398Y326016D01*
X333224Y325382D01*
X334185Y324984D01*
X335217Y324848D01*
X336249Y324984D01*
X337211Y325382D01*
X338036Y326016D01*
X338670Y326842D01*
X339068Y327803D01*
X339204Y328835D01*
X339068Y329867D01*
X338670Y330829D01*
X338036Y331654D01*
X337211Y332288D01*
X336249Y332686D01*
X335217Y332822D01*
D02*
G37*
G36*
X45382Y325401D02*
Y322941D01*
X47842D01*
X47805Y323224D01*
X47502Y323954D01*
X47021Y324581D01*
X46395Y325061D01*
X45665Y325364D01*
X45382Y325401D01*
D02*
G37*
G36*
X284146Y322645D02*
X283862Y322608D01*
X283133Y322305D01*
X282506Y321825D01*
X282025Y321198D01*
X281723Y320468D01*
X281686Y320185D01*
X284146D01*
Y322645D01*
D02*
G37*
G36*
X106897Y321941D02*
X104437D01*
Y319481D01*
X104720Y319518D01*
X105450Y319820D01*
X106077Y320301D01*
X106558Y320928D01*
X106860Y321658D01*
X106897Y321941D01*
D02*
G37*
G36*
X44382Y325401D02*
X44099Y325364D01*
X43369Y325061D01*
X42742Y324581D01*
X42261Y323954D01*
X41959Y323224D01*
X41922Y322941D01*
X44382D01*
Y325401D01*
D02*
G37*
G36*
X285146Y322645D02*
Y320185D01*
X287606D01*
X287568Y320468D01*
X287266Y321198D01*
X286785Y321825D01*
X286159Y322305D01*
X285429Y322608D01*
X285146Y322645D01*
D02*
G37*
G36*
X196834Y293595D02*
X193413D01*
Y290174D01*
X193945Y290244D01*
X194907Y290642D01*
X195732Y291275D01*
X196366Y292101D01*
X196764Y293063D01*
X196834Y293595D01*
D02*
G37*
G36*
X192413D02*
X188992D01*
X189062Y293063D01*
X189461Y292101D01*
X190094Y291275D01*
X190920Y290642D01*
X191882Y290244D01*
X192413Y290174D01*
Y293595D01*
D02*
G37*
G36*
X177272Y293117D02*
Y290657D01*
X179732D01*
X179694Y290941D01*
X179392Y291670D01*
X178911Y292297D01*
X178285Y292778D01*
X177555Y293080D01*
X177272Y293117D01*
D02*
G37*
G36*
X176272D02*
X175988Y293080D01*
X175259Y292778D01*
X174632Y292297D01*
X174151Y291670D01*
X173849Y290941D01*
X173812Y290657D01*
X176272D01*
Y293117D01*
D02*
G37*
G36*
X205866Y298067D02*
X199961D01*
X199571Y297989D01*
X199240Y297768D01*
X199019Y297437D01*
X198941Y297047D01*
Y291142D01*
X199019Y290752D01*
X199240Y290421D01*
X199571Y290200D01*
X199961Y290122D01*
X205866D01*
X206256Y290200D01*
X206587Y290421D01*
X206808Y290752D01*
X206886Y291142D01*
Y297047D01*
X206808Y297437D01*
X206587Y297768D01*
X206256Y297989D01*
X205866Y298067D01*
D02*
G37*
G36*
X179732Y289657D02*
X177272D01*
Y287197D01*
X177555Y287235D01*
X178285Y287537D01*
X178911Y288018D01*
X179392Y288645D01*
X179694Y289374D01*
X179732Y289657D01*
D02*
G37*
G36*
X176272D02*
X173812D01*
X173849Y289374D01*
X174151Y288645D01*
X174632Y288018D01*
X175259Y287537D01*
X175988Y287235D01*
X176272Y287197D01*
Y289657D01*
D02*
G37*
G36*
X274614Y292020D02*
X272153D01*
Y289560D01*
X272437Y289597D01*
X273166Y289899D01*
X273793Y290380D01*
X274274Y291007D01*
X274576Y291737D01*
X274614Y292020D01*
D02*
G37*
G36*
X271153D02*
X268693D01*
X268731Y291737D01*
X269033Y291007D01*
X269514Y290380D01*
X270141Y289899D01*
X270870Y289597D01*
X271153Y289560D01*
Y292020D01*
D02*
G37*
G36*
Y295480D02*
X270870Y295443D01*
X270141Y295140D01*
X269514Y294659D01*
X269033Y294033D01*
X268731Y293303D01*
X268693Y293020D01*
X271153D01*
Y295480D01*
D02*
G37*
G36*
X326091Y300992D02*
Y298532D01*
X328551D01*
X328513Y298815D01*
X328211Y299544D01*
X327730Y300171D01*
X327103Y300652D01*
X326374Y300954D01*
X326091Y300992D01*
D02*
G37*
G36*
X325091D02*
X324807Y300954D01*
X324078Y300652D01*
X323451Y300171D01*
X322970Y299544D01*
X322668Y298815D01*
X322631Y298532D01*
X325091D01*
Y300992D01*
D02*
G37*
G36*
X245480Y303831D02*
X243020D01*
Y301371D01*
X243303Y301408D01*
X244033Y301710D01*
X244659Y302191D01*
X245140Y302818D01*
X245443Y303548D01*
X245480Y303831D01*
D02*
G37*
G36*
X242020D02*
X239560D01*
X239597Y303548D01*
X239899Y302818D01*
X240380Y302191D01*
X241007Y301710D01*
X241737Y301408D01*
X242020Y301371D01*
Y303831D01*
D02*
G37*
G36*
X328551Y297532D02*
X326091D01*
Y295071D01*
X326374Y295109D01*
X327103Y295411D01*
X327730Y295892D01*
X328211Y296519D01*
X328513Y297248D01*
X328551Y297532D01*
D02*
G37*
G36*
X192413Y298015D02*
X191882Y297945D01*
X190920Y297547D01*
X190094Y296914D01*
X189461Y296088D01*
X189062Y295126D01*
X188992Y294595D01*
X192413D01*
Y298015D01*
D02*
G37*
G36*
X272153Y295480D02*
Y293020D01*
X274614D01*
X274576Y293303D01*
X274274Y294033D01*
X273793Y294659D01*
X273166Y295140D01*
X272437Y295443D01*
X272153Y295480D01*
D02*
G37*
G36*
X325091Y297532D02*
X322631D01*
X322668Y297248D01*
X322970Y296519D01*
X323451Y295892D01*
X324078Y295411D01*
X324807Y295109D01*
X325091Y295071D01*
Y297532D01*
D02*
G37*
G36*
X193413Y298015D02*
Y294595D01*
X196834D01*
X196764Y295126D01*
X196366Y296088D01*
X195732Y296914D01*
X194907Y297547D01*
X193945Y297945D01*
X193413Y298015D01*
D02*
G37*
G36*
X370677Y329815D02*
X368216D01*
Y327355D01*
X368500Y327392D01*
X369230Y327695D01*
X369856Y328175D01*
X370337Y328802D01*
X370639Y329532D01*
X370677Y329815D01*
D02*
G37*
G36*
X335146Y371070D02*
Y368610D01*
X337606D01*
X337568Y368893D01*
X337266Y369623D01*
X336785Y370250D01*
X336159Y370731D01*
X335429Y371033D01*
X335146Y371070D01*
D02*
G37*
G36*
X334146D02*
X333862Y371033D01*
X333133Y370731D01*
X332506Y370250D01*
X332025Y369623D01*
X331723Y368893D01*
X331686Y368610D01*
X334146D01*
Y371070D01*
D02*
G37*
G36*
X62803Y375484D02*
X60343D01*
Y373024D01*
X60626Y373061D01*
X61356Y373364D01*
X61982Y373845D01*
X62463Y374471D01*
X62765Y375201D01*
X62803Y375484D01*
D02*
G37*
G36*
X59342D02*
X56882D01*
X56920Y375201D01*
X57222Y374471D01*
X57703Y373845D01*
X58330Y373364D01*
X59059Y373061D01*
X59342Y373024D01*
Y375484D01*
D02*
G37*
G36*
X337606Y367610D02*
X335146D01*
Y365150D01*
X335429Y365187D01*
X336159Y365490D01*
X336785Y365971D01*
X337266Y366597D01*
X337568Y367327D01*
X337606Y367610D01*
D02*
G37*
G36*
X382965Y361228D02*
X382681Y361191D01*
X381952Y360888D01*
X381325Y360407D01*
X380844Y359781D01*
X380542Y359051D01*
X380504Y358768D01*
X382965D01*
Y361228D01*
D02*
G37*
G36*
X386425Y357768D02*
X383965D01*
Y355308D01*
X384248Y355345D01*
X384978Y355647D01*
X385604Y356128D01*
X386085Y356755D01*
X386387Y357485D01*
X386425Y357768D01*
D02*
G37*
G36*
X334146Y367610D02*
X331686D01*
X331723Y367327D01*
X332025Y366597D01*
X332506Y365971D01*
X333133Y365490D01*
X333862Y365187D01*
X334146Y365150D01*
Y367610D01*
D02*
G37*
G36*
X383965Y361228D02*
Y358768D01*
X386425D01*
X386387Y359051D01*
X386085Y359781D01*
X385604Y360407D01*
X384978Y360888D01*
X384248Y361191D01*
X383965Y361228D01*
D02*
G37*
G36*
X29028Y375878D02*
X26568D01*
X26605Y375595D01*
X26907Y374865D01*
X27388Y374238D01*
X28015Y373758D01*
X28744Y373455D01*
X29028Y373418D01*
Y375878D01*
D02*
G37*
G36*
X367527Y383752D02*
X365067D01*
Y381292D01*
X365350Y381329D01*
X366080Y381631D01*
X366707Y382112D01*
X367187Y382739D01*
X367490Y383469D01*
X367527Y383752D01*
D02*
G37*
G36*
X364067D02*
X361607D01*
X361644Y383469D01*
X361946Y382739D01*
X362427Y382112D01*
X363054Y381631D01*
X363784Y381329D01*
X364067Y381292D01*
Y383752D01*
D02*
G37*
G36*
X365067Y387212D02*
Y384752D01*
X367527D01*
X367490Y385035D01*
X367187Y385765D01*
X366707Y386392D01*
X366080Y386873D01*
X365350Y387175D01*
X365067Y387212D01*
D02*
G37*
G36*
X364067D02*
X363784Y387175D01*
X363054Y386873D01*
X362427Y386392D01*
X361946Y385765D01*
X361644Y385035D01*
X361607Y384752D01*
X364067D01*
Y387212D01*
D02*
G37*
G36*
X30028Y379338D02*
Y376878D01*
X32488D01*
X32450Y377161D01*
X32148Y377891D01*
X31667Y378518D01*
X31040Y378998D01*
X30311Y379301D01*
X30028Y379338D01*
D02*
G37*
G36*
X59342Y378944D02*
X59059Y378907D01*
X58330Y378605D01*
X57703Y378124D01*
X57222Y377497D01*
X56920Y376767D01*
X56882Y376484D01*
X59342D01*
Y378944D01*
D02*
G37*
G36*
X32488Y375878D02*
X30028D01*
Y373418D01*
X30311Y373455D01*
X31040Y373758D01*
X31667Y374238D01*
X32148Y374865D01*
X32450Y375595D01*
X32488Y375878D01*
D02*
G37*
G36*
X29028Y379338D02*
X28744Y379301D01*
X28015Y378998D01*
X27388Y378518D01*
X26907Y377891D01*
X26605Y377161D01*
X26568Y376878D01*
X29028D01*
Y379338D01*
D02*
G37*
G36*
X60343Y378944D02*
Y376484D01*
X62803D01*
X62765Y376767D01*
X62463Y377497D01*
X61982Y378124D01*
X61356Y378605D01*
X60626Y378907D01*
X60343Y378944D01*
D02*
G37*
G36*
X39370Y371115D02*
X37179Y370971D01*
X35026Y370543D01*
X32947Y369837D01*
X30978Y368866D01*
X29153Y367646D01*
X27502Y366199D01*
X26054Y364548D01*
X24835Y362723D01*
X23864Y360754D01*
X23158Y358675D01*
X22730Y356522D01*
X22586Y354331D01*
X22730Y352140D01*
X23158Y349987D01*
X23864Y347908D01*
X24835Y345939D01*
X26054Y344113D01*
X27502Y342463D01*
X29153Y341015D01*
X30978Y339795D01*
X32947Y338824D01*
X35026Y338119D01*
X37179Y337690D01*
X39370Y337547D01*
X41561Y337690D01*
X43714Y338119D01*
X45793Y338824D01*
X47762Y339795D01*
X49588Y341015D01*
X51238Y342463D01*
X52686Y344113D01*
X53905Y345939D01*
X54876Y347908D01*
X55582Y349987D01*
X56011Y352140D01*
X56154Y354331D01*
X56011Y356522D01*
X55582Y358675D01*
X54876Y360754D01*
X53905Y362723D01*
X52686Y364548D01*
X51238Y366199D01*
X49588Y367646D01*
X47762Y368866D01*
X45793Y369837D01*
X43714Y370543D01*
X41561Y370971D01*
X39370Y371115D01*
D02*
G37*
G36*
X313196Y337689D02*
X310736D01*
Y335229D01*
X311019Y335266D01*
X311749Y335568D01*
X312376Y336049D01*
X312857Y336676D01*
X313159Y337406D01*
X313196Y337689D01*
D02*
G37*
G36*
X16823Y340051D02*
X14363D01*
X14400Y339768D01*
X14702Y339038D01*
X15183Y338411D01*
X15810Y337931D01*
X16540Y337628D01*
X16823Y337591D01*
Y340051D01*
D02*
G37*
G36*
X354331Y371115D02*
X352140Y370971D01*
X349987Y370543D01*
X347908Y369837D01*
X345939Y368866D01*
X344113Y367646D01*
X342463Y366199D01*
X341015Y364548D01*
X339795Y362723D01*
X338824Y360754D01*
X338119Y358675D01*
X337690Y356522D01*
X337547Y354331D01*
X337690Y352140D01*
X338119Y349987D01*
X338824Y347908D01*
X339795Y345939D01*
X341015Y344113D01*
X342463Y342463D01*
X344113Y341015D01*
X345939Y339795D01*
X347908Y338824D01*
X349987Y338119D01*
X352140Y337690D01*
X354331Y337547D01*
X356522Y337690D01*
X358675Y338119D01*
X360754Y338824D01*
X362723Y339795D01*
X364548Y341015D01*
X366199Y342463D01*
X367646Y344113D01*
X368866Y345939D01*
X369837Y347908D01*
X370543Y349987D01*
X370971Y352140D01*
X371115Y354331D01*
X370971Y356522D01*
X370543Y358675D01*
X369837Y360754D01*
X368866Y362723D01*
X367646Y364548D01*
X366199Y366199D01*
X364548Y367646D01*
X362723Y368866D01*
X360754Y369837D01*
X358675Y370543D01*
X356522Y370971D01*
X354331Y371115D01*
D02*
G37*
G36*
X309736Y337689D02*
X307276D01*
X307313Y337406D01*
X307616Y336676D01*
X308097Y336049D01*
X308723Y335568D01*
X309453Y335266D01*
X309736Y335229D01*
Y337689D01*
D02*
G37*
G36*
X328146Y341102D02*
X327756Y341024D01*
X327425Y340803D01*
X323249Y336627D01*
X323028Y336297D01*
X322951Y335906D01*
X323028Y335516D01*
X323249Y335185D01*
X327425Y331010D01*
X327756Y330789D01*
X328146Y330711D01*
X328536Y330789D01*
X328867Y331010D01*
X333043Y335185D01*
X333264Y335516D01*
X333342Y335906D01*
X333264Y336297D01*
X333043Y336627D01*
X328867Y340803D01*
X328536Y341024D01*
X328146Y341102D01*
D02*
G37*
G36*
X67153Y339823D02*
X66762Y339745D01*
X66432Y339525D01*
X62256Y335349D01*
X62035Y335018D01*
X61957Y334628D01*
X62035Y334238D01*
X62256Y333907D01*
X63747Y332416D01*
X63837Y332086D01*
X63960Y331398D01*
X64114Y329559D01*
X64116Y329453D01*
X63617Y329349D01*
X63534Y329550D01*
X62901Y330376D01*
X62075Y331009D01*
X61113Y331408D01*
X60081Y331543D01*
X59050Y331408D01*
X58088Y331009D01*
X57262Y330376D01*
X56629Y329550D01*
X56230Y328589D01*
X56095Y327557D01*
X56230Y326525D01*
X56629Y325563D01*
X57262Y324737D01*
X58088Y324104D01*
X59050Y323706D01*
X60081Y323570D01*
X61113Y323706D01*
X62075Y324104D01*
X62901Y324737D01*
X63534Y325563D01*
X63627Y325786D01*
X64127Y325687D01*
Y291509D01*
X64230Y290726D01*
X64532Y289996D01*
X65013Y289369D01*
X85950Y268432D01*
Y128347D01*
X86054Y127563D01*
X86356Y126833D01*
X86837Y126207D01*
X126994Y86049D01*
X127621Y85568D01*
X128351Y85266D01*
X129134Y85163D01*
X134646D01*
X135429Y85266D01*
X136159Y85568D01*
X136785Y86049D01*
X153616Y102880D01*
X216070D01*
X241955Y76994D01*
X242582Y76513D01*
X243311Y76211D01*
X244094Y76108D01*
X244878Y76211D01*
X245607Y76513D01*
X246234Y76994D01*
X246715Y77621D01*
X247017Y78351D01*
X247120Y79134D01*
X247017Y79917D01*
X246715Y80647D01*
X246234Y81274D01*
X219462Y108045D01*
X218836Y108526D01*
X218106Y108828D01*
X217323Y108931D01*
X152362D01*
X152362Y108931D01*
X151579Y108828D01*
X150849Y108526D01*
X150223Y108045D01*
X133392Y91215D01*
X130387D01*
X92002Y129600D01*
Y269685D01*
X91899Y270468D01*
X91597Y271198D01*
X91116Y271825D01*
X91116Y271825D01*
X70179Y292762D01*
Y328622D01*
X70250Y330555D01*
X70342Y331384D01*
X70468Y332086D01*
X70558Y332416D01*
X72049Y333907D01*
X72270Y334238D01*
X72348Y334628D01*
X72270Y335018D01*
X72049Y335349D01*
X67874Y339525D01*
X67543Y339745D01*
X67153Y339823D01*
D02*
G37*
G36*
X368216Y333275D02*
Y330815D01*
X370677D01*
X370639Y331098D01*
X370337Y331828D01*
X369856Y332455D01*
X369230Y332936D01*
X368500Y333238D01*
X368216Y333275D01*
D02*
G37*
G36*
X367216D02*
X366933Y333238D01*
X366204Y332936D01*
X365577Y332455D01*
X365096Y331828D01*
X364794Y331098D01*
X364756Y330815D01*
X367216D01*
Y333275D01*
D02*
G37*
G36*
X20283Y340051D02*
X17823D01*
Y337591D01*
X18106Y337628D01*
X18836Y337931D01*
X19463Y338411D01*
X19943Y339038D01*
X20246Y339768D01*
X20283Y340051D01*
D02*
G37*
G36*
X70760Y357291D02*
X70477Y357254D01*
X69747Y356951D01*
X69120Y356470D01*
X68639Y355844D01*
X68337Y355114D01*
X68300Y354831D01*
X70760D01*
Y357291D01*
D02*
G37*
G36*
X74220Y353831D02*
X71760D01*
Y351371D01*
X72043Y351408D01*
X72773Y351710D01*
X73400Y352191D01*
X73880Y352818D01*
X74183Y353548D01*
X74220Y353831D01*
D02*
G37*
G36*
X382965Y357768D02*
X380504D01*
X380542Y357485D01*
X380844Y356755D01*
X381325Y356128D01*
X381952Y355647D01*
X382681Y355345D01*
X382965Y355308D01*
Y357768D01*
D02*
G37*
G36*
X71760Y357291D02*
Y354831D01*
X74220D01*
X74183Y355114D01*
X73880Y355844D01*
X73400Y356470D01*
X72773Y356951D01*
X72043Y357254D01*
X71760Y357291D01*
D02*
G37*
G36*
X70760Y353831D02*
X68300D01*
X68337Y353548D01*
X68639Y352818D01*
X69120Y352191D01*
X69747Y351710D01*
X70477Y351408D01*
X70760Y351371D01*
Y353831D01*
D02*
G37*
G36*
X310736Y341149D02*
Y338689D01*
X313196D01*
X313159Y338972D01*
X312857Y339702D01*
X312376Y340329D01*
X311749Y340809D01*
X311019Y341112D01*
X310736Y341149D01*
D02*
G37*
G36*
X309736D02*
X309453Y341112D01*
X308723Y340809D01*
X308097Y340329D01*
X307616Y339702D01*
X307313Y338972D01*
X307276Y338689D01*
X309736D01*
Y341149D01*
D02*
G37*
G36*
X17823Y343511D02*
Y341051D01*
X20283D01*
X20246Y341334D01*
X19943Y342064D01*
X19463Y342691D01*
X18836Y343172D01*
X18106Y343474D01*
X17823Y343511D01*
D02*
G37*
G36*
X16823D02*
X16540Y343474D01*
X15810Y343172D01*
X15183Y342691D01*
X14702Y342064D01*
X14400Y341334D01*
X14363Y341051D01*
X16823D01*
Y343511D01*
D02*
G37*
G36*
X199319Y239180D02*
Y236720D01*
X201779D01*
X201742Y237004D01*
X201439Y237733D01*
X200958Y238360D01*
X200332Y238841D01*
X199602Y239143D01*
X199319Y239180D01*
D02*
G37*
G36*
X198319D02*
X198036Y239143D01*
X197306Y238841D01*
X196679Y238360D01*
X196198Y237733D01*
X195896Y237004D01*
X195859Y236720D01*
X198319D01*
Y239180D01*
D02*
G37*
G36*
X174220Y241626D02*
X171760D01*
Y239166D01*
X172043Y239203D01*
X172773Y239506D01*
X173399Y239986D01*
X173880Y240613D01*
X174183Y241343D01*
X174220Y241626D01*
D02*
G37*
G36*
X170760D02*
X168300D01*
X168337Y241343D01*
X168639Y240613D01*
X169120Y239986D01*
X169747Y239506D01*
X170477Y239203D01*
X170760Y239166D01*
Y241626D01*
D02*
G37*
G36*
X309949Y236031D02*
Y233571D01*
X312409D01*
X312372Y233854D01*
X312069Y234584D01*
X311589Y235210D01*
X310962Y235691D01*
X310232Y235994D01*
X309949Y236031D01*
D02*
G37*
G36*
X198319Y235720D02*
X195859D01*
X195896Y235437D01*
X196198Y234707D01*
X196679Y234081D01*
X197306Y233600D01*
X198036Y233298D01*
X198319Y233260D01*
Y235720D01*
D02*
G37*
G36*
X312409Y232571D02*
X309949D01*
Y230111D01*
X310232Y230148D01*
X310962Y230450D01*
X311589Y230931D01*
X312069Y231558D01*
X312372Y232288D01*
X312409Y232571D01*
D02*
G37*
G36*
X308949Y236031D02*
X308666Y235994D01*
X307936Y235691D01*
X307309Y235210D01*
X306828Y234584D01*
X306526Y233854D01*
X306489Y233571D01*
X308949D01*
Y236031D01*
D02*
G37*
G36*
X201779Y235720D02*
X199319D01*
Y233260D01*
X199602Y233298D01*
X200332Y233600D01*
X200958Y234081D01*
X201439Y234707D01*
X201742Y235437D01*
X201779Y235720D01*
D02*
G37*
G36*
X97350Y245480D02*
Y243020D01*
X99810D01*
X99773Y243303D01*
X99471Y244033D01*
X98990Y244659D01*
X98363Y245140D01*
X97634Y245443D01*
X97350Y245480D01*
D02*
G37*
G36*
X96350D02*
X96067Y245443D01*
X95337Y245140D01*
X94711Y244659D01*
X94230Y244033D01*
X93928Y243303D01*
X93890Y243020D01*
X96350D01*
Y245480D01*
D02*
G37*
G36*
X171260Y254586D02*
X170409Y254417D01*
X169687Y253935D01*
X169205Y253213D01*
X169036Y252362D01*
X169205Y251511D01*
X169687Y250790D01*
X170409Y250308D01*
X171260Y250138D01*
X172111Y250308D01*
X172515Y250578D01*
X185481Y250578D01*
X189583Y246477D01*
X189678Y245999D01*
X190160Y245278D01*
X190881Y244796D01*
X191732Y244627D01*
X192583Y244796D01*
X193305Y245278D01*
X193787Y245999D01*
X193956Y246850D01*
X193787Y247701D01*
X193305Y248423D01*
X192583Y248905D01*
X192106Y249000D01*
X187482Y253624D01*
X186903Y254011D01*
X186221Y254147D01*
X172515Y254147D01*
X172111Y254417D01*
X171260Y254586D01*
D02*
G37*
G36*
X292413Y246661D02*
X292130Y246624D01*
X291400Y246321D01*
X290774Y245840D01*
X290293Y245214D01*
X289991Y244484D01*
X289953Y244201D01*
X292413D01*
Y246661D01*
D02*
G37*
G36*
X171760Y245086D02*
Y242626D01*
X174220D01*
X174183Y242909D01*
X173880Y243639D01*
X173399Y244266D01*
X172773Y244746D01*
X172043Y245049D01*
X171760Y245086D01*
D02*
G37*
G36*
X99810Y242020D02*
X97350D01*
Y239560D01*
X97634Y239597D01*
X98363Y239899D01*
X98990Y240380D01*
X99471Y241007D01*
X99773Y241737D01*
X99810Y242020D01*
D02*
G37*
G36*
X96350D02*
X93890D01*
X93928Y241737D01*
X94230Y241007D01*
X94711Y240380D01*
X95337Y239899D01*
X96067Y239597D01*
X96350Y239560D01*
Y242020D01*
D02*
G37*
G36*
X170760Y245086D02*
X170477Y245049D01*
X169747Y244746D01*
X169120Y244266D01*
X168639Y243639D01*
X168337Y242909D01*
X168300Y242626D01*
X170760D01*
Y245086D01*
D02*
G37*
G36*
X292413Y243201D02*
X289953D01*
X289991Y242918D01*
X290293Y242188D01*
X290774Y241561D01*
X291400Y241080D01*
X292130Y240778D01*
X292413Y240741D01*
Y243201D01*
D02*
G37*
G36*
X308949Y232571D02*
X306489D01*
X306526Y232288D01*
X306828Y231558D01*
X307309Y230931D01*
X307936Y230450D01*
X308666Y230148D01*
X308949Y230111D01*
Y232571D01*
D02*
G37*
G36*
X118708Y204224D02*
X116248D01*
Y201764D01*
X116531Y201802D01*
X117261Y202104D01*
X117888Y202585D01*
X118368Y203211D01*
X118671Y203941D01*
X118708Y204224D01*
D02*
G37*
G36*
X115248D02*
X112788D01*
X112825Y203941D01*
X113128Y203211D01*
X113608Y202585D01*
X114235Y202104D01*
X114965Y201802D01*
X115248Y201764D01*
Y204224D01*
D02*
G37*
G36*
X116248Y207684D02*
Y205224D01*
X118708D01*
X118671Y205508D01*
X118368Y206237D01*
X117888Y206864D01*
X117261Y207345D01*
X116531Y207647D01*
X116248Y207684D01*
D02*
G37*
G36*
X115248D02*
X114965Y207647D01*
X114235Y207345D01*
X113608Y206864D01*
X113128Y206237D01*
X112825Y205508D01*
X112788Y205224D01*
X115248D01*
Y207684D01*
D02*
G37*
G36*
X136614Y208713D02*
X135531Y208570D01*
X134521Y208152D01*
X133655Y207487D01*
X132990Y206620D01*
X132571Y205611D01*
X132429Y204527D01*
X132571Y203444D01*
X132990Y202435D01*
X133655Y201568D01*
X134521Y200903D01*
X135531Y200485D01*
X136614Y200342D01*
X137697Y200485D01*
X138707Y200903D01*
X139574Y201568D01*
X140239Y202435D01*
X140657Y203444D01*
X140800Y204527D01*
X140657Y205611D01*
X140239Y206620D01*
X139574Y207487D01*
X138707Y208152D01*
X137697Y208570D01*
X136614Y208713D01*
D02*
G37*
G36*
X251681Y194692D02*
Y192232D01*
X254141D01*
X254104Y192515D01*
X253802Y193245D01*
X253321Y193872D01*
X252694Y194353D01*
X251964Y194655D01*
X251681Y194692D01*
D02*
G37*
G36*
X250681D02*
X250398Y194655D01*
X249668Y194353D01*
X249042Y193872D01*
X248561Y193245D01*
X248258Y192515D01*
X248221Y192232D01*
X250681D01*
Y194692D01*
D02*
G37*
G36*
X267062Y193359D02*
X266962Y193353D01*
X266929Y193357D01*
X266896Y193353D01*
X266796Y193359D01*
X266025Y193258D01*
X265930Y193225D01*
X265897Y193221D01*
X265867Y193208D01*
X265768Y193189D01*
X265050Y192891D01*
X264966Y192835D01*
X264936Y192823D01*
X264909Y192803D01*
X264819Y192758D01*
X264202Y192285D01*
X264136Y192209D01*
X264110Y192189D01*
X264090Y192163D01*
X264014Y192097D01*
X263541Y191480D01*
X263497Y191390D01*
X263476Y191364D01*
X263464Y191333D01*
X263408Y191249D01*
X263110Y190531D01*
X263091Y190433D01*
X263078Y190402D01*
X263074Y190369D01*
X263041Y190274D01*
X262940Y189503D01*
X262944Y189436D01*
X262931Y189370D01*
Y181496D01*
X262944Y181430D01*
X262940Y181363D01*
X263041Y180592D01*
X263074Y180497D01*
X263078Y180464D01*
X263091Y180433D01*
X263110Y180335D01*
X263408Y179617D01*
X263464Y179533D01*
X263476Y179503D01*
X263497Y179476D01*
X263541Y179386D01*
X264014Y178770D01*
X264090Y178703D01*
X264110Y178677D01*
X264136Y178657D01*
X264202Y178581D01*
X264819Y178108D01*
X264909Y178063D01*
X264936Y178043D01*
X264966Y178031D01*
X265050Y177975D01*
X265768Y177677D01*
X265867Y177658D01*
X265897Y177645D01*
X265930Y177641D01*
X266025Y177608D01*
X266796Y177507D01*
X266896Y177514D01*
X266929Y177509D01*
X266962Y177514D01*
X267062Y177507D01*
X267833Y177608D01*
X267928Y177641D01*
X267961Y177645D01*
X267992Y177658D01*
X268090Y177677D01*
X268808Y177975D01*
X268892Y178031D01*
X268923Y178043D01*
X268949Y178063D01*
X269039Y178108D01*
X269656Y178581D01*
X269722Y178657D01*
X269748Y178677D01*
X269769Y178703D01*
X269844Y178770D01*
X270317Y179386D01*
X270362Y179476D01*
X270382Y179503D01*
X270394Y179533D01*
X270450Y179617D01*
X270748Y180335D01*
X270767Y180433D01*
X270780Y180464D01*
X270784Y180497D01*
X270817Y180592D01*
X270918Y181363D01*
X270914Y181430D01*
X270927Y181496D01*
Y189370D01*
X270914Y189436D01*
X270918Y189503D01*
X270817Y190274D01*
X270784Y190369D01*
X270780Y190402D01*
X270767Y190433D01*
X270748Y190531D01*
X270450Y191249D01*
X270394Y191333D01*
X270382Y191364D01*
X270362Y191390D01*
X270317Y191480D01*
X269844Y192097D01*
X269769Y192163D01*
X269748Y192189D01*
X269722Y192209D01*
X269656Y192285D01*
X269039Y192758D01*
X268949Y192803D01*
X268923Y192823D01*
X268892Y192835D01*
X268808Y192891D01*
X268090Y193189D01*
X267992Y193208D01*
X267961Y193221D01*
X267928Y193225D01*
X267833Y193258D01*
X267062Y193359D01*
D02*
G37*
G36*
X120999D02*
X120899Y193353D01*
X120866Y193357D01*
X120833Y193353D01*
X120733Y193359D01*
X119962Y193258D01*
X119867Y193225D01*
X119834Y193221D01*
X119804Y193208D01*
X119705Y193189D01*
X118987Y192891D01*
X118903Y192835D01*
X118873Y192823D01*
X118846Y192803D01*
X118756Y192758D01*
X118140Y192285D01*
X118073Y192209D01*
X118047Y192189D01*
X118027Y192163D01*
X117951Y192097D01*
X117478Y191480D01*
X117434Y191390D01*
X117413Y191364D01*
X117401Y191333D01*
X117345Y191249D01*
X117047Y190531D01*
X117028Y190433D01*
X117015Y190402D01*
X117011Y190369D01*
X116979Y190274D01*
X116877Y189503D01*
X116881Y189436D01*
X116868Y189370D01*
Y181496D01*
X116881Y181430D01*
X116877Y181363D01*
X116979Y180592D01*
X117011Y180497D01*
X117015Y180464D01*
X117028Y180433D01*
X117047Y180335D01*
X117345Y179617D01*
X117401Y179533D01*
X117413Y179503D01*
X117434Y179476D01*
X117478Y179386D01*
X117951Y178770D01*
X118027Y178703D01*
X118047Y178677D01*
X118073Y178657D01*
X118140Y178581D01*
X118756Y178108D01*
X118846Y178063D01*
X118873Y178043D01*
X118903Y178031D01*
X118987Y177975D01*
X119705Y177677D01*
X119804Y177658D01*
X119834Y177645D01*
X119867Y177641D01*
X119962Y177608D01*
X120733Y177507D01*
X120833Y177514D01*
X120866Y177509D01*
X120899Y177514D01*
X120999Y177507D01*
X121770Y177608D01*
X121865Y177641D01*
X121898Y177645D01*
X121929Y177658D01*
X122027Y177677D01*
X122745Y177975D01*
X122829Y178031D01*
X122860Y178043D01*
X122886Y178063D01*
X122976Y178108D01*
X123593Y178581D01*
X123659Y178657D01*
X123685Y178677D01*
X123705Y178703D01*
X123781Y178770D01*
X124254Y179386D01*
X124299Y179476D01*
X124319Y179503D01*
X124331Y179533D01*
X124387Y179617D01*
X124685Y180335D01*
X124704Y180433D01*
X124717Y180464D01*
X124722Y180497D01*
X124754Y180592D01*
X124855Y181363D01*
X124851Y181430D01*
X124864Y181496D01*
Y189370D01*
X124851Y189436D01*
X124855Y189503D01*
X124754Y190274D01*
X124722Y190369D01*
X124717Y190402D01*
X124705Y190433D01*
X124685Y190531D01*
X124387Y191249D01*
X124332Y191333D01*
X124319Y191364D01*
X124299Y191390D01*
X124254Y191480D01*
X123781Y192097D01*
X123705Y192163D01*
X123685Y192189D01*
X123659Y192209D01*
X123593Y192285D01*
X122976Y192758D01*
X122886Y192803D01*
X122860Y192823D01*
X122829Y192835D01*
X122745Y192891D01*
X122027Y193189D01*
X121929Y193208D01*
X121898Y193221D01*
X121865Y193225D01*
X121770Y193258D01*
X120999Y193359D01*
D02*
G37*
G36*
X257980Y216740D02*
Y214280D01*
X260440D01*
X260403Y214563D01*
X260101Y215293D01*
X259620Y215919D01*
X258993Y216400D01*
X258263Y216702D01*
X257980Y216740D01*
D02*
G37*
G36*
X256980D02*
X256697Y216702D01*
X255967Y216400D01*
X255341Y215919D01*
X254860Y215293D01*
X254557Y214563D01*
X254520Y214280D01*
X256980D01*
Y216740D01*
D02*
G37*
G36*
X96457Y278995D02*
X95606Y278826D01*
X94884Y278344D01*
X94402Y277623D01*
X94233Y276772D01*
X94402Y275921D01*
X94672Y275516D01*
Y254724D01*
X94808Y254042D01*
X95195Y253463D01*
X125510Y223148D01*
X126089Y222761D01*
X126772Y222625D01*
X126772Y222625D01*
X142839D01*
X143244Y222355D01*
X144095Y222186D01*
X144946Y222355D01*
X145667Y222837D01*
X146149Y223558D01*
X146318Y224410D01*
X146149Y225260D01*
X145667Y225982D01*
X144946Y226464D01*
X144095Y226633D01*
X143244Y226464D01*
X142839Y226194D01*
X127511D01*
X98241Y255464D01*
Y275516D01*
X98511Y275921D01*
X98681Y276772D01*
X98511Y277623D01*
X98029Y278344D01*
X97308Y278826D01*
X96457Y278995D01*
D02*
G37*
G36*
X311221Y221298D02*
X310548Y221209D01*
X309922Y220950D01*
X309384Y220537D01*
X308971Y219999D01*
X308712Y219373D01*
X308624Y218701D01*
X308712Y218029D01*
X308971Y217402D01*
X309384Y216864D01*
X309922Y216452D01*
X310548Y216192D01*
X311221Y216104D01*
X311893Y216192D01*
X312519Y216452D01*
X313057Y216864D01*
X313470Y217402D01*
X313729Y218029D01*
X313818Y218701D01*
X313729Y219373D01*
X313470Y219999D01*
X313057Y220537D01*
X312519Y220950D01*
X311893Y221209D01*
X311221Y221298D01*
D02*
G37*
G36*
X214798Y214259D02*
X214515Y214222D01*
X213785Y213920D01*
X213158Y213439D01*
X213034Y213277D01*
X212534D01*
X212410Y213439D01*
X211783Y213920D01*
X211053Y214222D01*
X210770Y214259D01*
Y211299D01*
X209770D01*
Y214259D01*
X209487Y214222D01*
X208757Y213920D01*
X208130Y213439D01*
X208006Y213277D01*
X207506D01*
X207382Y213439D01*
X206755Y213920D01*
X206025Y214222D01*
X205742Y214259D01*
Y211299D01*
X204742D01*
Y214259D01*
X204459Y214222D01*
X203729Y213920D01*
X203102Y213439D01*
X202978Y213277D01*
X202478D01*
X202353Y213439D01*
X201727Y213920D01*
X200997Y214222D01*
X200714Y214259D01*
Y211299D01*
X199714D01*
Y214259D01*
X199431Y214222D01*
X198701Y213920D01*
X198074Y213439D01*
X197950Y213277D01*
X197450D01*
X197325Y213439D01*
X196698Y213920D01*
X195969Y214222D01*
X195686Y214259D01*
Y211299D01*
X194686D01*
Y214259D01*
X194402Y214222D01*
X193673Y213920D01*
X193046Y213439D01*
X192921Y213277D01*
X192421D01*
X192297Y213439D01*
X191670Y213920D01*
X190941Y214222D01*
X190657Y214259D01*
Y211299D01*
X189657D01*
Y214259D01*
X189374Y214222D01*
X188645Y213920D01*
X188018Y213439D01*
X187893Y213277D01*
X187393D01*
X187269Y213439D01*
X186642Y213920D01*
X185913Y214222D01*
X185629Y214259D01*
Y211299D01*
X184629D01*
Y214259D01*
X184346Y214222D01*
X183616Y213920D01*
X182990Y213439D01*
X182865Y213277D01*
X182365D01*
X182241Y213439D01*
X181614Y213920D01*
X180884Y214222D01*
X180601Y214259D01*
Y211299D01*
X180101D01*
Y210799D01*
X177141D01*
X177178Y210516D01*
X177481Y209786D01*
X177962Y209160D01*
X178105Y209049D01*
Y208549D01*
X177962Y208439D01*
X177481Y207812D01*
X177178Y207082D01*
X177141Y206799D01*
X180101D01*
Y205799D01*
X177141D01*
X177178Y205516D01*
X177481Y204786D01*
X177962Y204160D01*
X178105Y204049D01*
Y203549D01*
X177962Y203439D01*
X177481Y202812D01*
X177178Y202082D01*
X177141Y201799D01*
X180101D01*
Y200799D01*
X177141D01*
X177178Y200516D01*
X177481Y199786D01*
X177962Y199160D01*
X178105Y199049D01*
Y198549D01*
X177962Y198439D01*
X177481Y197812D01*
X177178Y197082D01*
X177141Y196799D01*
X180101D01*
Y195799D01*
X177141D01*
X177178Y195516D01*
X177481Y194786D01*
X177962Y194160D01*
X178105Y194049D01*
Y193549D01*
X177962Y193439D01*
X177481Y192812D01*
X177178Y192082D01*
X177141Y191799D01*
X180101D01*
Y190799D01*
X177141D01*
X177178Y190516D01*
X177481Y189786D01*
X177962Y189160D01*
X178105Y189049D01*
Y188549D01*
X177962Y188439D01*
X177481Y187812D01*
X177178Y187082D01*
X177141Y186799D01*
X180101D01*
Y185799D01*
X177141D01*
X177178Y185516D01*
X177481Y184786D01*
X177962Y184160D01*
X178105Y184049D01*
Y183549D01*
X177962Y183439D01*
X177481Y182812D01*
X177178Y182082D01*
X177141Y181799D01*
X180101D01*
Y180799D01*
X177141D01*
X177178Y180516D01*
X177481Y179786D01*
X177962Y179160D01*
X178105Y179049D01*
Y178549D01*
X177962Y178439D01*
X177481Y177812D01*
X177178Y177082D01*
X177141Y176799D01*
X180101D01*
Y176299D01*
X180601D01*
Y173339D01*
X180884Y173376D01*
X181614Y173679D01*
X182241Y174160D01*
X182365Y174322D01*
X182865D01*
X182990Y174160D01*
X183616Y173679D01*
X184346Y173376D01*
X184629Y173339D01*
Y176299D01*
X185629D01*
Y173339D01*
X185913Y173376D01*
X186642Y173679D01*
X187269Y174160D01*
X187393Y174322D01*
X187893D01*
X188018Y174160D01*
X188645Y173679D01*
X189374Y173376D01*
X189657Y173339D01*
Y176299D01*
X190657D01*
Y173339D01*
X190941Y173376D01*
X191670Y173679D01*
X192297Y174160D01*
X192421Y174322D01*
X192921D01*
X193046Y174160D01*
X193673Y173679D01*
X194402Y173376D01*
X194686Y173339D01*
Y176299D01*
X195686D01*
Y173339D01*
X195969Y173376D01*
X196698Y173679D01*
X197325Y174160D01*
X197450Y174322D01*
X197950D01*
X198074Y174160D01*
X198701Y173679D01*
X199431Y173376D01*
X199714Y173339D01*
Y176299D01*
X200714D01*
Y173339D01*
X200997Y173376D01*
X201727Y173679D01*
X202353Y174160D01*
X202478Y174322D01*
X202978D01*
X203102Y174160D01*
X203729Y173679D01*
X204459Y173376D01*
X204742Y173339D01*
Y176299D01*
X205742D01*
Y173339D01*
X206025Y173376D01*
X206755Y173679D01*
X207382Y174160D01*
X207506Y174322D01*
X208006D01*
X208130Y174160D01*
X208757Y173679D01*
X209487Y173376D01*
X209770Y173339D01*
Y176299D01*
X210770D01*
Y173339D01*
X211053Y173376D01*
X211783Y173679D01*
X212410Y174160D01*
X212534Y174322D01*
X213034D01*
X213158Y174160D01*
X213785Y173679D01*
X214515Y173376D01*
X214798Y173339D01*
Y176299D01*
X215298D01*
Y176799D01*
X218258D01*
X218221Y177082D01*
X217919Y177812D01*
X217438Y178439D01*
X217294Y178549D01*
Y179049D01*
X217438Y179160D01*
X217919Y179786D01*
X218221Y180516D01*
X218258Y180799D01*
X215298D01*
Y181799D01*
X218258D01*
X218221Y182082D01*
X217919Y182812D01*
X217438Y183439D01*
X217294Y183549D01*
Y184049D01*
X217438Y184160D01*
X217919Y184786D01*
X218221Y185516D01*
X218258Y185799D01*
X215298D01*
Y186799D01*
X218258D01*
X218221Y187082D01*
X217919Y187812D01*
X217438Y188439D01*
X217294Y188549D01*
Y189049D01*
X217438Y189160D01*
X217919Y189786D01*
X218221Y190516D01*
X218258Y190799D01*
X215298D01*
Y191799D01*
X218258D01*
X218221Y192082D01*
X217919Y192812D01*
X217438Y193439D01*
X217294Y193549D01*
Y194049D01*
X217438Y194160D01*
X217919Y194786D01*
X218221Y195516D01*
X218258Y195799D01*
X215298D01*
Y196799D01*
X218258D01*
X218221Y197082D01*
X217919Y197812D01*
X217438Y198439D01*
X217294Y198549D01*
Y199049D01*
X217438Y199160D01*
X217919Y199786D01*
X218221Y200516D01*
X218258Y200799D01*
X215298D01*
Y201799D01*
X218258D01*
X218221Y202082D01*
X217919Y202812D01*
X217438Y203439D01*
X217294Y203549D01*
Y204049D01*
X217438Y204160D01*
X217919Y204786D01*
X218221Y205516D01*
X218258Y205799D01*
X215298D01*
Y206799D01*
X218258D01*
X218221Y207082D01*
X217919Y207812D01*
X217438Y208439D01*
X217294Y208549D01*
Y209049D01*
X217438Y209160D01*
X217919Y209786D01*
X218221Y210516D01*
X218258Y210799D01*
X215298D01*
Y211299D01*
X214798D01*
Y214259D01*
D02*
G37*
G36*
X260440Y213280D02*
X257980D01*
Y210820D01*
X258263Y210857D01*
X258993Y211159D01*
X259620Y211640D01*
X260101Y212267D01*
X260403Y212996D01*
X260440Y213280D01*
D02*
G37*
G36*
X256980D02*
X254520D01*
X254557Y212996D01*
X254860Y212267D01*
X255341Y211640D01*
X255967Y211159D01*
X256697Y210857D01*
X256980Y210820D01*
Y213280D01*
D02*
G37*
G36*
X215798Y214259D02*
Y211799D01*
X218258D01*
X218221Y212082D01*
X217919Y212812D01*
X217438Y213439D01*
X216811Y213920D01*
X216081Y214222D01*
X215798Y214259D01*
D02*
G37*
G36*
X179601D02*
X179318Y214222D01*
X178588Y213920D01*
X177962Y213439D01*
X177481Y212812D01*
X177178Y212082D01*
X177141Y211799D01*
X179601D01*
Y214259D01*
D02*
G37*
G36*
X292913Y273877D02*
X292062Y273708D01*
X291341Y273226D01*
X290859Y272505D01*
X290690Y271654D01*
X290859Y270802D01*
X291341Y270081D01*
X292028Y269622D01*
X295066Y266584D01*
Y246461D01*
X294566Y246214D01*
X294426Y246321D01*
X293696Y246624D01*
X293413Y246661D01*
Y243701D01*
Y240741D01*
X293696Y240778D01*
X294426Y241080D01*
X294566Y241188D01*
X295066Y240941D01*
Y210188D01*
X288237Y203359D01*
X261098D01*
X260694Y203629D01*
X259842Y203799D01*
X258992Y203629D01*
X258270Y203147D01*
X257788Y202426D01*
X257619Y201575D01*
X257788Y200724D01*
X258270Y200002D01*
X258992Y199520D01*
X259842Y199351D01*
X260694Y199520D01*
X261098Y199791D01*
X288976D01*
X289659Y199926D01*
X290238Y200313D01*
X298112Y208187D01*
X298112Y208187D01*
X298499Y208766D01*
X298635Y209449D01*
X298635Y209449D01*
Y267323D01*
X298499Y268006D01*
X298112Y268584D01*
X298112Y268584D01*
X295122Y271575D01*
X295137Y271654D01*
X294968Y272505D01*
X294486Y273226D01*
X293764Y273708D01*
X292913Y273877D01*
D02*
G37*
G36*
X263673Y278157D02*
X263390Y278120D01*
X262660Y277817D01*
X262034Y277337D01*
X261553Y276710D01*
X261250Y275980D01*
X261213Y275697D01*
X263673D01*
Y278157D01*
D02*
G37*
G36*
X237902Y277307D02*
Y273886D01*
X241323D01*
X241253Y274418D01*
X240854Y275379D01*
X240221Y276205D01*
X239395Y276838D01*
X238433Y277237D01*
X237902Y277307D01*
D02*
G37*
G36*
X264673Y278157D02*
Y275697D01*
X267133D01*
X267096Y275980D01*
X266794Y276710D01*
X266313Y277337D01*
X265686Y277817D01*
X264956Y278120D01*
X264673Y278157D01*
D02*
G37*
G36*
X163590Y279421D02*
X161130D01*
Y276961D01*
X161413Y276998D01*
X162143Y277301D01*
X162770Y277782D01*
X163250Y278408D01*
X163553Y279138D01*
X163590Y279421D01*
D02*
G37*
G36*
X160130D02*
X157670D01*
X157707Y279138D01*
X158009Y278408D01*
X158490Y277782D01*
X159117Y277301D01*
X159847Y276998D01*
X160130Y276961D01*
Y279421D01*
D02*
G37*
G36*
X267133Y274697D02*
X264673D01*
Y272237D01*
X264956Y272274D01*
X265686Y272576D01*
X266313Y273057D01*
X266794Y273684D01*
X267096Y274414D01*
X267133Y274697D01*
D02*
G37*
G36*
X263673D02*
X261213D01*
X261250Y274414D01*
X261553Y273684D01*
X262034Y273057D01*
X262660Y272576D01*
X263390Y272274D01*
X263673Y272237D01*
Y274697D01*
D02*
G37*
G36*
X223909Y277307D02*
X223378Y277237D01*
X222416Y276838D01*
X221590Y276205D01*
X220957Y275379D01*
X220558Y274418D01*
X220488Y273886D01*
X223909D01*
Y277307D01*
D02*
G37*
G36*
X224909D02*
Y273886D01*
X228330D01*
X228260Y274418D01*
X227862Y275379D01*
X227229Y276205D01*
X226403Y276838D01*
X225441Y277237D01*
X224909Y277307D01*
D02*
G37*
G36*
X236902D02*
X236370Y277237D01*
X235408Y276838D01*
X234582Y276205D01*
X233949Y275379D01*
X233551Y274418D01*
X233481Y273886D01*
X236902D01*
Y277307D01*
D02*
G37*
G36*
X87508Y284456D02*
Y281996D01*
X89968D01*
X89931Y282279D01*
X89628Y283009D01*
X89148Y283636D01*
X88521Y284117D01*
X87791Y284419D01*
X87508Y284456D01*
D02*
G37*
G36*
X86508D02*
X86225Y284419D01*
X85495Y284117D01*
X84868Y283636D01*
X84387Y283009D01*
X84085Y282279D01*
X84048Y281996D01*
X86508D01*
Y284456D01*
D02*
G37*
G36*
X138386Y293183D02*
X137994Y293132D01*
X137603Y293080D01*
X136873Y292778D01*
X136246Y292297D01*
X121876Y277927D01*
X121395Y277300D01*
X121093Y276571D01*
X120990Y275787D01*
X121093Y275004D01*
X121395Y274274D01*
X121876Y273648D01*
X122503Y273167D01*
X123233Y272865D01*
X124016Y272762D01*
X124799Y272865D01*
X125529Y273167D01*
X126155Y273648D01*
X139639Y287132D01*
X157802D01*
X161565Y283368D01*
X161417Y282884D01*
X161378Y282849D01*
X161130Y282881D01*
Y280421D01*
X163590D01*
X163557Y280669D01*
X163592Y280708D01*
X164077Y280856D01*
X171902Y273031D01*
X158097Y259226D01*
X157616Y258600D01*
X157313Y257870D01*
X157210Y257087D01*
X157313Y256304D01*
X157616Y255574D01*
X157687Y255481D01*
Y248850D01*
X157616Y248757D01*
X157313Y248027D01*
X157210Y247244D01*
X157213Y247227D01*
X157210Y247220D01*
X157193Y247179D01*
X157161Y247118D01*
X157112Y247040D01*
X157070Y246983D01*
X156566Y246458D01*
X148762Y238653D01*
X146554D01*
X146363Y239115D01*
X151655Y244408D01*
X152042Y244987D01*
X152178Y245669D01*
X152178Y245669D01*
Y279453D01*
X152448Y279858D01*
X152618Y280709D01*
X152448Y281560D01*
X151966Y282281D01*
X151245Y282763D01*
X150394Y282932D01*
X149543Y282763D01*
X148821Y282281D01*
X148339Y281560D01*
X148170Y280709D01*
X148339Y279858D01*
X148609Y279453D01*
Y246408D01*
X143355Y241154D01*
X127511D01*
X126881Y241784D01*
X127027Y242520D01*
X126858Y243371D01*
X126376Y244092D01*
X125654Y244574D01*
X124803Y244743D01*
X123952Y244574D01*
X123231Y244092D01*
X122749Y243371D01*
X122579Y242520D01*
X122749Y241669D01*
X123040Y241233D01*
X123155Y240656D01*
X123541Y240077D01*
X123764Y239855D01*
X123480Y239431D01*
X123224Y239537D01*
X122441Y239640D01*
X121658Y239537D01*
X120928Y239235D01*
X120301Y238754D01*
X119820Y238127D01*
X119518Y237397D01*
X119415Y236614D01*
X119518Y235831D01*
X119820Y235101D01*
X120301Y234474D01*
X120928Y233994D01*
X121658Y233691D01*
X122441Y233588D01*
X123224Y233691D01*
X123954Y233994D01*
X124581Y234474D01*
X124591Y234488D01*
X124598Y234492D01*
X124639Y234508D01*
X124705Y234528D01*
X124794Y234549D01*
X124895Y234565D01*
X125011Y234575D01*
X149606D01*
X150387Y234730D01*
X151048Y235172D01*
X159884Y244008D01*
X159940Y244053D01*
X160032Y244120D01*
X160110Y244168D01*
X160171Y244201D01*
X160212Y244218D01*
X160219Y244220D01*
X160236Y244218D01*
X161019Y244321D01*
X161749Y244624D01*
X162376Y245105D01*
X162857Y245731D01*
X163159Y246461D01*
X163262Y247244D01*
X163159Y248027D01*
X162857Y248757D01*
X162785Y248850D01*
Y255356D01*
X176057Y268628D01*
X176468D01*
X177170Y268337D01*
X177953Y268234D01*
X212526D01*
X215557Y265203D01*
Y249213D01*
X215660Y248429D01*
X215962Y247700D01*
X216443Y247073D01*
X218024Y245492D01*
X219342Y244073D01*
X219864Y243421D01*
X220273Y242835D01*
X220437Y242549D01*
Y240433D01*
X220515Y240043D01*
X220736Y239712D01*
X221066Y239491D01*
X221457Y239413D01*
X227362D01*
X227752Y239491D01*
X228083Y239712D01*
X228304Y240043D01*
X228382Y240433D01*
Y246339D01*
X228304Y246729D01*
X228083Y247059D01*
X227752Y247281D01*
X227362Y247358D01*
X225247D01*
X224960Y247522D01*
X224386Y247923D01*
X222975Y249117D01*
X222898Y249192D01*
X223177Y249618D01*
X223378Y249535D01*
X224410Y249399D01*
X225441Y249535D01*
X226403Y249933D01*
X227229Y250567D01*
X227862Y251392D01*
X228260Y252354D01*
X228396Y253386D01*
X228260Y254418D01*
X227862Y255379D01*
X227229Y256205D01*
X226403Y256838D01*
X225441Y257237D01*
X224410Y257373D01*
X223378Y257237D01*
X222416Y256838D01*
X222057Y256563D01*
X221609Y256784D01*
Y259987D01*
X222057Y260209D01*
X222416Y259933D01*
X223378Y259535D01*
X224410Y259399D01*
X224512Y259413D01*
X224756Y259409D01*
X225039Y259390D01*
X225296Y259357D01*
X225527Y259312D01*
X225733Y259257D01*
X225914Y259191D01*
X226072Y259119D01*
X226208Y259039D01*
X226296Y258976D01*
X228924Y256347D01*
Y240945D01*
X229060Y240262D01*
X229447Y239683D01*
X244279Y224851D01*
Y223303D01*
X244008Y222898D01*
X243839Y222047D01*
X244008Y221196D01*
X244491Y220475D01*
X245212Y219993D01*
X246063Y219823D01*
X246085Y219828D01*
X246386Y219378D01*
X246371Y219355D01*
X246201Y218504D01*
X246371Y217653D01*
X246853Y216931D01*
X247574Y216449D01*
X248425Y216280D01*
X248617Y216318D01*
X249003Y216001D01*
Y215429D01*
X248733Y215024D01*
X248564Y214173D01*
X248733Y213322D01*
X249215Y212601D01*
X249936Y212119D01*
X250787Y211949D01*
X251638Y212119D01*
X252360Y212601D01*
X252842Y213322D01*
X253011Y214173D01*
X252842Y215024D01*
X252572Y215429D01*
Y229528D01*
X252436Y230210D01*
X252049Y230789D01*
X252049Y230789D01*
X246666Y236172D01*
Y243496D01*
X247166Y243743D01*
X247558Y243443D01*
X248288Y243140D01*
X248404Y243125D01*
X259867Y231662D01*
X260694Y231110D01*
X261669Y230916D01*
X262645Y231110D01*
X262943Y231309D01*
X277528D01*
X277621Y231238D01*
X278351Y230935D01*
X279134Y230832D01*
X279917Y230935D01*
X280647Y231238D01*
X281274Y231719D01*
X281754Y232345D01*
X282057Y233075D01*
X282160Y233858D01*
X282057Y234641D01*
X281754Y235371D01*
X281345Y235905D01*
X281442Y236233D01*
X281565Y236405D01*
X284965D01*
X285369Y236134D01*
X286221Y235965D01*
X287071Y236134D01*
X287793Y236616D01*
X288275Y237338D01*
X288444Y238189D01*
X288275Y239040D01*
X287793Y239761D01*
X287071Y240244D01*
X286221Y240413D01*
X285369Y240244D01*
X284965Y239973D01*
X281177D01*
X280772Y240244D01*
X279921Y240413D01*
X279070Y240244D01*
X278349Y239761D01*
X277867Y239040D01*
X277697Y238189D01*
X277867Y237338D01*
X278044Y237072D01*
X277899Y236594D01*
X277621Y236479D01*
X277528Y236407D01*
X262331D01*
X252009Y246730D01*
X251994Y246846D01*
X251691Y247576D01*
X251210Y248203D01*
X250584Y248684D01*
X249854Y248986D01*
X249071Y249089D01*
X248288Y248986D01*
X247558Y248684D01*
X247166Y248383D01*
X246666Y248629D01*
Y255906D01*
X246530Y256588D01*
X246144Y257167D01*
X241812Y261499D01*
X241748Y261587D01*
X241669Y261724D01*
X241596Y261881D01*
X241531Y262062D01*
X241475Y262268D01*
X241430Y262499D01*
X241398Y262756D01*
X241378Y263039D01*
X241375Y263283D01*
X241388Y263386D01*
X241253Y264418D01*
X240854Y265379D01*
X240221Y266205D01*
X239395Y266839D01*
X238433Y267237D01*
X237402Y267373D01*
X236370Y267237D01*
X235408Y266839D01*
X234582Y266205D01*
X233949Y265379D01*
X233551Y264418D01*
X233415Y263386D01*
X233551Y262354D01*
X233949Y261392D01*
X234582Y260567D01*
X235408Y259933D01*
X236370Y259535D01*
X237402Y259399D01*
X237504Y259413D01*
X237748Y259409D01*
X238031Y259390D01*
X238288Y259357D01*
X238519Y259312D01*
X238725Y259257D01*
X238906Y259191D01*
X239064Y259119D01*
X239200Y259039D01*
X239288Y258976D01*
X243098Y255166D01*
Y249055D01*
X242636Y248864D01*
X240940Y250560D01*
X240885Y250639D01*
X240837Y250731D01*
X240807Y250818D01*
X240790Y250907D01*
X240785Y251008D01*
X240795Y251127D01*
X240825Y251269D01*
X240880Y251437D01*
X240982Y251667D01*
X240998Y251740D01*
X241253Y252354D01*
X241388Y253386D01*
X241253Y254418D01*
X240854Y255379D01*
X240221Y256205D01*
X239395Y256838D01*
X238433Y257237D01*
X237402Y257373D01*
X236370Y257237D01*
X235408Y256838D01*
X234582Y256205D01*
X233949Y255379D01*
X233551Y254418D01*
X233415Y253386D01*
X233551Y252354D01*
X233949Y251392D01*
X234582Y250567D01*
X235408Y249933D01*
X235701Y249812D01*
X235759Y249769D01*
X235759Y249769D01*
X235760Y249769D01*
X236434Y249452D01*
X237253Y249011D01*
X237445Y248893D01*
X237802Y248644D01*
X237845Y248608D01*
X238633Y247820D01*
X238442Y247358D01*
X234449D01*
X234059Y247281D01*
X233728Y247059D01*
X233507Y246729D01*
X233429Y246339D01*
Y241401D01*
X232967Y241210D01*
X232493Y241684D01*
Y257087D01*
X232493Y257087D01*
X232357Y257769D01*
X231970Y258348D01*
X228820Y261499D01*
X228756Y261587D01*
X228676Y261724D01*
X228604Y261881D01*
X228539Y262062D01*
X228483Y262268D01*
X228438Y262499D01*
X228405Y262756D01*
X228386Y263039D01*
X228383Y263283D01*
X228396Y263386D01*
X228260Y264418D01*
X227862Y265379D01*
X227229Y266205D01*
X226403Y266839D01*
X225441Y267237D01*
X224410Y267373D01*
X223378Y267237D01*
X222416Y266839D01*
X222095Y266592D01*
X221562Y266813D01*
X221505Y267240D01*
X221203Y267970D01*
X220722Y268596D01*
X215919Y273399D01*
X215293Y273880D01*
X214563Y274183D01*
X213779Y274286D01*
X179206D01*
X161195Y292297D01*
X160568Y292778D01*
X159838Y293080D01*
X159055Y293183D01*
X138386D01*
X138386Y293183D01*
D02*
G37*
G36*
X231209Y286031D02*
Y283571D01*
X233669D01*
X233631Y283854D01*
X233329Y284584D01*
X232848Y285210D01*
X232222Y285691D01*
X231492Y285994D01*
X231209Y286031D01*
D02*
G37*
G36*
X230209D02*
X229925Y285994D01*
X229196Y285691D01*
X228569Y285210D01*
X228088Y284584D01*
X227786Y283854D01*
X227749Y283571D01*
X230209D01*
Y286031D01*
D02*
G37*
G36*
X89968Y280996D02*
X87508D01*
Y278536D01*
X87791Y278573D01*
X88521Y278876D01*
X89148Y279356D01*
X89628Y279983D01*
X89931Y280713D01*
X89968Y280996D01*
D02*
G37*
G36*
X86508D02*
X84048D01*
X84085Y280713D01*
X84387Y279983D01*
X84868Y279356D01*
X85495Y278876D01*
X86225Y278573D01*
X86508Y278536D01*
Y280996D01*
D02*
G37*
G36*
X230209Y282571D02*
X227749D01*
X227786Y282288D01*
X228088Y281558D01*
X228569Y280931D01*
X229196Y280450D01*
X229925Y280148D01*
X230209Y280111D01*
Y282571D01*
D02*
G37*
G36*
X160130Y282881D02*
X159847Y282844D01*
X159117Y282542D01*
X158490Y282061D01*
X158009Y281434D01*
X157707Y280704D01*
X157670Y280421D01*
X160130D01*
Y282881D01*
D02*
G37*
G36*
X233669Y282571D02*
X231209D01*
Y280111D01*
X231492Y280148D01*
X232222Y280450D01*
X232848Y280931D01*
X233329Y281558D01*
X233631Y282288D01*
X233669Y282571D01*
D02*
G37*
G36*
X119398Y253748D02*
Y251287D01*
X121858D01*
X121820Y251571D01*
X121518Y252300D01*
X121037Y252927D01*
X120411Y253408D01*
X119681Y253710D01*
X119398Y253748D01*
D02*
G37*
G36*
X182177Y261705D02*
X179717D01*
X179754Y261422D01*
X180057Y260692D01*
X180537Y260065D01*
X181164Y259584D01*
X181894Y259282D01*
X182177Y259245D01*
Y261705D01*
D02*
G37*
G36*
X185637D02*
X183177D01*
Y259245D01*
X183460Y259282D01*
X184190Y259584D01*
X184817Y260065D01*
X185298Y260692D01*
X185600Y261422D01*
X185637Y261705D01*
D02*
G37*
G36*
X118398Y253748D02*
X118114Y253710D01*
X117385Y253408D01*
X116758Y252927D01*
X116277Y252300D01*
X115975Y251571D01*
X115938Y251287D01*
X118398D01*
Y253748D01*
D02*
G37*
G36*
X311221Y252794D02*
X310548Y252705D01*
X309922Y252446D01*
X309384Y252033D01*
X308971Y251495D01*
X308712Y250869D01*
X308624Y250197D01*
X308712Y249525D01*
X308971Y248898D01*
X309384Y248360D01*
X309922Y247948D01*
X310548Y247688D01*
X311221Y247600D01*
X311893Y247688D01*
X312519Y247948D01*
X313057Y248360D01*
X313470Y248898D01*
X313729Y249525D01*
X313818Y250197D01*
X313729Y250869D01*
X313470Y251495D01*
X313057Y252033D01*
X312519Y252446D01*
X311893Y252705D01*
X311221Y252794D01*
D02*
G37*
G36*
X118398Y250287D02*
X115938D01*
X115975Y250004D01*
X116277Y249274D01*
X116758Y248648D01*
X117385Y248167D01*
X118114Y247865D01*
X118398Y247827D01*
Y250287D01*
D02*
G37*
G36*
X121858D02*
X119398D01*
Y247827D01*
X119681Y247865D01*
X120411Y248167D01*
X121037Y248648D01*
X121518Y249274D01*
X121820Y250004D01*
X121858Y250287D01*
D02*
G37*
G36*
X236902Y272886D02*
X233481D01*
X233551Y272354D01*
X233949Y271392D01*
X234582Y270567D01*
X235408Y269933D01*
X236370Y269535D01*
X236902Y269465D01*
Y272886D01*
D02*
G37*
G36*
X223909D02*
X220488D01*
X220558Y272354D01*
X220957Y271392D01*
X221590Y270567D01*
X222416Y269933D01*
X223378Y269535D01*
X223909Y269465D01*
Y272886D01*
D02*
G37*
G36*
X241323D02*
X237902D01*
Y269465D01*
X238433Y269535D01*
X239395Y269933D01*
X240221Y270567D01*
X240854Y271392D01*
X241253Y272354D01*
X241323Y272886D01*
D02*
G37*
G36*
X228330D02*
X224909D01*
Y269465D01*
X225441Y269535D01*
X226403Y269933D01*
X227229Y270567D01*
X227862Y271392D01*
X228260Y272354D01*
X228330Y272886D01*
D02*
G37*
G36*
X183177Y265165D02*
Y262705D01*
X185637D01*
X185600Y262988D01*
X185298Y263718D01*
X184817Y264344D01*
X184190Y264825D01*
X183460Y265127D01*
X183177Y265165D01*
D02*
G37*
G36*
X182177D02*
X181894Y265127D01*
X181164Y264825D01*
X180537Y264344D01*
X180057Y263718D01*
X179754Y262988D01*
X179717Y262705D01*
X182177D01*
Y265165D01*
D02*
G37*
%LPD*%
G36*
X71153Y334470D02*
X70773Y334410D01*
X70433Y334230D01*
X70133Y333930D01*
X69873Y333510D01*
X69653Y332970D01*
X69473Y332310D01*
X69333Y331530D01*
X69233Y330630D01*
X69153Y328470D01*
X65153Y328470D01*
X65133Y329610D01*
X64973Y331530D01*
X64833Y332310D01*
X64653Y332970D01*
X64433Y333510D01*
X64173Y333930D01*
X63873Y334230D01*
X63533Y334410D01*
X63153Y334470D01*
X71153Y334470D01*
D02*
G37*
G36*
X240359Y262997D02*
X240382Y262658D01*
X240423Y262338D01*
X240481Y262037D01*
X240557Y261756D01*
X240651Y261495D01*
X240763Y261253D01*
X240892Y261030D01*
X241039Y260827D01*
X241204Y260644D01*
X240143Y259583D01*
X239960Y259748D01*
X239757Y259895D01*
X239535Y260024D01*
X239293Y260136D01*
X239031Y260230D01*
X238750Y260306D01*
X238450Y260365D01*
X238130Y260405D01*
X237790Y260428D01*
X237431Y260433D01*
X240354Y263356D01*
X240359Y262997D01*
D02*
G37*
G36*
X160237Y245744D02*
X160199Y245723D01*
X160121Y245659D01*
X159954Y245507D01*
X160216Y245244D01*
X160102Y245237D01*
X159983Y245215D01*
X159860Y245176D01*
X159732Y245122D01*
X159600Y245052D01*
X159463Y244966D01*
X159321Y244864D01*
X159176Y244746D01*
X159125Y244699D01*
X158031Y243625D01*
X156617Y245039D01*
X157855Y246327D01*
X157856Y246329D01*
X157958Y246471D01*
X158044Y246607D01*
X158114Y246740D01*
X158168Y246868D01*
X158207Y246991D01*
X158229Y247110D01*
X158236Y247224D01*
X158481Y246979D01*
X158736Y247245D01*
X160237Y245744D01*
D02*
G37*
G36*
X227367Y262997D02*
X227390Y262658D01*
X227431Y262338D01*
X227489Y262037D01*
X227565Y261756D01*
X227659Y261495D01*
X227771Y261253D01*
X227900Y261030D01*
X228047Y260827D01*
X228212Y260644D01*
X227151Y259583D01*
X226968Y259748D01*
X226765Y259895D01*
X226542Y260024D01*
X226301Y260136D01*
X226039Y260230D01*
X225758Y260306D01*
X225458Y260365D01*
X225137Y260405D01*
X224798Y260428D01*
X224439Y260433D01*
X227362Y263356D01*
X227367Y262997D01*
D02*
G37*
G36*
X123955Y237938D02*
X124055Y237870D01*
X124169Y237810D01*
X124298Y237758D01*
X124441Y237714D01*
X124599Y237678D01*
X124771Y237650D01*
X124957Y237630D01*
X125373Y237614D01*
Y235614D01*
X125158Y235610D01*
X124771Y235578D01*
X124599Y235550D01*
X124441Y235514D01*
X124298Y235470D01*
X124169Y235418D01*
X124055Y235358D01*
X123955Y235290D01*
X123869Y235214D01*
Y238014D01*
X123955Y237938D01*
D02*
G37*
G36*
X239928Y251803D02*
X239839Y251536D01*
X239785Y251277D01*
X239763Y251027D01*
X239775Y250785D01*
X239820Y250552D01*
X239898Y250327D01*
X240010Y250111D01*
X240155Y249903D01*
X240333Y249704D01*
X238734Y249181D01*
X238588Y249318D01*
X238418Y249457D01*
X238005Y249746D01*
X237763Y249895D01*
X236893Y250363D01*
X236193Y250692D01*
X240049Y252079D01*
X239928Y251803D01*
D02*
G37*
G36*
X222291Y248361D02*
X223763Y247114D01*
X224414Y246660D01*
X225008Y246320D01*
X225546Y246092D01*
X226026Y245978D01*
X226450Y245977D01*
X226817Y246089D01*
X227127Y246314D01*
X221482Y240669D01*
X221707Y240979D01*
X221819Y241346D01*
X221817Y241769D01*
X221703Y242250D01*
X221476Y242787D01*
X221135Y243381D01*
X220681Y244032D01*
X220114Y244740D01*
X218641Y246326D01*
X221470Y249154D01*
X222291Y248361D01*
D02*
G37*
D34*
X149606Y236614D02*
X160236Y247244D01*
X122441Y236614D02*
X149606D01*
X184252Y127165D02*
X225197D01*
X169291Y112205D02*
X184252Y127165D01*
D35*
X144095Y239370D02*
X150394Y245669D01*
Y280709D01*
X292520Y271654D02*
X296850Y267323D01*
Y209449D02*
Y267323D01*
X288976Y201575D02*
X296850Y209449D01*
X96457Y254724D02*
X126772Y224409D01*
X96457Y254724D02*
Y276772D01*
X124803Y241339D02*
Y242520D01*
Y241339D02*
X126772Y239370D01*
X144095D01*
X126772Y224409D02*
Y224410D01*
X144095D01*
X140551Y310630D02*
X141732D01*
X134646Y304724D02*
X140551Y310630D01*
X224410Y263386D02*
X230709Y257087D01*
Y240945D02*
Y257087D01*
Y240945D02*
X246063Y225591D01*
Y222047D02*
Y225591D01*
X171260Y252362D02*
X186221Y252362D01*
X292520Y271654D02*
X292913D01*
X259842Y201575D02*
X288976D01*
X279921Y238189D02*
X279921Y238189D01*
X286221D01*
X237402Y251575D02*
Y253386D01*
Y251575D02*
X242126Y246850D01*
Y233465D02*
Y246850D01*
Y233465D02*
X248425Y227165D01*
Y218504D02*
Y227165D01*
X237402Y263386D02*
X244882Y255906D01*
Y235433D02*
Y255906D01*
Y235433D02*
X250787Y229528D01*
Y214173D02*
Y229528D01*
X115354Y131102D02*
X121260D01*
X150787Y160630D01*
X186221Y252362D02*
X191732Y246850D01*
D37*
X160236Y247244D02*
Y257087D01*
X249071Y246063D02*
X261669Y233465D01*
X262063Y233858D01*
X279134D01*
D38*
X160236Y257087D02*
X174803Y271654D01*
X302756Y68504D02*
Y281102D01*
X278346Y305512D02*
X302756Y281102D01*
X278346Y305512D02*
Y312992D01*
X88976Y128347D02*
Y269685D01*
X67153Y291509D02*
X88976Y269685D01*
X67153Y291509D02*
Y334628D01*
X88976Y128347D02*
X129134Y88189D01*
X134646D01*
X152362Y105905D01*
X217323D01*
X244094Y79134D01*
X218583Y249213D02*
X224410Y243386D01*
X208661Y271260D02*
X213779D01*
X218583Y266457D01*
Y249213D02*
Y266457D01*
X138386Y290158D02*
X159055D01*
X124016Y275787D02*
X138386Y290158D01*
X159055D02*
X177953Y271260D01*
X208661D01*
X174803Y271654D02*
X177165D01*
D40*
X309449Y233071D02*
D03*
X241339Y181102D02*
D03*
X251181Y191732D02*
D03*
X102362Y131102D02*
D03*
X160630Y128740D02*
D03*
X244882Y129528D02*
D03*
X242520Y304331D02*
D03*
X198819Y236221D02*
D03*
X171260Y242126D02*
D03*
X119685Y124016D02*
D03*
X103543Y87008D02*
D03*
X77953Y110630D02*
D03*
X29921Y66535D02*
D03*
X9843Y35433D02*
D03*
X37795Y9843D02*
D03*
X67323Y27559D02*
D03*
X82284Y51181D02*
D03*
X324410Y36614D02*
D03*
X354331Y9843D02*
D03*
X384646Y42126D02*
D03*
X366535Y66142D02*
D03*
X325984Y97244D02*
D03*
X309842Y125591D02*
D03*
X262992Y108661D02*
D03*
X264173Y163779D02*
D03*
X257480Y213779D02*
D03*
X292913Y243701D02*
D03*
X325590Y298031D02*
D03*
X367717Y330315D02*
D03*
X383465Y358268D02*
D03*
X364567Y384252D02*
D03*
X334646Y368110D02*
D03*
X310236Y338189D02*
D03*
X284646Y319685D02*
D03*
X230709Y283071D02*
D03*
X176772Y290158D02*
D03*
X103937Y322441D02*
D03*
X87008Y281496D02*
D03*
X96850Y242520D02*
D03*
X182677Y262205D02*
D03*
X44882Y322441D02*
D03*
X17323Y340551D02*
D03*
X29528Y376378D02*
D03*
X59842Y375984D02*
D03*
X71260Y354331D02*
D03*
X180101Y211299D02*
D03*
D03*
X185129D02*
D03*
X190157D02*
D03*
X195186D02*
D03*
X200214D02*
D03*
X215298D02*
D03*
X210270D02*
D03*
X205242D02*
D03*
X180101D02*
D03*
X205242Y206299D02*
D03*
X210270D02*
D03*
X215298D02*
D03*
X200214D02*
D03*
X195186D02*
D03*
X190157D02*
D03*
X185129D02*
D03*
X180101D02*
D03*
X205242Y201299D02*
D03*
X210270D02*
D03*
X215298D02*
D03*
X200214D02*
D03*
X195186D02*
D03*
X190157D02*
D03*
X185129D02*
D03*
X180101D02*
D03*
X205242Y196299D02*
D03*
X210270D02*
D03*
X215298D02*
D03*
X200214D02*
D03*
X195186D02*
D03*
X190157D02*
D03*
X185129D02*
D03*
X180101D02*
D03*
X205242Y191299D02*
D03*
X210270D02*
D03*
X215298D02*
D03*
X200214D02*
D03*
X195186D02*
D03*
X190157D02*
D03*
X185129D02*
D03*
X180101D02*
D03*
X205242Y186299D02*
D03*
X210270D02*
D03*
X215298D02*
D03*
X200214D02*
D03*
X195186D02*
D03*
X190157D02*
D03*
X185129D02*
D03*
X180101D02*
D03*
X205242Y181299D02*
D03*
X210270D02*
D03*
X215298D02*
D03*
X200214D02*
D03*
X195186D02*
D03*
X190157D02*
D03*
X185129D02*
D03*
X180101D02*
D03*
X205242Y176299D02*
D03*
X210270D02*
D03*
X215298D02*
D03*
X200214D02*
D03*
X195186D02*
D03*
X190157D02*
D03*
X185129D02*
D03*
X180101D02*
D03*
X214961Y98819D02*
D03*
X197244Y85039D02*
D03*
X166535Y84252D02*
D03*
X140551Y78347D02*
D03*
X114173Y148425D02*
D03*
X148031Y146850D02*
D03*
X115748Y204724D02*
D03*
X160630Y279921D02*
D03*
X118898Y250787D02*
D03*
X264173Y275197D02*
D03*
X271654Y292520D02*
D03*
X166929Y164173D02*
D03*
X142126D02*
D03*
X115354Y175984D02*
D03*
X238976Y156693D02*
D03*
X122441Y236614D02*
D03*
X160236Y247244D02*
D03*
X124016Y275787D02*
D03*
X160236Y257087D02*
D03*
X302756Y68504D02*
D03*
X278346Y312992D02*
D03*
X134646Y88189D02*
D03*
X244094Y79134D02*
D03*
X208661Y271260D02*
D03*
X249071Y246063D02*
D03*
X279134Y233858D02*
D03*
X159055Y290158D02*
D03*
D41*
X60081Y327557D02*
D03*
X335217Y328835D02*
D03*
X337263Y63785D02*
D03*
X58888Y63543D02*
D03*
X205512Y131732D02*
D03*
X195512Y141732D02*
D03*
Y131732D02*
D03*
X185512Y141732D02*
D03*
Y131732D02*
D03*
X175512Y141732D02*
D03*
Y131732D02*
D03*
X237402Y253386D02*
D03*
Y263386D02*
D03*
Y273386D02*
D03*
X224410Y253386D02*
D03*
Y263386D02*
D03*
Y273386D02*
D03*
X192913Y294094D02*
D03*
X251969Y161260D02*
D03*
Y171260D02*
D03*
Y181260D02*
D03*
D42*
X67153Y334628D02*
D03*
X330192Y56714D02*
D03*
D43*
X328146Y335906D02*
D03*
X65959Y56472D02*
D03*
D44*
X205512Y141732D02*
D03*
X202913Y294094D02*
D03*
D45*
X237402Y243386D02*
D03*
X224410D02*
D03*
X251969Y151260D02*
D03*
D46*
X212205Y87008D02*
D03*
X181102D02*
D03*
D47*
X136614Y204527D02*
D03*
Y185236D02*
D03*
D48*
X121260Y303543D02*
D03*
X267323D02*
D03*
Y77165D02*
D03*
X121260D02*
D03*
X120866Y185433D02*
D03*
X266929D02*
D03*
D49*
X216929Y144882D02*
D03*
D50*
X150394Y280709D02*
D03*
X96457Y276772D02*
D03*
X225197Y127165D02*
D03*
X169291Y112205D02*
D03*
X115354Y131102D02*
D03*
X124803Y242520D02*
D03*
X144095Y224410D02*
D03*
X134646Y304724D02*
D03*
X141732Y310630D02*
D03*
X250787Y214173D02*
D03*
X248425Y218504D02*
D03*
X246063Y222047D02*
D03*
X171260Y252362D02*
D03*
X292913Y271654D02*
D03*
X259842Y201575D02*
D03*
X279921Y238189D02*
D03*
X286221Y238189D02*
D03*
X150787Y160630D02*
D03*
X191732Y246850D02*
D03*
D51*
X311221Y250197D02*
D03*
Y218701D02*
D03*
D52*
X188779Y94433D02*
D03*
X204528D02*
D03*
D53*
X354331Y39370D02*
D03*
X39370D02*
D03*
Y354331D02*
D03*
X354331D02*
D03*
M02*
