M48
;Layer_Color=9474304
;FILE_FORMAT=2:5
INCH,LZ
;TYPE=PLATED
T1F00S00C0.01500
T2F00S00C0.01575
T3F00S00C0.02000
T4F00S00C0.02559
T5F00S00C0.02756
T6F00S00C0.03150
T7F00S00C0.03543
T8F00S00C0.05512
T10F00S00C0.27559
%
T01
X0216929Y0144882
T02
X0225197Y0127165
X0259842Y0201575
X0150787Y016063
X0115354Y0131102
X0169291Y0112205
X0144095Y022441
X0124803Y024252
X017126Y0252362
X0191732Y024685
X0150394Y0280709
X0141732Y031063
X0134646Y0304724
X0096457Y0276772
X0292913Y0271654
X0286221Y0238189
X0279921Y0238189
X0246063Y0222047
X0248425Y0218504
X0250787Y0214173
T03
X0009843Y0035433
X0037795Y0009843
X0067323Y0027559
X0082284Y0051181
X032441Y0036614
X0354331Y0009843
X0384646Y0042126
X0366535Y0066142
X0302756Y0068504
X0325984Y0097244
X0309842Y0125591
X0262992Y0108661
X0244882Y0129528
X0238976Y0156693
X0241339Y0181102
X0251181Y0191732
X0215298Y0191299
Y0196299
Y0201299
Y0206299
Y0211299
Y0186299
Y0181299
Y0176299
X0264173Y0163779
X0244094Y0079134
X0214961Y0098819
X0197244Y0085039
X0166535Y0084252
X0140551Y0078347
X0134646Y0088189
X0103543Y0087008
X0102362Y0131102
X0119685Y0124016
X0114173Y0148425
X0115354Y0175984
X0115748Y0204724
X0180101Y0206299
Y0211299
X0185129
Y0206299
Y0201299
Y0196299
Y0191299
Y0186299
Y0181299
Y0176299
X0190157
Y0181299
Y0186299
Y0191299
Y0196299
Y0201299
Y0206299
Y0211299
X0195186
Y0206299
Y0201299
Y0196299
Y0191299
Y0186299
Y0181299
Y0176299
X0200214
Y0181299
Y0186299
Y0191299
Y0196299
Y0201299
Y0206299
Y0211299
X0205242
Y0206299
Y0201299
Y0196299
Y0191299
Y0186299
Y0181299
Y0176299
X021027
Y0181299
Y0186299
Y0191299
Y0196299
Y0201299
Y0206299
Y0211299
X0180101Y0201299
Y0196299
Y0191299
Y0186299
Y0181299
Y0176299
X0166929Y0164173
X0142126
X0148031Y014685
X016063Y012874
X0077953Y011063
X0029921Y0066535
X0044882Y0322441
X0017323Y0340551
X007126Y0354331
X0103937Y0322441
X0087008Y0281496
X0124016Y0275787
X0118898Y0250787
X0122441Y0236614
X009685Y024252
X0160236Y0247244
Y0257087
X016063Y0279921
X0159055Y0290158
X0176772
X0182677Y0262205
X017126Y0242126
X0198819Y0236221
X0208661Y027126
X0230709Y0283071
X024252Y0304331
X0271654Y029252
X0264173Y0275197
X0249071Y0246063
X025748Y0213779
X0279134Y0233858
X0292913Y0243701
X0309449Y0233071
X032559Y0298031
X0310236Y0338189
X0284646Y0319685
X0278346Y0312992
X0367717Y0330315
X0334646Y036811
X0383465Y0358268
X0364567Y0384252
X0059842Y0375984
X0029528Y0376378
T04
X0188779Y0094433
X0204528
T05
X0136614Y0185236
Y0204527
T06
X0311221Y0218701
Y0250197
T07
X0330192Y0056714
X0337263Y0063785
X0251969Y015126
Y016126
Y017126
Y018126
X0205512Y0141732
Y0131732
X0195512
Y0141732
X0185512
Y0131732
X0175512
Y0141732
X0065959Y0056472
X0058888Y0063543
X0060081Y0327557
X0067153Y0334628
X0192913Y0294094
X0202913
X022441Y0273386
Y0263386
Y0253386
Y0243386
X0237402
Y0253386
Y0263386
Y0273386
X0328146Y0335906
X0335217Y0328835
T08
X0181102Y0087008
X0212205
T10
X003937Y003937
X0354331
X003937Y0354331
X0354331
M30
