G04 Layer_Color=255*
%FSLAX25Y25*%
%MOIN*%
G70*
G01*
G75*
%ADD10R,0.06299X0.06890*%
%ADD11R,0.00787X0.02756*%
%ADD12R,0.02756X0.00787*%
G04:AMPARAMS|DCode=13|XSize=36.61mil|YSize=38.58mil|CornerRadius=0mil|HoleSize=0mil|Usage=FLASHONLY|Rotation=45.000|XOffset=0mil|YOffset=0mil|HoleType=Round|Shape=Rectangle|*
%AMROTATEDRECTD13*
4,1,4,0.00070,-0.02659,-0.02659,0.00070,-0.00070,0.02659,0.02659,-0.00070,0.00070,-0.02659,0.0*
%
%ADD13ROTATEDRECTD13*%

%ADD14R,0.03661X0.03858*%
%ADD15R,0.03858X0.03661*%
G04:AMPARAMS|DCode=16|XSize=36.61mil|YSize=38.58mil|CornerRadius=0mil|HoleSize=0mil|Usage=FLASHONLY|Rotation=315.000|XOffset=0mil|YOffset=0mil|HoleType=Round|Shape=Rectangle|*
%AMROTATEDRECTD16*
4,1,4,-0.02659,-0.00070,0.00070,0.02659,0.02659,0.00070,-0.00070,-0.02659,-0.02659,-0.00070,0.0*
%
%ADD16ROTATEDRECTD16*%

G04:AMPARAMS|DCode=17|XSize=86.61mil|YSize=59.05mil|CornerRadius=0mil|HoleSize=0mil|Usage=FLASHONLY|Rotation=225.000|XOffset=0mil|YOffset=0mil|HoleType=Round|Shape=Rectangle|*
%AMROTATEDRECTD17*
4,1,4,0.00974,0.05150,0.05150,0.00974,-0.00974,-0.05150,-0.05150,-0.00974,0.00974,0.05150,0.0*
%
%ADD17ROTATEDRECTD17*%

G04:AMPARAMS|DCode=18|XSize=86.61mil|YSize=59.05mil|CornerRadius=0mil|HoleSize=0mil|Usage=FLASHONLY|Rotation=135.000|XOffset=0mil|YOffset=0mil|HoleType=Round|Shape=Rectangle|*
%AMROTATEDRECTD18*
4,1,4,0.05150,-0.00974,0.00974,-0.05150,-0.05150,0.00974,-0.00974,0.05150,0.05150,-0.00974,0.0*
%
%ADD18ROTATEDRECTD18*%

G04:AMPARAMS|DCode=19|XSize=27.56mil|YSize=49.21mil|CornerRadius=0mil|HoleSize=0mil|Usage=FLASHONLY|Rotation=225.000|XOffset=0mil|YOffset=0mil|HoleType=Round|Shape=Rectangle|*
%AMROTATEDRECTD19*
4,1,4,-0.00766,0.02714,0.02714,-0.00766,0.00766,-0.02714,-0.02714,0.00766,-0.00766,0.02714,0.0*
%
%ADD19ROTATEDRECTD19*%

G04:AMPARAMS|DCode=20|XSize=27.56mil|YSize=49.21mil|CornerRadius=0mil|HoleSize=0mil|Usage=FLASHONLY|Rotation=135.000|XOffset=0mil|YOffset=0mil|HoleType=Round|Shape=Rectangle|*
%AMROTATEDRECTD20*
4,1,4,0.02714,0.00766,-0.00766,-0.02714,-0.02714,-0.00766,0.00766,0.02714,0.02714,0.00766,0.0*
%
%ADD20ROTATEDRECTD20*%

%ADD21R,0.09842X0.09842*%
%ADD22R,0.07874X0.09842*%
%ADD23R,0.06299X0.02953*%
%ADD24R,0.01772X0.07874*%
%ADD25R,0.04724X0.04724*%
%ADD26O,0.01102X0.07087*%
%ADD27O,0.07087X0.01102*%
%ADD28R,0.13780X0.08661*%
%ADD29R,0.03937X0.08661*%
%ADD30O,0.06299X0.02362*%
%ADD31R,0.09842X0.13780*%
%ADD32R,0.02362X0.01968*%
%ADD33R,0.01968X0.02362*%
%ADD40C,0.04000*%
%ADD41C,0.05905*%
%ADD42P,0.08352X4X270.0*%
%ADD43P,0.08352X4X360.0*%
%ADD44R,0.05905X0.05905*%
%ADD45R,0.05905X0.05905*%
%ADD46C,0.08661*%
%ADD47C,0.06299*%
%ADD48O,0.05905X0.13780*%
%ADD49C,0.03000*%
D10*
X139764Y266142D02*
D03*
D11*
X135827Y272342D02*
D03*
X137402D02*
D03*
X138976D02*
D03*
X140551D02*
D03*
X142126D02*
D03*
X143701D02*
D03*
X143701Y259941D02*
D03*
X142126D02*
D03*
X140551D02*
D03*
X138976D02*
D03*
X137402D02*
D03*
X135827D02*
D03*
D12*
X145965Y270079D02*
D03*
Y268504D02*
D03*
Y266929D02*
D03*
Y265354D02*
D03*
Y263779D02*
D03*
Y262205D02*
D03*
X133563Y262205D02*
D03*
Y263779D02*
D03*
Y265354D02*
D03*
Y266929D02*
D03*
Y268504D02*
D03*
Y270079D02*
D03*
D13*
X159667Y228959D02*
D03*
X163955Y233246D02*
D03*
X157262Y239152D02*
D03*
X152974Y234864D02*
D03*
X227384Y159274D02*
D03*
X231671Y163561D02*
D03*
X114786Y277778D02*
D03*
X119073Y282065D02*
D03*
X112774Y289152D02*
D03*
X108486Y284864D02*
D03*
X283885Y111899D02*
D03*
X279597Y107612D02*
D03*
X285444Y101766D02*
D03*
X289731Y106053D02*
D03*
D14*
X212598Y155118D02*
D03*
X218661D02*
D03*
X103425Y163779D02*
D03*
X97362D02*
D03*
X143976Y230709D02*
D03*
X137913D02*
D03*
X143976Y246850D02*
D03*
X137913D02*
D03*
X90276Y224803D02*
D03*
X96339D02*
D03*
X249071Y227213D02*
D03*
X255134D02*
D03*
X249071Y239213D02*
D03*
X255134D02*
D03*
X249071Y251213D02*
D03*
X255134D02*
D03*
X249071Y263213D02*
D03*
X255134D02*
D03*
X249071Y275213D02*
D03*
X255134D02*
D03*
X198425Y155118D02*
D03*
X204488D02*
D03*
X97362D02*
D03*
X103425D02*
D03*
X207205Y261811D02*
D03*
X213268D02*
D03*
X207205Y254331D02*
D03*
X213268D02*
D03*
X105236Y224409D02*
D03*
X111299D02*
D03*
X137913Y238779D02*
D03*
X143976D02*
D03*
X90276Y215748D02*
D03*
X96339D02*
D03*
X105236Y215747D02*
D03*
X111299D02*
D03*
D15*
X241339Y219567D02*
D03*
Y213504D02*
D03*
X150787Y198268D02*
D03*
Y204331D02*
D03*
Y190827D02*
D03*
Y184764D02*
D03*
X163150Y101850D02*
D03*
Y95787D02*
D03*
X157480Y269567D02*
D03*
Y263504D02*
D03*
X224016Y88307D02*
D03*
Y94370D02*
D03*
X145354Y101850D02*
D03*
Y95787D02*
D03*
X154646Y101850D02*
D03*
Y95787D02*
D03*
X120866Y101457D02*
D03*
Y95394D02*
D03*
X130157Y101457D02*
D03*
Y95394D02*
D03*
X273622Y153819D02*
D03*
Y147756D02*
D03*
X236221Y88307D02*
D03*
Y94370D02*
D03*
X244882Y88307D02*
D03*
Y94370D02*
D03*
X166929Y263110D02*
D03*
Y269173D02*
D03*
X273622Y138858D02*
D03*
Y132795D02*
D03*
X172441Y101850D02*
D03*
Y95787D02*
D03*
X236130Y103795D02*
D03*
Y109858D02*
D03*
X244791Y103795D02*
D03*
Y109858D02*
D03*
X133858Y289094D02*
D03*
Y295158D02*
D03*
X142913Y289094D02*
D03*
Y295158D02*
D03*
X160059Y119291D02*
D03*
Y113228D02*
D03*
X102362Y260354D02*
D03*
Y266417D02*
D03*
D16*
X163561Y155730D02*
D03*
X159274Y160018D02*
D03*
X234033Y226203D02*
D03*
X229746Y230490D02*
D03*
X282502Y284427D02*
D03*
X286789Y280140D02*
D03*
X292301Y285652D02*
D03*
X288014Y289939D02*
D03*
X114073Y109851D02*
D03*
X109786Y114138D02*
D03*
X103940Y108292D02*
D03*
X108227Y104005D02*
D03*
D17*
X89115Y305764D02*
D03*
X72134Y322746D02*
D03*
X325211Y68596D02*
D03*
X308230Y85578D02*
D03*
D18*
X306354Y306873D02*
D03*
X323336Y323854D02*
D03*
X70770Y68524D02*
D03*
X87752Y85506D02*
D03*
D19*
X100426Y291742D02*
D03*
X105716Y297031D02*
D03*
X96111Y301346D02*
D03*
X296919Y99600D02*
D03*
X291629Y94311D02*
D03*
X301234Y89996D02*
D03*
D20*
X292331Y295562D02*
D03*
X297621Y290272D02*
D03*
X301936Y299877D02*
D03*
X101774Y96817D02*
D03*
X96485Y102106D02*
D03*
X92170Y92502D02*
D03*
D21*
X309646Y268701D02*
D03*
Y207382D02*
D03*
X273327Y261713D02*
D03*
D22*
X273524Y204921D02*
D03*
D23*
X269882Y212205D02*
D03*
Y246850D02*
D03*
Y242520D02*
D03*
Y238189D02*
D03*
Y233858D02*
D03*
Y229527D02*
D03*
Y225197D02*
D03*
Y220866D02*
D03*
Y216535D02*
D03*
D24*
X191535Y97638D02*
D03*
X194095D02*
D03*
X196653D02*
D03*
X199213D02*
D03*
X201772D02*
D03*
D25*
X93110Y194882D02*
D03*
X107677D02*
D03*
X93110Y171260D02*
D03*
X107677D02*
D03*
D26*
X174016Y223425D02*
D03*
X175984D02*
D03*
X177953D02*
D03*
X179921D02*
D03*
X181890D02*
D03*
X183858D02*
D03*
X185827D02*
D03*
X187795D02*
D03*
X189764D02*
D03*
X191732D02*
D03*
X193701D02*
D03*
X195669D02*
D03*
X197638D02*
D03*
X199606D02*
D03*
X201575D02*
D03*
X203543D02*
D03*
X205512D02*
D03*
X207480D02*
D03*
X209449D02*
D03*
X211417D02*
D03*
X213386D02*
D03*
X215354D02*
D03*
X217323D02*
D03*
X219291D02*
D03*
X221260D02*
D03*
Y163976D02*
D03*
X219291D02*
D03*
X217323D02*
D03*
X215354D02*
D03*
X213386D02*
D03*
X211417D02*
D03*
X209449D02*
D03*
X207480D02*
D03*
X205512D02*
D03*
X203543D02*
D03*
X201575D02*
D03*
X199606D02*
D03*
X197638D02*
D03*
X195669D02*
D03*
X193701D02*
D03*
X191732D02*
D03*
X189764D02*
D03*
X187795D02*
D03*
X185827D02*
D03*
X183858D02*
D03*
X181890D02*
D03*
X179921D02*
D03*
X177953D02*
D03*
X175984D02*
D03*
X174016D02*
D03*
D27*
X227362Y217323D02*
D03*
Y215354D02*
D03*
Y213386D02*
D03*
Y211417D02*
D03*
Y209449D02*
D03*
Y207480D02*
D03*
Y205512D02*
D03*
Y203543D02*
D03*
Y201575D02*
D03*
Y199606D02*
D03*
Y197638D02*
D03*
Y195669D02*
D03*
Y193701D02*
D03*
Y191732D02*
D03*
Y189764D02*
D03*
Y187795D02*
D03*
Y185827D02*
D03*
Y183858D02*
D03*
Y181890D02*
D03*
Y179921D02*
D03*
Y177953D02*
D03*
Y175984D02*
D03*
Y174016D02*
D03*
Y172047D02*
D03*
Y170079D02*
D03*
X167913D02*
D03*
Y172047D02*
D03*
Y174016D02*
D03*
Y175984D02*
D03*
Y177953D02*
D03*
Y179921D02*
D03*
Y181890D02*
D03*
Y183858D02*
D03*
Y185827D02*
D03*
Y187795D02*
D03*
Y189764D02*
D03*
Y191732D02*
D03*
Y193701D02*
D03*
Y195669D02*
D03*
Y197638D02*
D03*
Y199606D02*
D03*
Y201575D02*
D03*
Y203543D02*
D03*
Y205512D02*
D03*
Y207480D02*
D03*
Y209449D02*
D03*
Y211417D02*
D03*
Y213386D02*
D03*
Y215354D02*
D03*
Y217323D02*
D03*
D28*
X136614Y135827D02*
D03*
D29*
X127559Y112205D02*
D03*
X136614D02*
D03*
X145669D02*
D03*
D30*
X185039Y122461D02*
D03*
Y117461D02*
D03*
Y112461D02*
D03*
Y107461D02*
D03*
X208661Y122461D02*
D03*
Y117461D02*
D03*
Y112461D02*
D03*
Y107303D02*
D03*
D31*
X196850Y114961D02*
D03*
D32*
X119291Y259449D02*
D03*
D33*
X125000D02*
D03*
Y265354D02*
D03*
Y271260D02*
D03*
X113583D02*
D03*
Y265354D02*
D03*
Y259449D02*
D03*
D40*
X309449Y233071D02*
D03*
X241339Y181102D02*
D03*
X251181Y191732D02*
D03*
X102362Y131102D02*
D03*
X160630Y128740D02*
D03*
X244882Y129528D02*
D03*
X242520Y304331D02*
D03*
X198819Y236221D02*
D03*
X171260Y242126D02*
D03*
X119685Y124016D02*
D03*
X103543Y87008D02*
D03*
X77953Y110630D02*
D03*
X29921Y66535D02*
D03*
X9843Y35433D02*
D03*
X37795Y9843D02*
D03*
X67323Y27559D02*
D03*
X82284Y51181D02*
D03*
X324410Y36614D02*
D03*
X354331Y9843D02*
D03*
X384646Y42126D02*
D03*
X366535Y66142D02*
D03*
X325984Y97244D02*
D03*
X309842Y125591D02*
D03*
X262992Y108661D02*
D03*
X264173Y163779D02*
D03*
X257480Y213779D02*
D03*
X292913Y243701D02*
D03*
X325590Y298031D02*
D03*
X367717Y330315D02*
D03*
X383465Y358268D02*
D03*
X364567Y384252D02*
D03*
X334646Y368110D02*
D03*
X310236Y338189D02*
D03*
X284646Y319685D02*
D03*
X230709Y283071D02*
D03*
X176772Y290158D02*
D03*
X103937Y322441D02*
D03*
X87008Y281496D02*
D03*
X96850Y242520D02*
D03*
X182677Y262205D02*
D03*
X44882Y322441D02*
D03*
X17323Y340551D02*
D03*
X29528Y376378D02*
D03*
X59842Y375984D02*
D03*
X71260Y354331D02*
D03*
X180101Y211299D02*
D03*
D03*
X185129D02*
D03*
X190157D02*
D03*
X195186D02*
D03*
X200214D02*
D03*
X215298D02*
D03*
X210270D02*
D03*
X205242D02*
D03*
X180101D02*
D03*
X205242Y206299D02*
D03*
X210270D02*
D03*
X215298D02*
D03*
X200214D02*
D03*
X195186D02*
D03*
X190157D02*
D03*
X185129D02*
D03*
X180101D02*
D03*
X205242Y201299D02*
D03*
X210270D02*
D03*
X215298D02*
D03*
X200214D02*
D03*
X195186D02*
D03*
X190157D02*
D03*
X185129D02*
D03*
X180101D02*
D03*
X205242Y196299D02*
D03*
X210270D02*
D03*
X215298D02*
D03*
X200214D02*
D03*
X195186D02*
D03*
X190157D02*
D03*
X185129D02*
D03*
X180101D02*
D03*
X205242Y191299D02*
D03*
X210270D02*
D03*
X215298D02*
D03*
X200214D02*
D03*
X195186D02*
D03*
X190157D02*
D03*
X185129D02*
D03*
X180101D02*
D03*
X205242Y186299D02*
D03*
X210270D02*
D03*
X215298D02*
D03*
X200214D02*
D03*
X195186D02*
D03*
X190157D02*
D03*
X185129D02*
D03*
X180101D02*
D03*
X205242Y181299D02*
D03*
X210270D02*
D03*
X215298D02*
D03*
X200214D02*
D03*
X195186D02*
D03*
X190157D02*
D03*
X185129D02*
D03*
X180101D02*
D03*
X205242Y176299D02*
D03*
X210270D02*
D03*
X215298D02*
D03*
X200214D02*
D03*
X195186D02*
D03*
X190157D02*
D03*
X185129D02*
D03*
X180101D02*
D03*
X214961Y98819D02*
D03*
X197244Y85039D02*
D03*
X166535Y84252D02*
D03*
X140551Y78347D02*
D03*
X114173Y148425D02*
D03*
X148031Y146850D02*
D03*
X115748Y204724D02*
D03*
X160630Y279921D02*
D03*
X118898Y250787D02*
D03*
X264173Y275197D02*
D03*
X271654Y292520D02*
D03*
X166929Y164173D02*
D03*
X142126D02*
D03*
X115354Y175984D02*
D03*
X238976Y156693D02*
D03*
D41*
X60081Y327557D02*
D03*
X335217Y328835D02*
D03*
X337263Y63785D02*
D03*
X58888Y63543D02*
D03*
X205512Y131732D02*
D03*
X195512Y141732D02*
D03*
Y131732D02*
D03*
X185512Y141732D02*
D03*
Y131732D02*
D03*
X175512Y141732D02*
D03*
Y131732D02*
D03*
X237402Y253386D02*
D03*
Y263386D02*
D03*
Y273386D02*
D03*
X224410Y253386D02*
D03*
Y263386D02*
D03*
Y273386D02*
D03*
X192913Y294094D02*
D03*
X251969Y161260D02*
D03*
Y171260D02*
D03*
Y181260D02*
D03*
D42*
X67153Y334628D02*
D03*
X330192Y56714D02*
D03*
D43*
X328146Y335906D02*
D03*
X65959Y56472D02*
D03*
D44*
X205512Y141732D02*
D03*
X202913Y294094D02*
D03*
D45*
X237402Y243386D02*
D03*
X224410D02*
D03*
X251969Y151260D02*
D03*
D46*
X212205Y87008D02*
D03*
X181102D02*
D03*
D47*
X136614Y204527D02*
D03*
Y185236D02*
D03*
D48*
X121260Y303543D02*
D03*
X267323D02*
D03*
Y77165D02*
D03*
X121260D02*
D03*
X120866Y185433D02*
D03*
X266929D02*
D03*
D49*
X216929Y144882D02*
D03*
M02*
